<svg xmlns="http://www.w3.org/2000/svg" xmlns:xlink="http://www.w3.org/1999/xlink" width="3000" zoomAndPan="magnify" viewBox="0 0 2250 2250.000011" height="3000" preserveAspectRatio="xMidYMid meet" version="1.0"><defs><clipPath id="157ccbfd22"><path d="M 19.648438 19.148438 L 2219.917969 19.148438 L 2219.917969 2219.421875 L 19.648438 2219.421875 Z M 19.648438 19.148438 " clip-rule="nonzero"/></clipPath></defs><path fill="#fafafa" d="M 1442.671875 777.3125 C 1401.90625 788.203125 1376.253906 831.074219 1386.445312 870.433594 C 1387.851562 875.351562 1388.554688 879.921875 1387.851562 880.273438 C 1384.6875 883.085938 1291.917969 946.6875 1290.160156 947.390625 C 1288.753906 948.09375 1284.1875 945.984375 1279.96875 943.175781 C 1269.78125 936.148438 1256.074219 931.578125 1242.722656 930.875 C 1219.878906 929.117188 1199.496094 937.199219 1182.277344 954.417969 L 1171.738281 964.609375 L 1132.027344 950.90625 L 1092.320312 937.199219 L 1090.210938 923.847656 C 1085.992188 895.382812 1074.398438 876.757812 1051.90625 863.40625 C 1041.714844 857.429688 1024.847656 852.863281 1012.902344 852.863281 C 979.519531 852.863281 948.945312 875.703125 939.105469 907.683594 C 935.242188 919.980469 934.890625 939.660156 938.050781 950.203125 L 940.160156 957.582031 L 890.261719 992.722656 L 840.359375 1027.511719 L 832.277344 1022.242188 C 787.296875 992.019531 726.855469 1015.214844 713.152344 1067.925781 C 698.742188 1123.09375 751.804688 1175.804688 806.625 1161.398438 C 848.089844 1150.855469 874.097656 1107.984375 863.90625 1068.625 L 861.796875 1060.191406 L 866.714844 1056.328125 C 878.3125 1047.894531 959.488281 991.667969 961.246094 990.964844 C 962.296875 990.613281 966.515625 992.722656 970.734375 995.183594 C 1000.601562 1015.914062 1042.066406 1010.996094 1068.421875 984.289062 L 1078.613281 973.746094 L 1118.324219 987.453125 L 1158.382812 1001.15625 L 1160.140625 1014.863281 C 1163.304688 1037.703125 1170.683594 1052.460938 1185.441406 1065.816406 C 1227.609375 1103.765625 1295.082031 1084.792969 1311.949219 1030.675781 C 1315.109375 1019.78125 1315.460938 1012.402344 1313.003906 984.992188 C 1312.652344 980.421875 1315.109375 978.667969 1361.847656 945.984375 L 1411.042969 911.898438 L 1418.777344 917.171875 C 1463.402344 947.390625 1523.847656 923.847656 1537.550781 871.488281 C 1551.605469 815.261719 1498.195312 762.199219 1442.671875 777.3125 Z M 1473.945312 815.613281 C 1488.003906 819.832031 1501.003906 837.753906 1501.003906 852.511719 C 1501.003906 872.542969 1482.378906 891.519531 1462 891.519531 C 1451.808594 891.519531 1443.375 887.652344 1435.292969 879.21875 C 1418.777344 862.703125 1418.777344 841.96875 1435.292969 825.804688 C 1446.535156 814.207031 1458.835938 811.046875 1473.945312 815.613281 Z M 1031.527344 896.4375 C 1040.664062 901.355469 1048.394531 911.898438 1050.5 922.441406 C 1054.367188 938.605469 1045.582031 956.527344 1030.472656 964.257812 C 1025.199219 967.070312 1020.632812 967.773438 1012.199219 968.125 C 1002.359375 968.125 999.898438 967.421875 992.871094 963.203125 C 965.460938 945.984375 969.328125 904.871094 999.898438 893.273438 C 1008.332031 890.464844 1022.742188 891.519531 1031.527344 896.4375 Z M 1257.480469 975.152344 C 1262.046875 977.964844 1266.96875 982.882812 1269.78125 987.453125 C 1273.996094 994.480469 1274.699219 996.941406 1274.699219 1007.832031 C 1274.699219 1018.726562 1274.347656 1021.1875 1269.78125 1028.214844 C 1263.101562 1039.109375 1252.910156 1045.082031 1239.558594 1046.136719 C 1230.773438 1046.839844 1228.3125 1046.136719 1220.582031 1042.269531 C 1188.605469 1025.753906 1192.46875 981.828125 1226.90625 970.234375 C 1234.988281 967.773438 1249.75 969.882812 1257.480469 975.152344 Z M 799.949219 1048.597656 C 808.734375 1051.054688 822.4375 1064.761719 824.898438 1073.546875 C 829.46875 1088.65625 826.304688 1100.957031 814.707031 1112.199219 C 798.191406 1128.71875 777.460938 1128.71875 761.292969 1112.199219 C 744.777344 1095.683594 744.777344 1074.953125 761.292969 1058.789062 C 772.539062 1047.542969 784.839844 1044.378906 799.949219 1048.597656 Z M 799.949219 1048.597656 " fill-opacity="1" fill-rule="nonzero"/><path fill="#fafafa" d="M 1399.449219 1010.292969 C 1392.773438 1013.105469 1386.09375 1021.539062 1385.039062 1027.863281 C 1384.6875 1030.675781 1384.335938 1128.71875 1384.6875 1245.734375 C 1385.039062 1457.632812 1385.039062 1458.335938 1388.554688 1462.554688 C 1390.3125 1465.011719 1393.824219 1468.527344 1396.285156 1470.285156 C 1400.503906 1473.445312 1402.609375 1473.796875 1462 1473.796875 C 1521.386719 1473.796875 1523.496094 1473.796875 1527.710938 1470.285156 C 1530.171875 1468.527344 1533.683594 1465.011719 1535.441406 1462.554688 C 1538.957031 1458.335938 1538.957031 1457.632812 1538.957031 1241.167969 C 1538.957031 1024.699219 1538.957031 1024.347656 1535.441406 1019.78125 C 1533.683594 1017.320312 1530.171875 1013.808594 1527.710938 1012.050781 C 1523.496094 1008.886719 1521.035156 1008.535156 1463.753906 1008.183594 C 1417.019531 1008.183594 1403.3125 1008.535156 1399.449219 1010.292969 Z M 1399.449219 1010.292969 " fill-opacity="1" fill-rule="nonzero"/><path fill="#fafafa" d="M 951.757812 1087.601562 C 949.648438 1088.65625 945.78125 1090.765625 944.027344 1092.875 C 935.242188 1101.308594 935.59375 1091.46875 935.59375 1280.875 L 935.59375 1456.578125 L 939.457031 1461.851562 C 941.566406 1464.660156 945.078125 1468.878906 947.539062 1470.636719 C 951.757812 1473.796875 954.214844 1474.148438 1011.144531 1474.5 C 1067.371094 1474.851562 1070.53125 1474.851562 1076.507812 1471.691406 C 1080.019531 1469.933594 1084.589844 1465.714844 1086.695312 1462.203125 L 1090.5625 1455.875 L 1090.5625 1104.46875 L 1086.695312 1098.144531 C 1084.589844 1094.628906 1080.371094 1090.765625 1076.507812 1089.007812 C 1070.53125 1085.84375 1067.019531 1085.84375 1013.253906 1085.84375 C 978.816406 1085.84375 954.214844 1086.546875 951.757812 1087.601562 Z M 951.757812 1087.601562 " fill-opacity="1" fill-rule="nonzero"/><path fill="#fafafa" d="M 1173.144531 1167.019531 C 1169.628906 1169.128906 1165.058594 1173.347656 1163.304688 1176.507812 C 1159.789062 1182.132812 1159.789062 1183.886719 1159.789062 1319.179688 C 1159.789062 1454.472656 1159.789062 1456.226562 1163.304688 1461.851562 C 1165.058594 1465.011719 1169.628906 1469.230469 1173.144531 1471.339844 C 1179.46875 1474.851562 1179.820312 1474.851562 1238.855469 1474.5 C 1296.136719 1474.148438 1298.59375 1473.796875 1302.8125 1470.636719 C 1305.269531 1468.878906 1309.136719 1464.660156 1311.246094 1461.851562 L 1314.757812 1456.578125 L 1314.757812 1182.480469 L 1311.246094 1177.210938 C 1309.136719 1174.398438 1305.269531 1170.183594 1302.8125 1168.425781 C 1298.59375 1165.261719 1296.136719 1164.910156 1238.855469 1164.558594 C 1179.46875 1163.507812 1179.117188 1163.507812 1173.144531 1167.019531 Z M 1173.144531 1167.019531 " fill-opacity="1" fill-rule="nonzero"/><path fill="#fafafa" d="M 725.800781 1243.277344 C 719.125 1246.085938 712.449219 1254.519531 711.394531 1260.847656 C 711.042969 1263.65625 710.691406 1308.988281 711.042969 1362.050781 C 711.394531 1455.875 711.394531 1457.984375 714.910156 1462.203125 C 716.664062 1464.660156 720.179688 1468.175781 722.640625 1469.933594 C 726.855469 1473.09375 728.964844 1473.445312 788.351562 1473.445312 C 847.742188 1473.445312 849.847656 1473.445312 854.066406 1469.933594 C 856.527344 1468.175781 860.039062 1464.660156 861.796875 1462.203125 C 865.3125 1457.984375 865.3125 1456.226562 865.3125 1357.484375 C 865.3125 1258.738281 865.3125 1257.332031 861.796875 1252.761719 C 860.039062 1250.304688 856.527344 1246.789062 854.066406 1245.03125 C 849.847656 1241.871094 847.390625 1241.519531 790.109375 1241.167969 C 743.019531 1241.167969 729.667969 1241.519531 725.800781 1243.277344 Z M 725.800781 1243.277344 " fill-opacity="1" fill-rule="nonzero"/><g clip-path="url(#157ccbfd22)"><path fill="#fafafa" d="M 1119.832031 2219.496094 C 1725.785156 2219.496094 2219.996094 1725.285156 2219.996094 1119.332031 C 2219.996094 513.378906 1725.785156 19.148438 1119.832031 19.148438 C 513.859375 19.148438 19.648438 513.378906 19.648438 1119.332031 C 19.648438 1725.285156 513.859375 2219.496094 1119.832031 2219.496094 " fill-opacity="1" fill-rule="evenodd"/></g><path fill="#212121" d="M 543.238281 517.660156 L 1721.480469 517.660156 L 1721.480469 1720.980469 L 518.160156 1720.980469 L 518.160156 517.660156 Z M 949.824219 1087.121094 C 943.019531 1080.316406 933.613281 1076.101562 923.226562 1076.101562 C 912.839844 1076.101562 903.449219 1080.316406 896.644531 1087.121094 C 889.84375 1093.921875 885.628906 1103.332031 885.628906 1113.71875 C 885.628906 1124.105469 889.84375 1133.496094 896.644531 1140.296875 C 903.449219 1147.101562 912.839844 1151.3125 923.226562 1151.3125 C 933.613281 1151.3125 943.019531 1147.101562 949.824219 1140.296875 C 956.625 1133.496094 960.839844 1124.105469 960.839844 1113.71875 C 960.839844 1103.332031 956.625 1093.921875 949.824219 1087.121094 Z M 1344.710938 1293.480469 C 1337.910156 1286.679688 1328.5 1282.464844 1318.113281 1282.464844 C 1307.726562 1282.464844 1298.335938 1286.679688 1291.535156 1293.480469 C 1284.730469 1300.285156 1280.515625 1309.691406 1280.515625 1320.078125 C 1280.515625 1330.464844 1284.714844 1339.855469 1291.535156 1346.660156 C 1298.335938 1353.460938 1307.726562 1357.675781 1318.113281 1357.675781 C 1328.5 1357.675781 1337.910156 1353.460938 1344.710938 1346.660156 C 1351.511719 1339.855469 1355.710938 1330.464844 1355.710938 1320.078125 C 1355.710938 1309.691406 1351.511719 1300.285156 1344.710938 1293.480469 Z M 1533.464844 567.8125 L 1508.386719 567.8125 L 1508.386719 718.21875 L 1332.90625 718.21875 L 1332.90625 567.8125 L 1307.832031 567.8125 L 1307.832031 718.21875 L 1132.351562 718.21875 L 1132.351562 567.8125 L 1107.292969 567.8125 L 1107.292969 718.21875 L 931.8125 718.21875 L 931.8125 567.8125 L 906.734375 567.8125 L 906.734375 718.21875 L 731.257812 718.21875 L 731.257812 567.8125 L 706.179688 567.8125 L 706.179688 718.21875 L 555.777344 718.21875 L 555.777344 743.292969 L 706.179688 743.292969 L 706.179688 918.773438 L 555.777344 918.773438 L 555.777344 943.851562 L 706.179688 943.851562 L 706.179688 1119.332031 L 555.777344 1119.332031 L 555.777344 1144.390625 L 706.179688 1144.390625 L 706.179688 1319.886719 L 555.777344 1319.886719 L 555.777344 1344.945312 L 706.179688 1344.945312 L 706.179688 1393.734375 L 625.441406 1520.425781 L 555.777344 1520.425781 L 555.777344 1545.5 L 609.476562 1545.5 L 522.183594 1682.492188 L 564.292969 1709.335938 L 668.6875 1545.5 L 706.179688 1545.5 L 706.179688 1695.921875 L 731.257812 1695.921875 L 731.257812 1545.5 L 906.734375 1545.5 L 906.734375 1695.921875 L 931.8125 1695.921875 L 931.8125 1545.5 L 1107.292969 1545.5 L 1107.292969 1695.921875 L 1132.351562 1695.921875 L 1132.351562 1545.5 L 1307.832031 1545.5 L 1307.832031 1695.921875 L 1332.90625 1695.921875 L 1332.90625 1545.5 L 1508.386719 1545.5 L 1508.386719 1695.921875 L 1533.464844 1695.921875 L 1533.464844 1545.5 L 1683.886719 1545.5 L 1683.886719 1520.425781 L 1533.464844 1520.425781 L 1533.464844 1344.945312 L 1683.886719 1344.945312 L 1683.886719 1319.886719 L 1533.464844 1319.886719 L 1533.464844 1144.390625 L 1683.886719 1144.390625 L 1683.886719 1119.332031 L 1547.171875 1119.332031 L 1702.386719 948.066406 L 1683.886719 931.3125 L 1683.886719 918.773438 L 1670.019531 918.773438 L 1665.367188 914.558594 L 1661.554688 918.773438 L 1533.464844 918.773438 L 1533.464844 743.292969 L 1683.886719 743.292969 L 1683.886719 718.21875 L 1533.464844 718.21875 Z M 1638.839844 943.851562 L 1533.464844 943.851562 L 1533.464844 1060.121094 Z M 684.652344 1520.425781 L 706.179688 1520.425781 L 706.179688 1486.660156 Z M 1508.386719 1520.425781 L 1508.386719 1344.945312 L 1402.277344 1344.945312 C 1398.082031 1359.179688 1390.367188 1371.894531 1380.15625 1382.121094 C 1367.582031 1394.695312 1351.214844 1403.457031 1332.90625 1406.570312 L 1332.90625 1520.425781 Z M 1405.863281 1319.886719 L 1508.386719 1319.886719 L 1508.386719 1162.121094 L 1398.0625 1283.863281 C 1403.046875 1294.847656 1405.828125 1307.035156 1405.863281 1319.886719 Z M 1457.082031 1144.390625 L 1332.90625 1144.390625 L 1332.90625 1233.570312 C 1344.570312 1235.546875 1355.449219 1239.832031 1365.066406 1245.933594 Z M 1307.832031 1232.925781 L 1307.832031 1144.390625 L 1132.351562 1144.390625 L 1132.351562 1197.53125 L 1250.421875 1264.242188 C 1252.222656 1262.074219 1254.09375 1260.011719 1256.070312 1258.035156 C 1269.675781 1244.429688 1287.722656 1235.269531 1307.832031 1232.925781 Z M 1132.351562 1254.835938 L 1132.351562 1319.886719 L 1230.363281 1319.886719 C 1230.382812 1316.722656 1230.558594 1313.589844 1230.890625 1310.515625 Z M 1233.949219 1344.945312 L 1132.351562 1344.945312 L 1132.351562 1520.425781 L 1307.832031 1520.425781 L 1307.832031 1407.214844 C 1287.722656 1404.871094 1269.675781 1395.710938 1256.070312 1382.121094 C 1245.859375 1371.894531 1238.144531 1359.179688 1233.949219 1344.945312 Z M 1508.386719 1087.785156 L 1508.386719 943.851562 L 1332.90625 943.851562 L 1332.90625 1119.332031 L 1479.796875 1119.332031 Z M 1307.832031 1119.332031 L 1307.832031 943.851562 L 1132.351562 943.851562 L 1132.351562 1119.332031 Z M 1508.386719 918.773438 L 1508.386719 743.292969 L 1332.90625 743.292969 L 1332.90625 918.773438 Z M 731.257812 1520.425781 L 906.734375 1520.425781 L 906.734375 1344.945312 L 796.480469 1344.945312 L 731.257812 1447.3125 Z M 737.269531 1344.945312 L 731.257812 1344.945312 L 731.257812 1354.386719 Z M 931.8125 1520.425781 L 1107.292969 1520.425781 L 1107.292969 1344.945312 L 931.8125 1344.945312 Z M 1307.832031 743.292969 L 1132.351562 743.292969 L 1132.351562 918.773438 L 1307.832031 918.773438 Z M 1107.292969 743.292969 L 931.8125 743.292969 L 931.8125 918.773438 L 1107.292969 918.773438 Z M 906.734375 743.292969 L 731.257812 743.292969 L 731.257812 918.773438 L 906.734375 918.773438 Z M 1107.292969 943.851562 L 931.8125 943.851562 L 931.8125 1026.386719 C 952.605469 1028.398438 971.28125 1037.683594 985.269531 1051.675781 C 1001.148438 1067.550781 1010.976562 1089.480469 1010.976562 1113.71875 C 1010.976562 1115.605469 1010.921875 1117.476562 1010.800781 1119.332031 L 1107.292969 1119.332031 Z M 906.734375 1027.523438 L 906.734375 943.851562 L 731.257812 943.851562 L 731.257812 1119.332031 L 835.667969 1119.332031 C 835.546875 1117.476562 835.496094 1115.605469 835.496094 1113.71875 C 835.496094 1089.480469 845.304688 1067.550781 861.183594 1051.675781 C 873.371094 1039.484375 889.125 1030.882812 906.734375 1027.523438 Z M 841.003906 1144.390625 L 731.257812 1144.390625 L 731.257812 1319.886719 L 753.238281 1319.886719 L 851.984375 1164.917969 C 847.472656 1158.660156 843.765625 1151.769531 841.003906 1144.390625 Z M 812.445312 1319.886719 L 906.734375 1319.886719 L 906.734375 1199.910156 C 901.523438 1198.914062 896.488281 1197.460938 891.644531 1195.589844 Z M 931.8125 1201.046875 L 931.8125 1319.886719 L 1107.292969 1319.886719 L 1107.292969 1240.671875 L 987.769531 1173.15625 C 986.949219 1174.03125 986.125 1174.902344 985.269531 1175.761719 C 971.28125 1189.734375 952.605469 1199.019531 931.8125 1201.046875 Z M 1107.292969 1183.367188 L 1107.292969 1144.390625 L 1038.324219 1144.390625 Z M 1107.292969 1183.367188 " fill-opacity="1" fill-rule="evenodd"/></svg>