<svg xmlns="http://www.w3.org/2000/svg" xmlns:xlink="http://www.w3.org/1999/xlink" width="3000" zoomAndPan="magnify" viewBox="0 0 2250 2250.000011" height="3000" preserveAspectRatio="xMidYMid meet" version="1.0"><defs><clipPath id="786d2b3821"><path d="M 344.53125 344.03125 L 1883.316406 344.03125 L 1883.316406 1882.816406 L 344.53125 1882.816406 Z M 344.53125 344.03125 " clip-rule="nonzero"/></clipPath><clipPath id="d51aacea9a"><path d="M 1113.921875 344.03125 C 689 344.03125 344.53125 688.5 344.53125 1113.421875 C 344.53125 1538.347656 689 1882.816406 1113.921875 1882.816406 C 1538.84375 1882.816406 1883.316406 1538.347656 1883.316406 1113.421875 C 1883.316406 688.5 1538.84375 344.03125 1113.921875 344.03125 Z M 1113.921875 344.03125 " clip-rule="nonzero"/></clipPath><clipPath id="54015ae48b"><path d="M 26.925781 407.867188 L 66.660156 407.867188 L 66.660156 447.597656 L 26.925781 447.597656 Z M 26.925781 407.867188 " clip-rule="nonzero"/></clipPath><clipPath id="21e0baca3f"><path d="M 26.925781 27.078125 L 2222.699219 27.078125 L 2222.699219 2222.855469 L 26.925781 2222.855469 Z M 26.925781 27.078125 " clip-rule="nonzero"/></clipPath></defs><g clip-path="url(#786d2b3821)"><g clip-path="url(#d51aacea9a)"><path fill="#000000" d="M 344.53125 344.03125 L 1883.3125 344.03125 L 1883.3125 1882.816406 L 344.53125 1882.816406 Z M 344.53125 344.03125 " fill-opacity="1" fill-rule="nonzero"/></g></g><g clip-path="url(#54015ae48b)"><path fill="#ffffff" d="M 46.914062 447.84375 C 57.953125 447.84375 66.902344 438.894531 66.902344 427.855469 C 66.902344 416.816406 57.953125 407.867188 46.914062 407.867188 C 35.875 407.867188 26.925781 416.816406 26.925781 427.855469 C 26.925781 438.894531 35.875 447.84375 46.914062 447.84375 Z M 50.113281 428.921875 L 39.894531 428.921875 L 41.804688 430.832031 L 40.296875 432.339844 L 36.566406 428.609375 C 36.148438 428.191406 36.148438 427.519531 36.566406 427.101562 L 40.296875 423.371094 L 41.804688 424.878906 L 39.894531 426.789062 L 50.113281 426.789062 Z M 43.71875 418.261719 C 43.128906 418.261719 42.652344 418.738281 42.652344 419.328125 L 42.652344 422.523438 L 44.78125 422.523438 L 44.78125 420.394531 L 55.445312 420.394531 L 55.445312 435.320312 L 44.78125 435.320312 L 44.78125 433.1875 L 42.652344 433.1875 L 42.652344 436.382812 C 42.652344 436.972656 43.128906 437.449219 43.71875 437.449219 L 56.511719 437.449219 C 57.097656 437.449219 57.574219 436.972656 57.574219 436.382812 L 57.574219 419.328125 C 57.574219 418.738281 57.097656 418.261719 56.511719 418.261719 Z M 43.71875 418.261719 " fill-opacity="1" fill-rule="evenodd"/></g><g clip-path="url(#21e0baca3f)"><path fill="#ffffff" d="M 1124.671875 2222.574219 C 1730.941406 2222.574219 2222.417969 1731.097656 2222.417969 1124.824219 C 2222.417969 518.558594 1730.941406 27.078125 1124.671875 27.078125 C 518.402344 27.078125 26.925781 518.558594 26.925781 1124.824219 C 26.925781 1731.097656 518.402344 2222.574219 1124.671875 2222.574219 Z M 592.414062 1124.824219 C 592.414062 801.480469 854.53125 539.363281 1177.875 539.363281 C 1242.484375 539.363281 1304.738281 549.84375 1362.992188 569.246094 C 1382.117188 575.613281 1396 592.234375 1398.859375 612.1875 C 1401.722656 632.136719 1393.0625 651.992188 1376.503906 663.476562 C 1272.449219 735.636719 1204.484375 855.769531 1204.484375 991.765625 C 1204.484375 1212.222656 1383.242188 1390.949219 1603.707031 1390.949219 C 1623.875 1390.949219 1642.3125 1402.34375 1651.320312 1420.382812 C 1660.335938 1438.421875 1658.375 1460.011719 1646.261719 1476.132812 C 1539.539062 1618.21875 1369.457031 1710.289062 1177.875 1710.289062 C 854.53125 1710.289062 592.414062 1448.171875 592.414062 1124.824219 Z M 592.414062 1124.824219 " fill-opacity="1" fill-rule="evenodd"/></g></svg>