<svg xmlns="http://www.w3.org/2000/svg" xmlns:xlink="http://www.w3.org/1999/xlink" width="3000" zoomAndPan="magnify" viewBox="0 0 2250 2250.000011" height="3000" preserveAspectRatio="xMidYMid meet" version="1.0"><defs><clipPath id="47125a4b09"><path d="M 390.328125 389.828125 L 1912.148438 389.828125 L 1912.148438 1911.652344 L 390.328125 1911.652344 Z M 390.328125 389.828125 " clip-rule="nonzero"/></clipPath><clipPath id="5224bc5bb8"><path d="M 1151.238281 389.828125 C 731 389.828125 390.328125 730.5 390.328125 1150.738281 C 390.328125 1570.980469 731 1911.652344 1151.238281 1911.652344 C 1571.476562 1911.652344 1912.148438 1570.980469 1912.148438 1150.738281 C 1912.148438 730.5 1571.476562 389.828125 1151.238281 389.828125 Z M 1151.238281 389.828125 " clip-rule="nonzero"/></clipPath><clipPath id="dcf2410b38"><path d="M 45 102.472656 L 2194 102.472656 L 2194 2246 L 45 2246 Z M 45 102.472656 " clip-rule="nonzero"/></clipPath></defs><g clip-path="url(#47125a4b09)"><g clip-path="url(#5224bc5bb8)"><path fill="#000000" d="M 390.328125 389.828125 L 1912.148438 389.828125 L 1912.148438 1911.648438 L 390.328125 1911.648438 Z M 390.328125 389.828125 " fill-opacity="1" fill-rule="nonzero"/></g></g><g clip-path="url(#dcf2410b38)"><path fill="#ffffff" d="M 1119.4375 102.472656 C 1101.863281 102.496094 1084.304688 102.949219 1066.753906 103.832031 C 1049.203125 104.71875 1031.683594 106.03125 1014.199219 107.773438 C 996.714844 109.519531 979.28125 111.6875 961.902344 114.285156 C 944.523438 116.882812 927.21875 119.90625 909.988281 123.351562 C 892.753906 126.796875 875.621094 130.660156 858.578125 134.945312 C 841.535156 139.234375 824.609375 143.933594 807.796875 149.046875 C 790.988281 154.164062 774.3125 159.6875 757.769531 165.621094 C 741.230469 171.550781 724.84375 177.886719 708.613281 184.621094 C 692.382812 191.359375 676.328125 198.488281 660.449219 206.007812 C 644.566406 213.53125 628.878906 221.4375 613.386719 229.730469 C 597.894531 238.019531 582.613281 246.6875 567.542969 255.726562 C 552.476562 264.769531 537.636719 274.171875 523.03125 283.941406 C 508.421875 293.707031 494.0625 303.828125 479.953125 314.296875 C 465.839844 324.769531 451.992188 335.578125 438.410156 346.730469 C 424.832031 357.878906 411.53125 369.355469 398.511719 381.15625 C 385.492188 392.960938 372.769531 405.074219 360.34375 417.5 C 347.917969 429.925781 335.804688 442.648438 324.003906 455.667969 C 312.199219 468.683594 300.722656 481.984375 289.574219 495.566406 C 278.425781 509.148438 267.613281 522.996094 257.140625 537.105469 C 246.671875 551.21875 236.550781 565.578125 226.785156 580.1875 C 217.015625 594.792969 207.613281 609.632812 198.570312 624.699219 C 189.53125 639.769531 180.867188 655.050781 172.574219 670.542969 C 164.285156 686.035156 156.375 701.722656 148.855469 717.601562 C 141.332031 733.484375 134.203125 749.539062 127.464844 765.769531 C 120.730469 782 114.398438 798.386719 108.464844 814.925781 C 102.53125 831.464844 97.007812 848.140625 91.894531 864.953125 C 86.777344 881.765625 82.078125 898.691406 77.792969 915.734375 C 73.507812 932.773438 69.640625 949.910156 66.195312 967.140625 C 62.75 984.375 59.726562 1001.679688 57.128906 1019.058594 C 54.53125 1036.4375 52.363281 1053.871094 50.621094 1071.355469 C 48.875 1088.839844 47.5625 1106.359375 46.679688 1123.910156 C 45.792969 1141.457031 45.339844 1159.019531 45.316406 1176.59375 C 104.589844 2601.511719 2134.5 2601.097656 2193.558594 1176.582031 C 2193.535156 1159.011719 2193.082031 1141.449219 2192.195312 1123.898438 C 2191.3125 1106.351562 2190 1088.832031 2188.253906 1071.347656 C 2186.511719 1053.859375 2184.339844 1036.429688 2181.742188 1019.050781 C 2179.144531 1001.671875 2176.125 984.367188 2172.679688 967.132812 C 2169.234375 949.902344 2165.367188 932.765625 2161.082031 915.726562 C 2156.796875 898.683594 2152.09375 881.757812 2146.980469 864.945312 C 2141.863281 848.136719 2136.339844 831.460938 2130.410156 814.917969 C 2124.476562 798.378906 2118.140625 781.992188 2111.40625 765.761719 C 2104.671875 749.53125 2097.542969 733.476562 2090.019531 717.597656 C 2082.496094 701.714844 2074.589844 686.03125 2066.296875 670.535156 C 2058.007812 655.042969 2049.339844 639.761719 2040.300781 624.695312 C 2031.257812 609.625 2021.855469 594.789062 2012.085938 580.179688 C 2002.320312 565.574219 1992.199219 551.214844 1981.730469 537.101562 C 1971.257812 522.992188 1960.445312 509.144531 1949.296875 495.5625 C 1938.148438 481.980469 1926.671875 468.679688 1914.867188 455.664062 C 1903.066406 442.644531 1890.953125 429.921875 1878.527344 417.496094 C 1866.101562 405.070312 1853.378906 392.957031 1840.359375 381.15625 C 1827.339844 369.351562 1814.039062 357.878906 1800.460938 346.726562 C 1786.878906 335.578125 1773.03125 324.765625 1758.917969 314.296875 C 1744.808594 303.824219 1730.449219 293.703125 1715.839844 283.9375 C 1701.234375 274.167969 1686.394531 264.765625 1671.328125 255.726562 C 1656.257812 246.683594 1640.976562 238.019531 1625.484375 229.726562 C 1609.992188 221.4375 1594.304688 213.53125 1578.421875 206.007812 C 1562.542969 198.484375 1546.488281 191.355469 1530.257812 184.621094 C 1514.027344 177.886719 1497.640625 171.550781 1481.101562 165.617188 C 1464.5625 159.6875 1447.886719 154.164062 1431.074219 149.046875 C 1414.261719 143.933594 1397.335938 139.230469 1380.292969 134.945312 C 1363.253906 130.660156 1346.117188 126.796875 1328.886719 123.351562 C 1311.65625 119.90625 1294.347656 116.882812 1276.96875 114.285156 C 1259.589844 111.6875 1242.160156 109.519531 1224.671875 107.773438 C 1207.1875 106.03125 1189.667969 104.71875 1172.121094 103.832031 C 1154.570312 102.949219 1137.007812 102.496094 1119.4375 102.472656 Z M 1731.875 1077.847656 C 1730.847656 1079.390625 1729.75 1080.878906 1728.582031 1082.316406 C 1727.410156 1083.75 1726.171875 1085.125 1724.867188 1086.4375 C 1723.558594 1087.75 1722.191406 1088.996094 1720.765625 1090.175781 C 1719.335938 1091.351562 1717.851562 1092.460938 1716.316406 1093.492188 C 1714.777344 1094.527344 1713.195312 1095.480469 1711.5625 1096.359375 C 1709.933594 1097.238281 1708.261719 1098.03125 1706.554688 1098.746094 C 1704.84375 1099.460938 1703.105469 1100.085938 1701.335938 1100.628906 C 1699.5625 1101.171875 1697.769531 1101.628906 1695.957031 1101.996094 C 1694.140625 1102.359375 1692.3125 1102.636719 1690.46875 1102.824219 C 1688.625 1103.011719 1686.777344 1103.109375 1684.925781 1103.113281 C 1683.074219 1103.117188 1681.226562 1103.03125 1679.382812 1102.855469 C 1677.539062 1102.679688 1675.710938 1102.414062 1673.890625 1102.058594 C 1672.074219 1101.703125 1670.277344 1101.257812 1668.503906 1100.726562 C 1666.730469 1100.195312 1664.988281 1099.578125 1663.273438 1098.875 C 1661.5625 1098.167969 1659.886719 1097.382812 1658.25 1096.515625 C 1656.613281 1095.648438 1655.023438 1094.703125 1653.480469 1093.675781 L 1609.386719 1064.28125 L 1609.386719 1508.25 C 1609.378906 1511.640625 1609.292969 1515.03125 1609.121094 1518.417969 C 1608.949219 1521.804688 1608.691406 1525.183594 1608.355469 1528.558594 C 1608.019531 1531.929688 1607.597656 1535.292969 1607.097656 1538.648438 C 1606.59375 1542 1606.007812 1545.339844 1605.34375 1548.664062 C 1604.675781 1551.988281 1603.929688 1555.296875 1603.101562 1558.585938 C 1602.273438 1561.871094 1601.367188 1565.136719 1600.378906 1568.382812 C 1599.390625 1571.625 1598.324219 1574.84375 1597.179688 1578.035156 C 1596.035156 1581.226562 1594.8125 1584.386719 1593.511719 1587.519531 C 1592.210938 1590.652344 1590.832031 1593.75 1589.382812 1596.8125 C 1587.929688 1599.875 1586.402344 1602.902344 1584.804688 1605.890625 C 1583.203125 1608.882812 1581.53125 1611.832031 1579.785156 1614.738281 C 1578.039062 1617.644531 1576.226562 1620.507812 1574.339844 1623.328125 C 1572.457031 1626.144531 1570.503906 1628.914062 1568.480469 1631.636719 C 1566.460938 1634.359375 1564.375 1637.03125 1562.222656 1639.652344 C 1560.070312 1642.273438 1557.855469 1644.839844 1555.578125 1647.351562 C 1553.300781 1649.863281 1550.964844 1652.320312 1548.566406 1654.71875 C 1546.167969 1657.113281 1543.714844 1659.453125 1541.203125 1661.730469 C 1538.691406 1664.007812 1536.125 1666.222656 1533.503906 1668.375 C 1530.882812 1670.523438 1528.210938 1672.609375 1525.488281 1674.632812 C 1522.765625 1676.652344 1519.996094 1678.605469 1517.175781 1680.492188 C 1514.359375 1682.375 1511.496094 1684.191406 1508.585938 1685.933594 C 1505.679688 1687.679688 1502.730469 1689.351562 1499.742188 1690.953125 C 1496.753906 1692.554688 1493.726562 1694.078125 1490.660156 1695.53125 C 1487.597656 1696.984375 1484.5 1698.359375 1481.367188 1699.660156 C 1478.238281 1700.960938 1475.074219 1702.183594 1471.882812 1703.328125 C 1468.691406 1704.476562 1465.476562 1705.542969 1462.230469 1706.527344 C 1458.988281 1707.515625 1455.722656 1708.425781 1452.433594 1709.253906 C 1449.144531 1710.082031 1445.839844 1710.828125 1442.515625 1711.492188 C 1439.191406 1712.160156 1435.851562 1712.742188 1432.496094 1713.246094 C 1429.144531 1713.75 1425.78125 1714.167969 1422.40625 1714.503906 C 1419.03125 1714.84375 1415.652344 1715.097656 1412.265625 1715.269531 C 1408.878906 1715.441406 1405.492188 1715.53125 1402.101562 1715.535156 C 1239.210938 1715.507812 999.660156 1715.558594 836.773438 1715.535156 C 833.382812 1715.53125 829.992188 1715.441406 826.609375 1715.269531 C 823.222656 1715.097656 819.839844 1714.84375 816.46875 1714.503906 C 813.09375 1714.167969 809.730469 1713.75 806.375 1713.246094 C 803.023438 1712.742188 799.683594 1712.160156 796.359375 1711.492188 C 793.035156 1710.828125 789.726562 1710.082031 786.441406 1709.253906 C 783.152344 1708.425781 779.886719 1707.515625 776.640625 1706.527344 C 773.398438 1705.542969 770.179688 1704.476562 766.988281 1703.328125 C 763.796875 1702.183594 760.636719 1700.960938 757.503906 1699.660156 C 754.375 1698.359375 751.277344 1696.984375 748.210938 1695.53125 C 745.148438 1694.078125 742.121094 1692.554688 739.132812 1690.953125 C 736.140625 1689.351562 733.195312 1687.679688 730.285156 1685.933594 C 727.378906 1684.191406 724.515625 1682.375 721.699219 1680.492188 C 718.878906 1678.605469 716.109375 1676.652344 713.386719 1674.632812 C 710.664062 1672.609375 707.992188 1670.523438 705.371094 1668.375 C 702.75 1666.222656 700.183594 1664.007812 697.671875 1661.730469 C 695.160156 1659.453125 692.703125 1657.113281 690.304688 1654.71875 C 687.910156 1652.320312 685.570312 1649.863281 683.292969 1647.351562 C 681.015625 1644.839844 678.800781 1642.273438 676.652344 1639.652344 C 674.5 1637.03125 672.414062 1634.359375 670.390625 1631.636719 C 668.371094 1628.914062 666.417969 1626.144531 664.53125 1623.328125 C 662.648438 1620.507812 660.832031 1617.644531 659.089844 1614.738281 C 657.34375 1611.832031 655.671875 1608.882812 654.070312 1605.890625 C 652.46875 1602.902344 650.945312 1599.875 649.492188 1596.8125 C 648.039062 1593.75 646.664062 1590.652344 645.363281 1587.519531 C 644.0625 1584.386719 642.839844 1581.226562 641.695312 1578.035156 C 640.550781 1574.84375 639.480469 1571.625 638.496094 1568.382812 C 637.507812 1565.136719 636.597656 1561.871094 635.769531 1558.585938 C 634.941406 1555.296875 634.195312 1551.988281 633.53125 1548.664062 C 632.863281 1545.339844 632.28125 1542 631.777344 1538.648438 C 631.277344 1535.292969 630.855469 1531.929688 630.519531 1528.558594 C 630.179688 1525.183594 629.925781 1521.804688 629.753906 1518.417969 C 629.582031 1515.03125 629.492188 1511.640625 629.488281 1508.25 L 629.488281 1064.28125 L 585.390625 1093.675781 C 583.847656 1094.667969 582.261719 1095.585938 580.628906 1096.421875 C 578.996094 1097.257812 577.324219 1098.015625 575.621094 1098.691406 C 573.914062 1099.363281 572.179688 1099.953125 570.414062 1100.460938 C 568.652344 1100.96875 566.867188 1101.386719 565.0625 1101.71875 C 563.257812 1102.050781 561.445312 1102.296875 559.617188 1102.449219 C 557.789062 1102.605469 555.957031 1102.671875 554.121094 1102.652344 C 552.289062 1102.628906 550.457031 1102.515625 548.632812 1102.316406 C 546.8125 1102.117188 545 1101.828125 543.207031 1101.449219 C 541.410156 1101.074219 539.636719 1100.609375 537.886719 1100.0625 C 536.136719 1099.511719 534.417969 1098.878906 532.726562 1098.164062 C 531.039062 1097.445312 529.386719 1096.648438 527.777344 1095.773438 C 526.164062 1094.894531 524.601562 1093.941406 523.082031 1092.914062 C 521.5625 1091.882812 520.097656 1090.785156 518.6875 1089.609375 C 517.273438 1088.4375 515.921875 1087.203125 514.632812 1085.898438 C 513.339844 1084.59375 512.117188 1083.230469 510.957031 1081.808594 C 509.800781 1080.386719 508.714844 1078.910156 507.699219 1077.382812 C 506.683594 1075.855469 505.746094 1074.28125 504.882812 1072.660156 C 504.023438 1071.039062 503.242188 1069.382812 502.539062 1067.6875 C 501.839844 1065.992188 501.222656 1064.265625 500.691406 1062.511719 C 500.160156 1060.753906 499.714844 1058.976562 499.355469 1057.179688 C 498.996094 1055.378906 498.722656 1053.566406 498.539062 1051.742188 C 498.355469 1049.914062 498.261719 1048.085938 498.257812 1046.25 C 498.253906 1044.417969 498.335938 1042.585938 498.511719 1040.757812 C 498.683594 1038.933594 498.945312 1037.117188 499.292969 1035.316406 C 499.644531 1033.515625 500.082031 1031.738281 500.601562 1029.980469 C 501.125 1028.21875 501.734375 1026.492188 502.425781 1024.792969 C 503.117188 1023.09375 503.886719 1021.429688 504.742188 1019.804688 C 505.59375 1018.179688 506.523438 1016.601562 507.53125 1015.070312 C 508.535156 1013.535156 509.613281 1012.054688 510.765625 1010.625 C 511.917969 1009.195312 513.132812 1007.824219 514.417969 1006.515625 C 515.703125 1005.203125 517.046875 1003.960938 518.449219 1002.78125 C 519.855469 1001.601562 521.316406 1000.492188 522.828125 999.453125 L 1021.824219 666.667969 C 1029.054688 661.910156 1036.59375 657.707031 1044.445312 654.058594 C 1052.292969 650.410156 1060.371094 647.359375 1068.667969 644.898438 C 1076.96875 642.441406 1085.402344 640.605469 1093.972656 639.390625 C 1102.542969 638.175781 1111.15625 637.59375 1119.8125 637.648438 C 1128.417969 637.503906 1136.984375 638.019531 1145.511719 639.191406 C 1154.039062 640.367188 1162.425781 642.183594 1170.671875 644.644531 C 1178.921875 647.105469 1186.933594 650.183594 1194.707031 653.875 C 1202.480469 657.566406 1209.929688 661.832031 1217.050781 666.667969 L 1716.046875 999.457031 C 1717.589844 1000.480469 1719.078125 1001.578125 1720.515625 1002.746094 C 1721.949219 1003.917969 1723.324219 1005.15625 1724.640625 1006.460938 C 1725.953125 1007.765625 1727.199219 1009.132812 1728.378906 1010.5625 C 1729.558594 1011.988281 1730.667969 1013.472656 1731.699219 1015.007812 C 1732.734375 1016.546875 1733.691406 1018.128906 1734.570312 1019.761719 C 1735.445312 1021.390625 1736.242188 1023.0625 1736.957031 1024.769531 C 1737.671875 1026.480469 1738.300781 1028.21875 1738.84375 1029.992188 C 1739.386719 1031.761719 1739.839844 1033.554688 1740.207031 1035.371094 C 1740.574219 1037.1875 1740.851562 1039.015625 1741.035156 1040.859375 C 1741.222656 1042.703125 1741.320312 1044.550781 1741.324219 1046.402344 C 1741.328125 1048.253906 1741.246094 1050.101562 1741.066406 1051.945312 C 1740.890625 1053.789062 1740.625 1055.621094 1740.269531 1057.4375 C 1739.910156 1059.257812 1739.464844 1061.054688 1738.933594 1062.828125 C 1738.398438 1064.601562 1737.78125 1066.34375 1737.078125 1068.058594 C 1736.371094 1069.769531 1735.585938 1071.445312 1734.714844 1073.082031 C 1733.847656 1074.714844 1732.898438 1076.304688 1731.875 1077.847656 Z M 1731.875 1077.847656 " fill-opacity="1" fill-rule="nonzero"/></g><path fill="#ffffff" d="M 1048.582031 1447.949219 L 1048.582031 1602.472656 L 1190.292969 1602.472656 L 1190.292969 1447.949219 C 1190.273438 1446.800781 1190.230469 1445.652344 1190.15625 1444.507812 C 1190.082031 1443.359375 1189.980469 1442.214844 1189.855469 1441.074219 C 1189.726562 1439.933594 1189.570312 1438.796875 1189.386719 1437.664062 C 1189.199219 1436.527344 1188.988281 1435.398438 1188.75 1434.277344 C 1188.511719 1433.152344 1188.246094 1432.035156 1187.953125 1430.925781 C 1187.660156 1429.8125 1187.339844 1428.710938 1186.992188 1427.617188 C 1186.648438 1426.519531 1186.273438 1425.433594 1185.875 1424.359375 C 1185.472656 1423.28125 1185.046875 1422.214844 1184.597656 1421.160156 C 1184.144531 1420.101562 1183.667969 1419.058594 1183.167969 1418.023438 C 1182.664062 1416.992188 1182.136719 1415.972656 1181.585938 1414.964844 C 1181.035156 1413.957031 1180.457031 1412.960938 1179.855469 1411.984375 C 1179.257812 1411.003906 1178.632812 1410.039062 1177.988281 1409.089844 C 1177.339844 1408.140625 1176.667969 1407.207031 1175.976562 1406.292969 C 1175.285156 1405.375 1174.570312 1404.476562 1173.835938 1403.59375 C 1173.097656 1402.710938 1172.339844 1401.847656 1171.5625 1401.003906 C 1170.785156 1400.160156 1169.988281 1399.332031 1169.167969 1398.527344 C 1168.351562 1397.722656 1167.511719 1396.9375 1166.65625 1396.171875 C 1165.800781 1395.40625 1164.925781 1394.660156 1164.03125 1393.9375 C 1163.140625 1393.214844 1162.230469 1392.515625 1161.304688 1391.835938 C 1160.375 1391.15625 1159.433594 1390.5 1158.476562 1389.867188 C 1157.515625 1389.234375 1156.542969 1388.625 1155.554688 1388.039062 C 1154.566406 1387.457031 1153.566406 1386.894531 1152.550781 1386.359375 C 1151.535156 1385.820312 1150.503906 1385.308594 1149.464844 1384.820312 C 1148.425781 1384.335938 1147.375 1383.875 1146.308594 1383.4375 C 1145.246094 1383.003906 1144.175781 1382.59375 1143.089844 1382.210938 C 1142.007812 1381.828125 1140.917969 1381.46875 1139.816406 1381.140625 C 1138.71875 1380.808594 1137.609375 1380.503906 1136.496094 1380.230469 C 1135.378906 1379.953125 1134.257812 1379.703125 1133.132812 1379.480469 C 1132.003906 1379.257812 1130.871094 1379.066406 1129.734375 1378.898438 C 1128.601562 1378.730469 1127.460938 1378.59375 1126.316406 1378.480469 C 1125.171875 1378.367188 1124.027344 1378.285156 1122.882812 1378.230469 C 1121.734375 1378.171875 1120.585938 1378.144531 1119.4375 1378.144531 C 1118.289062 1378.144531 1117.140625 1378.171875 1115.992188 1378.230469 C 1114.847656 1378.285156 1113.699219 1378.367188 1112.558594 1378.480469 C 1111.414062 1378.59375 1110.273438 1378.730469 1109.136719 1378.898438 C 1108 1379.066406 1106.871094 1379.257812 1105.742188 1379.480469 C 1104.613281 1379.703125 1103.496094 1379.953125 1102.378906 1380.230469 C 1101.265625 1380.503906 1100.15625 1380.808594 1099.058594 1381.140625 C 1097.957031 1381.46875 1096.863281 1381.828125 1095.78125 1382.210938 C 1094.699219 1382.59375 1093.625 1383.003906 1092.5625 1383.4375 C 1091.5 1383.875 1090.449219 1384.335938 1089.410156 1384.820312 C 1088.367188 1385.308594 1087.339844 1385.820312 1086.324219 1386.359375 C 1085.308594 1386.894531 1084.308594 1387.457031 1083.320312 1388.039062 C 1082.332031 1388.625 1081.359375 1389.234375 1080.398438 1389.867188 C 1079.441406 1390.5 1078.496094 1391.15625 1077.570312 1391.835938 C 1076.644531 1392.515625 1075.734375 1393.214844 1074.839844 1393.9375 C 1073.949219 1394.660156 1073.074219 1395.40625 1072.21875 1396.171875 C 1071.359375 1396.9375 1070.523438 1397.722656 1069.707031 1398.527344 C 1068.886719 1399.332031 1068.089844 1400.160156 1067.3125 1401.003906 C 1066.53125 1401.847656 1065.777344 1402.710938 1065.039062 1403.59375 C 1064.304688 1404.476562 1063.589844 1405.375 1062.898438 1406.292969 C 1062.203125 1407.207031 1061.535156 1408.140625 1060.886719 1409.089844 C 1060.238281 1410.039062 1059.617188 1411.003906 1059.015625 1411.984375 C 1058.417969 1412.964844 1057.839844 1413.957031 1057.289062 1414.964844 C 1056.738281 1415.972656 1056.210938 1416.992188 1055.707031 1418.023438 C 1055.207031 1419.058594 1054.726562 1420.101562 1054.277344 1421.160156 C 1053.824219 1422.214844 1053.398438 1423.28125 1053 1424.359375 C 1052.601562 1425.433594 1052.226562 1426.519531 1051.878906 1427.617188 C 1051.535156 1428.710938 1051.214844 1429.8125 1050.921875 1430.925781 C 1050.628906 1432.035156 1050.363281 1433.152344 1050.121094 1434.277344 C 1049.882812 1435.398438 1049.671875 1436.527344 1049.488281 1437.664062 C 1049.304688 1438.796875 1049.148438 1439.933594 1049.019531 1441.074219 C 1048.890625 1442.214844 1048.789062 1443.359375 1048.71875 1444.507812 C 1048.644531 1445.652344 1048.601562 1446.800781 1048.582031 1447.949219 Z M 1048.582031 1447.949219 " fill-opacity="1" fill-rule="nonzero"/><path fill="#ffffff" d="M 1084.761719 760.886719 L 742.550781 988.902344 L 742.550781 1508.25 C 742.550781 1509.792969 742.589844 1511.332031 742.667969 1512.875 C 742.742188 1514.414062 742.855469 1515.949219 743.007812 1517.484375 C 743.160156 1519.019531 743.351562 1520.550781 743.578125 1522.074219 C 743.804688 1523.597656 744.066406 1525.117188 744.367188 1526.628906 C 744.667969 1528.140625 745.007812 1529.644531 745.382812 1531.140625 C 745.757812 1532.636719 746.167969 1534.121094 746.617188 1535.597656 C 747.066406 1537.074219 747.546875 1538.535156 748.070312 1539.988281 C 748.589844 1541.441406 749.144531 1542.878906 749.734375 1544.300781 C 750.324219 1545.726562 750.949219 1547.136719 751.609375 1548.53125 C 752.265625 1549.921875 752.960938 1551.300781 753.6875 1552.660156 C 754.414062 1554.019531 755.175781 1555.359375 755.96875 1556.683594 C 756.761719 1558.003906 757.585938 1559.308594 758.441406 1560.589844 C 759.296875 1561.871094 760.1875 1563.132812 761.105469 1564.371094 C 762.023438 1565.609375 762.972656 1566.824219 763.949219 1568.015625 C 764.929688 1569.207031 765.933594 1570.375 766.96875 1571.515625 C 768.003906 1572.660156 769.070312 1573.773438 770.160156 1574.863281 C 771.25 1575.957031 772.367188 1577.019531 773.507812 1578.054688 C 774.648438 1579.089844 775.816406 1580.097656 777.007812 1581.074219 C 778.199219 1582.050781 779.417969 1583 780.65625 1583.917969 C 781.894531 1584.835938 783.152344 1585.726562 784.433594 1586.582031 C 785.714844 1587.4375 787.019531 1588.265625 788.339844 1589.058594 C 789.664062 1589.847656 791.003906 1590.609375 792.363281 1591.335938 C 793.722656 1592.0625 795.101562 1592.757812 796.496094 1593.417969 C 797.886719 1594.074219 799.296875 1594.699219 800.722656 1595.289062 C 802.144531 1595.878906 803.585938 1596.4375 805.035156 1596.957031 C 806.488281 1597.476562 807.949219 1597.960938 809.425781 1598.40625 C 810.902344 1598.855469 812.386719 1599.265625 813.882812 1599.640625 C 815.378906 1600.015625 816.882812 1600.355469 818.394531 1600.65625 C 819.90625 1600.957031 821.425781 1601.222656 822.949219 1601.449219 C 824.476562 1601.675781 826.003906 1601.863281 827.539062 1602.015625 C 829.074219 1602.167969 830.609375 1602.28125 832.152344 1602.355469 C 833.691406 1602.433594 835.230469 1602.472656 836.773438 1602.472656 L 935.515625 1602.472656 L 935.515625 1447.949219 C 935.519531 1444.941406 935.59375 1441.933594 935.746094 1438.929688 C 935.894531 1435.925781 936.117188 1432.925781 936.414062 1429.929688 C 936.710938 1426.9375 937.082031 1423.953125 937.523438 1420.976562 C 937.96875 1418 938.484375 1415.035156 939.074219 1412.085938 C 939.660156 1409.136719 940.320312 1406.203125 941.054688 1403.285156 C 941.789062 1400.367188 942.589844 1397.46875 943.464844 1394.589844 C 944.339844 1391.710938 945.285156 1388.855469 946.300781 1386.023438 C 947.316406 1383.191406 948.402344 1380.382812 949.554688 1377.605469 C 950.707031 1374.828125 951.925781 1372.078125 953.214844 1369.359375 C 954.503906 1366.640625 955.855469 1363.953125 957.273438 1361.300781 C 958.695312 1358.648438 960.179688 1356.03125 961.726562 1353.449219 C 963.273438 1350.871094 964.882812 1348.332031 966.558594 1345.828125 C 968.230469 1343.328125 969.960938 1340.871094 971.757812 1338.453125 C 973.550781 1336.039062 975.402344 1333.667969 977.308594 1331.34375 C 979.21875 1329.019531 981.183594 1326.742188 983.207031 1324.511719 C 985.226562 1322.285156 987.300781 1320.105469 989.429688 1317.980469 C 991.558594 1315.851562 993.738281 1313.78125 995.96875 1311.761719 C 998.199219 1309.742188 1000.476562 1307.777344 1002.800781 1305.867188 C 1005.128906 1303.960938 1007.5 1302.109375 1009.917969 1300.320312 C 1012.335938 1298.527344 1014.792969 1296.796875 1017.296875 1295.125 C 1019.796875 1293.457031 1022.339844 1291.847656 1024.921875 1290.300781 C 1027.5 1288.753906 1030.117188 1287.273438 1032.773438 1285.855469 C 1035.425781 1284.4375 1038.113281 1283.085938 1040.832031 1281.800781 C 1043.554688 1280.511719 1046.304688 1279.296875 1049.082031 1278.144531 C 1051.863281 1276.992188 1054.667969 1275.910156 1057.503906 1274.898438 C 1060.335938 1273.886719 1063.191406 1272.941406 1066.070312 1272.070312 C 1068.949219 1271.195312 1071.847656 1270.394531 1074.765625 1269.664062 C 1077.6875 1268.933594 1080.621094 1268.273438 1083.570312 1267.6875 C 1086.523438 1267.101562 1089.484375 1266.585938 1092.460938 1266.144531 C 1095.4375 1265.703125 1098.421875 1265.335938 1101.417969 1265.042969 C 1104.410156 1264.746094 1107.410156 1264.523438 1110.417969 1264.378906 C 1113.421875 1264.230469 1116.429688 1264.15625 1119.4375 1264.15625 C 1122.445312 1264.15625 1125.453125 1264.230469 1128.457031 1264.378906 C 1131.460938 1264.523438 1134.460938 1264.746094 1137.457031 1265.042969 C 1140.449219 1265.335938 1143.433594 1265.703125 1146.410156 1266.144531 C 1149.386719 1266.585938 1152.351562 1267.101562 1155.300781 1267.6875 C 1158.253906 1268.273438 1161.1875 1268.933594 1164.105469 1269.664062 C 1167.023438 1270.394531 1169.925781 1271.195312 1172.804688 1272.070312 C 1175.683594 1272.941406 1178.539062 1273.886719 1181.371094 1274.898438 C 1184.203125 1275.910156 1187.011719 1276.992188 1189.789062 1278.144531 C 1192.570312 1279.296875 1195.320312 1280.511719 1198.039062 1281.800781 C 1200.761719 1283.085938 1203.449219 1284.4375 1206.101562 1285.855469 C 1208.753906 1287.273438 1211.371094 1288.753906 1213.953125 1290.300781 C 1216.535156 1291.847656 1219.074219 1293.457031 1221.578125 1295.125 C 1224.078125 1296.796875 1226.539062 1298.527344 1228.957031 1300.320312 C 1231.375 1302.109375 1233.746094 1303.960938 1236.070312 1305.867188 C 1238.398438 1307.777344 1240.675781 1309.742188 1242.90625 1311.761719 C 1245.136719 1313.78125 1247.316406 1315.851562 1249.441406 1317.980469 C 1251.570312 1320.105469 1253.644531 1322.285156 1255.667969 1324.511719 C 1257.6875 1326.742188 1259.652344 1329.019531 1261.5625 1331.34375 C 1263.472656 1333.667969 1265.324219 1336.039062 1267.117188 1338.453125 C 1268.910156 1340.871094 1270.644531 1343.328125 1272.316406 1345.828125 C 1273.988281 1348.332031 1275.597656 1350.871094 1277.148438 1353.449219 C 1278.695312 1356.03125 1280.179688 1358.648438 1281.597656 1361.300781 C 1283.019531 1363.953125 1284.371094 1366.640625 1285.660156 1369.359375 C 1286.945312 1372.078125 1288.167969 1374.828125 1289.320312 1377.605469 C 1290.472656 1380.382812 1291.558594 1383.191406 1292.570312 1386.023438 C 1293.585938 1388.855469 1294.53125 1391.710938 1295.40625 1394.589844 C 1296.28125 1397.46875 1297.085938 1400.367188 1297.820312 1403.285156 C 1298.550781 1406.203125 1299.210938 1409.136719 1299.800781 1412.085938 C 1300.390625 1415.035156 1300.90625 1418 1301.347656 1420.976562 C 1301.792969 1423.953125 1302.164062 1426.9375 1302.460938 1429.929688 C 1302.757812 1432.925781 1302.980469 1435.925781 1303.128906 1438.929688 C 1303.277344 1441.933594 1303.355469 1444.941406 1303.355469 1447.949219 L 1303.355469 1602.472656 L 1402.101562 1602.472656 C 1403.640625 1602.472656 1405.183594 1602.433594 1406.722656 1602.355469 C 1408.261719 1602.28125 1409.800781 1602.167969 1411.335938 1602.015625 C 1412.867188 1601.863281 1414.398438 1601.675781 1415.921875 1601.449219 C 1417.449219 1601.222656 1418.96875 1600.957031 1420.480469 1600.65625 C 1421.992188 1600.355469 1423.496094 1600.015625 1424.992188 1599.640625 C 1426.488281 1599.265625 1427.972656 1598.855469 1429.449219 1598.40625 C 1430.921875 1597.960938 1432.386719 1597.476562 1433.839844 1596.957031 C 1435.289062 1596.4375 1436.726562 1595.878906 1438.152344 1595.289062 C 1439.574219 1594.699219 1440.984375 1594.074219 1442.378906 1593.417969 C 1443.773438 1592.757812 1445.148438 1592.0625 1446.507812 1591.335938 C 1447.867188 1590.609375 1449.210938 1589.847656 1450.53125 1589.058594 C 1451.855469 1588.265625 1453.15625 1587.4375 1454.4375 1586.582031 C 1455.71875 1585.726562 1456.980469 1584.839844 1458.21875 1583.917969 C 1459.457031 1583 1460.671875 1582.050781 1461.863281 1581.074219 C 1463.054688 1580.097656 1464.222656 1579.089844 1465.367188 1578.054688 C 1466.507812 1577.019531 1467.625 1575.957031 1468.714844 1574.863281 C 1469.804688 1573.773438 1470.867188 1572.660156 1471.902344 1571.515625 C 1472.9375 1570.375 1473.945312 1569.207031 1474.921875 1568.015625 C 1475.902344 1566.824219 1476.851562 1565.609375 1477.769531 1564.371094 C 1478.6875 1563.132812 1479.574219 1561.871094 1480.433594 1560.589844 C 1481.289062 1559.308594 1482.113281 1558.003906 1482.90625 1556.683594 C 1483.699219 1555.359375 1484.457031 1554.019531 1485.1875 1552.660156 C 1485.914062 1551.300781 1486.605469 1549.921875 1487.265625 1548.53125 C 1487.925781 1547.136719 1488.550781 1545.726562 1489.140625 1544.300781 C 1489.730469 1542.878906 1490.285156 1541.441406 1490.804688 1539.988281 C 1491.324219 1538.535156 1491.808594 1537.074219 1492.257812 1535.597656 C 1492.703125 1534.121094 1493.117188 1532.636719 1493.492188 1531.140625 C 1493.867188 1529.644531 1494.203125 1528.140625 1494.503906 1526.628906 C 1494.804688 1525.117188 1495.070312 1523.597656 1495.296875 1522.074219 C 1495.523438 1520.550781 1495.714844 1519.019531 1495.863281 1517.484375 C 1496.015625 1515.949219 1496.128906 1514.414062 1496.207031 1512.875 C 1496.28125 1511.332031 1496.320312 1509.792969 1496.320312 1508.25 L 1496.320312 988.902344 L 1154.109375 760.886719 C 1151.535156 759.242188 1148.855469 757.789062 1146.074219 756.523438 C 1143.289062 755.257812 1140.433594 754.199219 1137.5 753.339844 C 1134.566406 752.484375 1131.585938 751.839844 1128.558594 751.40625 C 1125.535156 750.972656 1122.492188 750.753906 1119.4375 750.753906 C 1116.378906 750.753906 1113.339844 750.972656 1110.3125 751.40625 C 1107.289062 751.839844 1104.308594 752.484375 1101.375 753.339844 C 1098.441406 754.199219 1095.582031 755.257812 1092.800781 756.523438 C 1090.019531 757.789062 1087.339844 759.242188 1084.761719 760.886719 Z M 1084.761719 760.886719 " fill-opacity="1" fill-rule="nonzero"/></svg>