<svg xmlns="http://www.w3.org/2000/svg" xmlns:xlink="http://www.w3.org/1999/xlink" width="3000" zoomAndPan="magnify" viewBox="0 0 2250 2250.000011" height="3000" preserveAspectRatio="xMidYMid meet" version="1.0"><defs><clipPath id="b071cd7390"><path d="M 278.347656 277.847656 L 1965.675781 277.847656 L 1965.675781 1965.175781 L 278.347656 1965.175781 Z M 278.347656 277.847656 " clip-rule="nonzero"/></clipPath><clipPath id="3abeac887f"><path d="M 1122.011719 277.847656 C 656.070312 277.847656 278.347656 655.570312 278.347656 1121.511719 C 278.347656 1587.453125 656.070312 1965.175781 1122.011719 1965.175781 C 1587.953125 1965.175781 1965.675781 1587.453125 1965.675781 1121.511719 C 1965.675781 655.570312 1587.953125 277.847656 1122.011719 277.847656 Z M 1122.011719 277.847656 " clip-rule="nonzero"/></clipPath><clipPath id="2796844b8f"><path d="M 26.925781 407.867188 L 66.660156 407.867188 L 66.660156 447.597656 L 26.925781 447.597656 Z M 26.925781 407.867188 " clip-rule="nonzero"/></clipPath><clipPath id="9870a87084"><path d="M 0.5 0 L 2249.5 0 L 2249.5 2249 L 0.5 2249 Z M 0.5 0 " clip-rule="nonzero"/></clipPath></defs><g clip-path="url(#b071cd7390)"><g clip-path="url(#3abeac887f)"><path fill="#000000" d="M 278.347656 277.847656 L 1965.675781 277.847656 L 1965.675781 1965.175781 L 278.347656 1965.175781 Z M 278.347656 277.847656 " fill-opacity="1" fill-rule="nonzero"/></g></g><g clip-path="url(#2796844b8f)"><path fill="#ffffff" d="M 46.914062 447.84375 C 57.953125 447.84375 66.902344 438.894531 66.902344 427.855469 C 66.902344 416.816406 57.953125 407.867188 46.914062 407.867188 C 35.875 407.867188 26.925781 416.816406 26.925781 427.855469 C 26.925781 438.894531 35.875 447.84375 46.914062 447.84375 Z M 50.113281 428.921875 L 39.894531 428.921875 L 41.804688 430.832031 L 40.296875 432.339844 L 36.566406 428.609375 C 36.148438 428.191406 36.148438 427.519531 36.566406 427.101562 L 40.296875 423.371094 L 41.804688 424.878906 L 39.894531 426.789062 L 50.113281 426.789062 Z M 43.71875 418.261719 C 43.128906 418.261719 42.652344 418.738281 42.652344 419.328125 L 42.652344 422.523438 L 44.78125 422.523438 L 44.78125 420.394531 L 55.445312 420.394531 L 55.445312 435.320312 L 44.78125 435.320312 L 44.78125 433.1875 L 42.652344 433.1875 L 42.652344 436.382812 C 42.652344 436.972656 43.128906 437.449219 43.71875 437.449219 L 56.511719 437.449219 C 57.097656 437.449219 57.574219 436.972656 57.574219 436.382812 L 57.574219 419.328125 C 57.574219 418.738281 57.097656 418.261719 56.511719 418.261719 Z M 43.71875 418.261719 " fill-opacity="1" fill-rule="evenodd"/></g><g clip-path="url(#9870a87084)"><path fill="#ffffff" d="M 1125.089844 0 C 503.992188 0 0.5 503.492188 0.5 1124.589844 C 0.5 1745.6875 503.992188 2249.179688 1125.089844 2249.179688 C 1746.1875 2249.179688 2249.679688 1745.6875 2249.679688 1124.589844 C 2249.679688 503.492188 1746.1875 0 1125.089844 0 Z M 1443.882812 760.574219 C 1494.53125 712.035156 1545.175781 663.539062 1595.820312 615 C 1612.671875 598.867188 1639.429688 599.40625 1655.609375 616.300781 C 1671.742188 633.152344 1671.203125 659.953125 1654.308594 676.089844 L 1502.375 821.660156 C 1485.519531 837.796875 1458.765625 837.257812 1442.585938 820.359375 C 1426.449219 803.507812 1426.988281 776.707031 1443.882812 760.574219 Z M 1091.386719 490.046875 C 1092.371094 466.695312 1112.09375 448.589844 1135.441406 449.621094 C 1147.09375 450.113281 1157.449219 455.3125 1164.800781 463.289062 C 1172.148438 471.269531 1176.40625 482.023438 1175.871094 493.675781 C 1173.671875 544.589844 1171.523438 595.460938 1169.324219 646.375 C 1168.339844 669.726562 1148.621094 687.832031 1125.269531 686.800781 C 1101.917969 685.816406 1083.855469 666.09375 1084.84375 642.746094 Z M 619.535156 594.070312 C 636.386719 577.9375 663.144531 578.472656 679.324219 595.371094 C 727.816406 646.015625 776.355469 696.660156 824.847656 747.304688 C 840.984375 764.15625 840.445312 790.960938 823.550781 807.09375 C 806.699219 823.230469 779.941406 822.691406 763.761719 805.792969 L 618.234375 653.859375 C 602.101562 637.007812 602.636719 610.207031 619.535156 594.070312 Z M 450.390625 1105.945312 C 450.390625 1082.59375 469.304688 1063.636719 492.652344 1063.636719 L 645.441406 1063.636719 C 657.136719 1063.636719 667.671875 1068.386719 675.335938 1076.007812 C 683 1083.671875 687.703125 1094.246094 687.703125 1105.902344 C 687.703125 1129.25 668.789062 1148.210938 645.441406 1148.210938 C 594.527344 1148.210938 543.566406 1148.210938 492.652344 1148.210938 C 469.304688 1148.210938 450.390625 1129.296875 450.390625 1105.902344 Z M 809.027344 1486.007812 L 657.09375 1631.578125 C 640.242188 1647.714844 613.484375 1647.175781 597.304688 1630.277344 C 581.171875 1613.425781 581.707031 1586.625 598.605469 1570.492188 C 649.25 1521.953125 699.894531 1473.457031 750.539062 1424.917969 C 765.285156 1410.800781 787.648438 1409.457031 803.785156 1420.660156 L 810.285156 1426.21875 L 815.570312 1432.988281 C 826.058594 1449.613281 823.773438 1471.890625 809.027344 1486.007812 Z M 1158.839844 1759.132812 C 1157.851562 1782.484375 1138.132812 1800.589844 1114.78125 1799.558594 C 1091.429688 1798.527344 1073.367188 1778.851562 1074.355469 1755.503906 C 1076.550781 1704.589844 1078.703125 1653.71875 1080.898438 1602.804688 C 1081.882812 1579.453125 1101.605469 1561.347656 1124.957031 1562.378906 C 1136.609375 1562.871094 1146.960938 1568.070312 1154.3125 1576.046875 C 1161.617188 1584.027344 1165.917969 1594.78125 1165.382812 1606.433594 Z M 851.832031 1377.90625 C 706.4375 1226.105469 711.59375 985.113281 863.347656 839.722656 C 1015.105469 694.332031 1256.050781 699.441406 1401.441406 851.242188 C 1546.832031 1003.042969 1541.679688 1244.03125 1389.921875 1389.421875 C 1238.121094 1534.859375 997.222656 1529.707031 851.832031 1377.90625 Z M 1633.378906 1652.507812 C 1616.527344 1668.644531 1589.769531 1668.105469 1573.589844 1651.210938 L 1428.0625 1499.273438 C 1411.929688 1482.421875 1412.46875 1455.621094 1429.363281 1439.484375 C 1446.214844 1423.351562 1472.972656 1423.890625 1489.152344 1440.785156 C 1537.644531 1491.429688 1586.183594 1542.074219 1634.679688 1592.722656 C 1650.8125 1609.574219 1650.273438 1636.375 1633.378906 1652.507812 Z M 1757.527344 1185.5 L 1604.738281 1185.5 C 1581.386719 1185.5 1562.476562 1166.585938 1562.476562 1143.191406 C 1562.476562 1119.839844 1581.386719 1100.882812 1604.738281 1100.882812 C 1655.652344 1100.882812 1706.613281 1100.882812 1757.527344 1100.882812 C 1769.222656 1100.882812 1779.757812 1105.632812 1787.421875 1113.25 C 1795.082031 1120.914062 1799.789062 1131.492188 1799.789062 1143.144531 C 1799.789062 1166.496094 1780.875 1185.453125 1757.527344 1185.453125 Z M 1757.527344 1185.5 " fill-opacity="1" fill-rule="nonzero"/></g></svg>