<svg xmlns="http://www.w3.org/2000/svg" xmlns:xlink="http://www.w3.org/1999/xlink" width="3000" zoomAndPan="magnify" viewBox="0 0 2250 2250.000011" height="3000" preserveAspectRatio="xMidYMid meet" version="1.0"><defs><clipPath id="c2c336bb52"><path d="M 409.417969 386.855469 L 1891.011719 386.855469 L 1891.011719 1868.449219 L 409.417969 1868.449219 Z M 409.417969 386.855469 " clip-rule="nonzero"/></clipPath><clipPath id="0ede242ebc"><path d="M 1150.214844 386.855469 C 741.085938 386.855469 409.417969 718.523438 409.417969 1127.652344 C 409.417969 1536.78125 741.085938 1868.449219 1150.214844 1868.449219 C 1559.34375 1868.449219 1891.011719 1536.78125 1891.011719 1127.652344 C 1891.011719 718.523438 1559.34375 386.855469 1150.214844 386.855469 Z M 1150.214844 386.855469 " clip-rule="nonzero"/></clipPath><clipPath id="2f317ad620"><path d="M 37.585938 37.085938 L 2201.875 37.085938 L 2201.875 2201.375 L 37.585938 2201.375 Z M 37.585938 37.085938 " clip-rule="nonzero"/></clipPath></defs><g clip-path="url(#c2c336bb52)"><g clip-path="url(#0ede242ebc)"><path fill="#000000" d="M 409.417969 386.855469 L 1891.011719 386.855469 L 1891.011719 1868.449219 L 409.417969 1868.449219 Z M 409.417969 386.855469 " fill-opacity="1" fill-rule="nonzero"/></g></g><g clip-path="url(#2f317ad620)"><path fill="#ffffff" d="M 1119.902344 2201.714844 C 1717.648438 2201.714844 2202.214844 1717.148438 2202.214844 1119.402344 C 2202.214844 521.65625 1717.648438 37.085938 1119.902344 37.085938 C 522.15625 37.085938 37.585938 521.65625 37.585938 1119.402344 C 37.585938 1717.148438 522.15625 2201.714844 1119.902344 2201.714844 Z M 1293.070312 1177.125 L 739.75 1177.125 L 843.238281 1280.617188 L 761.605469 1362.25 L 559.574219 1160.21875 C 537.03125 1137.679688 537.03125 1101.125 559.574219 1078.582031 L 761.605469 876.550781 L 843.238281 958.1875 L 739.75 1061.679688 L 1293.070312 1061.679688 Z M 946.730469 599.890625 C 914.851562 599.890625 889.007812 625.734375 889.007812 657.617188 L 889.007812 830.785156 L 1004.453125 830.785156 L 1004.453125 715.335938 L 1581.6875 715.335938 L 1581.6875 1523.464844 L 1004.453125 1523.464844 L 1004.453125 1408.019531 L 889.007812 1408.019531 L 889.007812 1581.1875 C 889.007812 1613.066406 914.851562 1638.914062 946.730469 1638.914062 L 1639.410156 1638.914062 C 1671.289062 1638.914062 1697.136719 1613.066406 1697.136719 1581.1875 L 1697.136719 657.617188 C 1697.136719 625.734375 1671.289062 599.890625 1639.410156 599.890625 Z M 946.730469 599.890625 " fill-opacity="1" fill-rule="evenodd"/></g></svg>