<svg xmlns="http://www.w3.org/2000/svg" xmlns:xlink="http://www.w3.org/1999/xlink" width="3000" zoomAndPan="magnify" viewBox="0 0 2250 2250.000011" height="3000" preserveAspectRatio="xMidYMid meet" version="1.0"><defs><clipPath id="10b0221804"><path d="M 512.617188 505.15625 L 1730.417969 505.15625 L 1730.417969 1742 L 512.617188 1742 Z M 512.617188 505.15625 " clip-rule="nonzero"/></clipPath></defs><g clip-path="url(#10b0221804)"><path fill="#000000" d="M 512.617188 505.15625 L 1730.417969 505.15625 L 1730.417969 1741.984375 L 512.617188 1741.984375 Z M 512.617188 505.15625 " fill-opacity="1" fill-rule="nonzero"/></g><path fill="#ffffff" d="M 2200.191406 1134.613281 C 2200.195312 1152.210938 2199.757812 1169.800781 2198.894531 1187.375 C 2198.035156 1204.953125 2196.738281 1222.5 2195.015625 1240.011719 C 2193.289062 1257.527344 2191.136719 1274.988281 2188.550781 1292.394531 C 2185.972656 1309.800781 2182.964844 1327.140625 2179.527344 1344.398438 C 2176.097656 1361.65625 2172.242188 1378.824219 2167.964844 1395.894531 C 2163.6875 1412.964844 2158.996094 1429.921875 2153.890625 1446.761719 C 2148.777344 1463.601562 2143.261719 1480.308594 2137.332031 1496.878906 C 2131.402344 1513.449219 2125.070312 1529.863281 2118.339844 1546.125 C 2111.605469 1562.382812 2104.472656 1578.464844 2096.949219 1594.371094 C 2089.425781 1610.28125 2081.511719 1625.996094 2073.21875 1641.515625 C 2064.921875 1657.035156 2056.25 1672.34375 2047.203125 1687.441406 C 2038.15625 1702.535156 2028.742188 1717.398438 2018.964844 1732.03125 C 2009.1875 1746.664062 1999.058594 1761.046875 1988.574219 1775.183594 C 1978.089844 1789.320312 1967.265625 1803.191406 1956.105469 1816.792969 C 1944.941406 1830.394531 1933.449219 1843.714844 1921.628906 1856.757812 C 1909.8125 1869.796875 1897.679688 1882.539062 1885.238281 1894.984375 C 1872.792969 1907.425781 1860.050781 1919.558594 1847.011719 1931.375 C 1833.96875 1943.195312 1820.648438 1954.6875 1807.046875 1965.851562 C 1793.441406 1977.015625 1779.574219 1987.839844 1765.4375 1998.324219 C 1751.300781 2008.808594 1736.917969 2018.9375 1722.285156 2028.710938 C 1707.652344 2038.488281 1692.789062 2047.902344 1677.695312 2056.949219 C 1662.597656 2065.996094 1647.289062 2074.667969 1631.769531 2082.964844 C 1616.25 2091.257812 1600.535156 2099.171875 1584.625 2106.695312 C 1568.71875 2114.21875 1552.636719 2121.351562 1536.378906 2128.085938 C 1520.113281 2134.820312 1503.703125 2141.148438 1487.132812 2147.078125 C 1470.5625 2153.007812 1453.855469 2158.523438 1437.015625 2163.636719 C 1420.175781 2168.742188 1403.21875 2173.4375 1386.148438 2177.710938 C 1369.078125 2181.988281 1351.910156 2185.84375 1334.652344 2189.277344 C 1317.394531 2192.710938 1300.054688 2195.71875 1282.648438 2198.296875 C 1265.238281 2200.882812 1247.78125 2203.035156 1230.265625 2204.761719 C 1212.753906 2206.484375 1195.207031 2207.78125 1177.628906 2208.640625 C 1160.050781 2209.503906 1142.464844 2209.9375 1124.867188 2209.9375 C 1107.269531 2209.9375 1089.679688 2209.503906 1072.101562 2208.640625 C 1054.527344 2207.78125 1036.980469 2206.484375 1019.46875 2204.761719 C 1001.953125 2203.035156 984.492188 2200.882812 967.082031 2198.296875 C 949.675781 2195.71875 932.339844 2192.710938 915.082031 2189.273438 C 897.820312 2185.84375 880.652344 2181.988281 863.582031 2177.710938 C 846.515625 2173.4375 829.554688 2168.742188 812.714844 2163.636719 C 795.875 2158.523438 779.167969 2153.007812 762.601562 2147.078125 C 746.027344 2141.148438 729.617188 2134.820312 713.355469 2128.085938 C 697.097656 2121.351562 681.015625 2114.21875 665.105469 2106.695312 C 649.195312 2099.171875 633.480469 2091.257812 617.960938 2082.964844 C 602.441406 2074.667969 587.132812 2065.996094 572.039062 2056.949219 C 556.941406 2047.902344 542.082031 2038.488281 527.449219 2028.710938 C 512.8125 2018.9375 498.433594 2008.808594 484.296875 1998.324219 C 470.160156 1987.839844 456.289062 1977.015625 442.6875 1965.851562 C 429.082031 1954.6875 415.761719 1943.195312 402.722656 1931.375 C 389.683594 1919.558594 376.941406 1907.425781 364.496094 1894.984375 C 352.050781 1882.539062 339.921875 1869.796875 328.101562 1856.757812 C 316.285156 1843.714844 304.792969 1830.394531 293.628906 1816.792969 C 282.464844 1803.191406 271.640625 1789.320312 261.15625 1775.183594 C 250.671875 1761.046875 240.542969 1746.664062 230.765625 1732.03125 C 220.988281 1717.398438 211.578125 1702.535156 202.527344 1687.441406 C 193.480469 1672.34375 184.808594 1657.035156 176.515625 1641.515625 C 168.21875 1625.996094 160.308594 1610.28125 152.785156 1594.371094 C 145.257812 1578.464844 138.128906 1562.382812 131.394531 1546.125 C 124.660156 1529.863281 118.332031 1513.449219 112.402344 1496.878906 C 106.472656 1480.308594 100.953125 1463.601562 95.84375 1446.761719 C 90.738281 1429.921875 86.042969 1412.964844 81.765625 1395.894531 C 77.488281 1378.824219 73.632812 1361.65625 70.203125 1344.398438 C 66.769531 1327.140625 63.761719 1309.800781 61.179688 1292.394531 C 58.597656 1274.988281 56.445312 1257.527344 54.71875 1240.011719 C 52.996094 1222.5 51.699219 1204.953125 50.835938 1187.375 C 49.972656 1169.800781 49.539062 1152.210938 49.539062 1134.613281 C 49.539062 1117.015625 49.972656 1099.425781 50.835938 1081.851562 C 51.699219 1064.273438 52.996094 1046.726562 54.71875 1029.214844 C 56.445312 1011.699219 58.597656 994.238281 61.179688 976.828125 C 63.761719 959.421875 66.769531 942.085938 70.203125 924.828125 C 73.632812 907.566406 77.488281 890.398438 81.765625 873.328125 C 86.042969 856.261719 90.738281 839.300781 95.84375 822.460938 C 100.953125 805.621094 106.472656 788.914062 112.402344 772.347656 C 118.332031 755.773438 124.660156 739.363281 131.394531 723.101562 C 138.128906 706.84375 145.257812 690.761719 152.785156 674.851562 C 160.308594 658.945312 168.21875 643.226562 176.515625 627.707031 C 184.808594 612.1875 193.480469 596.878906 202.527344 581.785156 C 211.578125 566.6875 220.988281 551.828125 230.765625 537.195312 C 240.542969 522.558594 250.671875 508.179688 261.15625 494.042969 C 271.640625 479.90625 282.464844 466.035156 293.628906 452.433594 C 304.792969 438.828125 316.285156 425.507812 328.101562 412.46875 C 339.921875 399.429688 352.050781 386.6875 364.496094 374.242188 C 376.941406 361.796875 389.683594 349.667969 402.722656 337.847656 C 415.761719 326.03125 429.082031 314.539062 442.6875 303.375 C 456.289062 292.210938 470.160156 281.386719 484.296875 270.90625 C 498.433594 260.421875 512.8125 250.292969 527.449219 240.511719 C 542.082031 230.734375 556.941406 221.324219 572.039062 212.273438 C 587.132812 203.226562 602.441406 194.554688 617.960938 186.261719 C 633.480469 177.964844 649.199219 170.054688 665.105469 162.53125 C 681.015625 155.003906 697.097656 147.875 713.355469 141.140625 C 729.617188 134.40625 746.027344 128.078125 762.601562 122.148438 C 779.167969 116.21875 795.875 110.699219 812.714844 105.589844 C 829.554688 100.484375 846.515625 95.792969 863.582031 91.511719 C 880.652344 87.238281 897.820312 83.378906 915.082031 79.949219 C 932.339844 76.515625 949.675781 73.507812 967.082031 70.925781 C 984.492188 68.34375 1001.953125 66.191406 1019.46875 64.464844 C 1036.980469 62.742188 1054.527344 61.445312 1072.101562 60.585938 C 1089.679688 59.71875 1107.269531 59.285156 1124.867188 59.285156 C 1142.464844 59.285156 1160.050781 59.71875 1177.628906 60.585938 C 1195.207031 61.445312 1212.753906 62.742188 1230.265625 64.464844 C 1247.78125 66.191406 1265.242188 68.34375 1282.648438 70.925781 C 1300.054688 73.507812 1317.394531 76.515625 1334.652344 79.949219 C 1351.910156 83.382812 1369.078125 87.238281 1386.148438 91.511719 C 1403.21875 95.792969 1420.175781 100.484375 1437.015625 105.589844 C 1453.855469 110.699219 1470.5625 116.21875 1487.132812 122.148438 C 1503.703125 128.078125 1520.113281 134.40625 1536.378906 141.140625 C 1552.636719 147.875 1568.71875 155.003906 1584.625 162.53125 C 1600.535156 170.054688 1616.25 177.964844 1631.769531 186.261719 C 1647.289062 194.554688 1662.597656 203.226562 1677.695312 212.273438 C 1692.789062 221.324219 1707.652344 230.734375 1722.285156 240.511719 C 1736.917969 250.292969 1751.300781 260.421875 1765.4375 270.90625 C 1779.574219 281.386719 1793.445312 292.210938 1807.046875 303.375 C 1820.648438 314.539062 1833.96875 326.03125 1847.011719 337.847656 C 1860.050781 349.667969 1872.792969 361.796875 1885.238281 374.242188 C 1897.679688 386.6875 1909.8125 399.429688 1921.628906 412.46875 C 1933.449219 425.507812 1944.941406 438.828125 1956.105469 452.433594 C 1967.265625 466.035156 1978.089844 479.90625 1988.574219 494.042969 C 1999.058594 508.179688 2009.1875 522.558594 2018.964844 537.195312 C 2028.742188 551.828125 2038.15625 566.6875 2047.203125 581.785156 C 2056.25 596.878906 2064.921875 612.1875 2073.21875 627.707031 C 2081.511719 643.226562 2089.425781 658.945312 2096.949219 674.851562 C 2104.472656 690.761719 2111.605469 706.84375 2118.339844 723.101562 C 2125.070312 739.363281 2131.402344 755.773438 2137.332031 772.347656 C 2143.261719 788.914062 2148.777344 805.621094 2153.890625 822.460938 C 2158.996094 839.300781 2163.6875 856.261719 2167.964844 873.328125 C 2172.242188 890.398438 2176.097656 907.566406 2179.53125 924.828125 C 2182.964844 942.085938 2185.972656 959.421875 2188.550781 976.828125 C 2191.136719 994.238281 2193.289062 1011.699219 2195.015625 1029.214844 C 2196.738281 1046.726562 2198.035156 1064.273438 2198.894531 1081.847656 C 2199.757812 1099.425781 2200.195312 1117.015625 2200.191406 1134.613281 Z M 1716.65625 763.539062 L 1607.316406 654.199219 L 1607.316406 1618.828125 L 699.734375 1618.828125 C 696.308594 1618.996094 692.894531 1618.871094 689.488281 1618.457031 C 686.089844 1618.046875 682.742188 1617.347656 679.457031 1616.363281 C 676.171875 1615.378906 672.992188 1614.125 669.921875 1612.601562 C 666.851562 1611.078125 663.933594 1609.304688 661.160156 1607.28125 C 660.34375 1606.636719 659.550781 1605.960938 658.773438 1605.265625 C 658 1604.570312 657.242188 1603.855469 656.503906 1603.117188 C 655.769531 1602.378906 655.054688 1601.617188 654.363281 1600.839844 C 653.671875 1600.0625 653 1599.265625 652.351562 1598.445312 C 651.703125 1597.628906 651.078125 1596.796875 650.476562 1595.945312 C 649.878906 1595.09375 649.300781 1594.222656 648.75 1593.339844 C 648.199219 1592.457031 647.671875 1591.558594 647.171875 1590.640625 C 646.671875 1589.730469 646.199219 1588.800781 645.746094 1587.859375 C 645.300781 1586.917969 644.878906 1585.964844 644.484375 1585 C 644.089844 1584.035156 643.722656 1583.0625 643.382812 1582.074219 C 643.046875 1581.089844 642.734375 1580.097656 642.453125 1579.09375 C 642.167969 1578.089844 641.914062 1577.082031 641.6875 1576.0625 C 641.460938 1575.046875 641.265625 1574.019531 641.097656 1572.996094 C 640.929688 1571.964844 640.792969 1570.933594 640.679688 1569.894531 C 640.570312 1568.859375 640.492188 1567.820312 640.4375 1566.777344 C 640.390625 1565.738281 640.367188 1564.695312 640.378906 1563.652344 C 640.386719 1562.613281 640.425781 1561.570312 640.488281 1560.53125 C 640.554688 1559.492188 640.65625 1558.453125 640.78125 1557.417969 C 640.90625 1556.382812 641.058594 1555.355469 641.246094 1554.328125 C 641.425781 1553.300781 641.636719 1552.28125 641.878906 1551.269531 C 642.121094 1550.253906 642.394531 1549.25 642.691406 1548.25 C 642.988281 1547.25 643.320312 1546.261719 643.671875 1545.285156 C 644.027344 1544.304688 644.410156 1543.332031 644.816406 1542.375 C 645.226562 1541.417969 645.664062 1540.46875 646.125 1539.535156 C 646.585938 1538.601562 647.078125 1537.683594 647.59375 1536.773438 C 648.109375 1535.871094 648.648438 1534.976562 649.214844 1534.101562 C 649.777344 1533.230469 650.367188 1532.371094 650.980469 1531.527344 C 651.597656 1530.683594 652.234375 1529.859375 652.894531 1529.050781 C 653.554688 1528.246094 654.238281 1527.457031 654.941406 1526.691406 C 655.644531 1525.925781 656.371094 1525.175781 657.121094 1524.449219 C 657.867188 1523.722656 658.632812 1523.019531 659.421875 1522.335938 C 660.207031 1521.65625 661.015625 1520.992188 661.839844 1520.355469 C 666.5 1517.777344 671.34375 1515.601562 676.363281 1513.828125 C 681.386719 1512.050781 686.519531 1510.703125 691.765625 1509.777344 C 697.011719 1508.855469 702.296875 1508.367188 707.621094 1508.316406 C 712.949219 1508.273438 718.242188 1508.660156 723.503906 1509.492188 L 1497.976562 1509.492188 L 1497.976562 545.542969 L 932.945312 545.542969 L 932.945312 941.605469 L 846.425781 878.039062 L 760.039062 941.605469 L 760.039062 545.542969 L 694.570312 545.542969 C 691.894531 545.546875 689.210938 545.617188 686.53125 545.757812 C 683.855469 545.894531 681.179688 546.097656 678.515625 546.367188 C 675.847656 546.636719 673.1875 546.972656 670.535156 547.371094 C 667.882812 547.769531 665.242188 548.230469 662.609375 548.761719 C 659.980469 549.292969 657.367188 549.882812 654.769531 550.539062 C 652.167969 551.195312 649.585938 551.917969 647.019531 552.699219 C 644.453125 553.484375 641.910156 554.328125 639.386719 555.234375 C 636.863281 556.144531 634.363281 557.113281 631.886719 558.144531 C 629.414062 559.175781 626.960938 560.265625 624.539062 561.414062 C 622.117188 562.566406 619.722656 563.773438 617.363281 565.042969 C 615 566.308594 612.667969 567.632812 610.371094 569.015625 C 608.070312 570.398438 605.808594 571.835938 603.578125 573.328125 C 601.351562 574.820312 599.160156 576.367188 597.011719 577.96875 C 594.859375 579.566406 592.746094 581.21875 590.671875 582.921875 C 588.605469 584.625 586.574219 586.378906 584.589844 588.183594 C 582.601562 589.984375 580.660156 591.835938 578.769531 593.734375 C 576.875 595.628906 575.027344 597.574219 573.226562 599.5625 C 571.425781 601.550781 569.679688 603.582031 567.980469 605.65625 C 566.277344 607.730469 564.628906 609.84375 563.035156 611.996094 C 561.4375 614.152344 559.894531 616.347656 558.40625 618.578125 C 556.914062 620.808594 555.480469 623.070312 554.105469 625.371094 C 552.726562 627.671875 551.40625 630.007812 550.144531 632.371094 C 548.878906 634.738281 547.671875 637.132812 546.527344 639.558594 C 545.378906 641.984375 544.292969 644.433594 543.269531 646.914062 C 542.242188 649.386719 541.277344 651.886719 540.375 654.414062 C 539.46875 656.9375 538.628906 659.484375 537.851562 662.050781 C 537.070312 664.617188 536.355469 667.199219 535.699219 669.804688 C 535.050781 672.402344 534.460938 675.019531 533.9375 677.652344 C 533.410156 680.28125 532.953125 682.921875 532.558594 685.574219 C 532.164062 688.226562 531.835938 690.886719 531.570312 693.558594 C 531.304688 696.226562 531.105469 698.898438 530.972656 701.574219 C 530.839844 704.253906 530.769531 706.9375 530.765625 709.617188 L 530.765625 1564.09375 C 530.769531 1566.773438 530.839844 1569.457031 530.972656 1572.136719 C 531.105469 1574.816406 531.304688 1577.488281 531.570312 1580.160156 C 531.835938 1582.832031 532.164062 1585.492188 532.5625 1588.148438 C 532.953125 1590.800781 533.414062 1593.441406 533.941406 1596.074219 C 534.464844 1598.703125 535.054688 1601.324219 535.707031 1603.925781 C 536.359375 1606.527344 537.078125 1609.113281 537.859375 1611.679688 C 538.636719 1614.246094 539.476562 1616.792969 540.382812 1619.320312 C 541.289062 1621.84375 542.253906 1624.351562 543.28125 1626.828125 C 544.308594 1629.304688 545.394531 1631.757812 546.546875 1634.183594 C 547.691406 1636.609375 548.898438 1639.003906 550.164062 1641.371094 C 551.425781 1643.738281 552.75 1646.070312 554.128906 1648.371094 C 555.507812 1650.675781 556.941406 1652.941406 558.433594 1655.171875 C 559.925781 1657.402344 561.46875 1659.597656 563.0625 1661.75 C 564.664062 1663.90625 566.3125 1666.023438 568.015625 1668.097656 C 569.714844 1670.171875 571.46875 1672.203125 573.269531 1674.191406 C 575.070312 1676.179688 576.917969 1678.125 578.816406 1680.023438 C 580.714844 1681.921875 582.65625 1683.769531 584.640625 1685.574219 C 586.628906 1687.378906 588.660156 1689.128906 590.734375 1690.832031 C 592.808594 1692.539062 594.917969 1694.1875 597.074219 1695.789062 C 599.226562 1697.386719 601.417969 1698.933594 603.652344 1700.425781 C 605.878906 1701.917969 608.144531 1703.355469 610.445312 1704.738281 C 612.746094 1706.117188 615.078125 1707.441406 617.441406 1708.710938 C 619.8125 1709.976562 622.207031 1711.183594 624.628906 1712.332031 C 627.054688 1713.484375 629.503906 1714.574219 631.984375 1715.601562 C 634.460938 1716.632812 636.960938 1717.601562 639.484375 1718.503906 C 642.011719 1719.414062 644.558594 1720.257812 647.125 1721.039062 C 649.695312 1721.824219 652.277344 1722.542969 654.878906 1723.195312 C 657.480469 1723.851562 660.09375 1724.441406 662.730469 1724.96875 C 665.359375 1725.496094 668.003906 1725.957031 670.65625 1726.355469 C 673.308594 1726.753906 675.972656 1727.085938 678.636719 1727.351562 C 681.308594 1727.621094 683.984375 1727.820312 686.664062 1727.957031 C 689.34375 1728.09375 692.023438 1728.164062 694.707031 1728.167969 L 1716.65625 1728.167969 Z M 1716.65625 763.539062 " fill-opacity="1" fill-rule="nonzero"/></svg>