<svg xmlns="http://www.w3.org/2000/svg" xmlns:xlink="http://www.w3.org/1999/xlink" width="3000" zoomAndPan="magnify" viewBox="0 0 2250 2250.000011" height="3000" preserveAspectRatio="xMidYMid meet" version="1.0"><defs><clipPath id="3c7da9e948"><path d="M 431.484375 430.984375 L 1843.730469 430.984375 L 1843.730469 1843.234375 L 431.484375 1843.234375 Z M 431.484375 430.984375 " clip-rule="nonzero"/></clipPath><clipPath id="5f9e446ad2"><path d="M 1137.609375 430.984375 C 747.625 430.984375 431.484375 747.125 431.484375 1137.109375 C 431.484375 1527.089844 747.625 1843.234375 1137.609375 1843.234375 C 1527.589844 1843.234375 1843.730469 1527.089844 1843.730469 1137.109375 C 1843.730469 747.125 1527.589844 430.984375 1137.609375 430.984375 Z M 1137.609375 430.984375 " clip-rule="nonzero"/></clipPath><clipPath id="86b257abce"><path d="M 38.324219 28.367188 L 2221.351562 28.367188 L 2221.351562 2211.398438 L 38.324219 2211.398438 Z M 38.324219 28.367188 " clip-rule="nonzero"/></clipPath></defs><g clip-path="url(#3c7da9e948)"><g clip-path="url(#5f9e446ad2)"><path fill="#000000" d="M 431.484375 430.984375 L 1843.730469 430.984375 L 1843.730469 1843.234375 L 431.484375 1843.234375 Z M 431.484375 430.984375 " fill-opacity="1" fill-rule="nonzero"/></g></g><g clip-path="url(#86b257abce)"><path fill="#ffffff" d="M 1129.695312 28.367188 C 526.957031 28.367188 38.332031 517.03125 38.332031 1119.75 C 38.332031 1722.464844 526.957031 2211.175781 1129.695312 2211.175781 C 1732.4375 2211.175781 2221.121094 1722.496094 2221.121094 1119.75 C 2221.121094 517.003906 1732.4375 28.367188 1129.695312 28.367188 Z M 1129.71875 1723.324219 C 1051.386719 1723.324219 987.84375 1659.839844 987.84375 1581.449219 L 1271.574219 1581.449219 C 1271.585938 1659.839844 1208.054688 1723.324219 1129.71875 1723.324219 Z M 1609.136719 1439.1875 L 1609.101562 1439.1875 L 1609.101562 1439.179688 C 1609.101562 1491.640625 1566.585938 1495.097656 1514.164062 1495.097656 L 745.261719 1495.097656 C 692.816406 1495.097656 650.339844 1491.640625 650.339844 1439.179688 L 650.339844 1430.144531 C 650.339844 1392.417969 672.492188 1360.113281 704.328125 1344.789062 L 734.464844 1084.648438 C 734.464844 894.207031 869.144531 735.253906 1048.4375 697.753906 L 1048.4375 596.761719 C 1048.4375 551.871094 1084.839844 515.46875 1129.753906 515.46875 C 1174.648438 515.46875 1211.050781 551.871094 1211.050781 596.761719 L 1211.050781 697.761719 C 1390.347656 735.253906 1525.027344 894.191406 1525.027344 1084.65625 L 1555.164062 1344.832031 C 1586.996094 1360.179688 1609.136719 1392.425781 1609.136719 1430.152344 Z M 1609.136719 1439.1875 " fill-opacity="1" fill-rule="nonzero"/></g></svg>