<svg xmlns="http://www.w3.org/2000/svg" xmlns:xlink="http://www.w3.org/1999/xlink" width="3000" zoomAndPan="magnify" viewBox="0 0 2250 2250.000011" height="3000" preserveAspectRatio="xMidYMid meet" version="1.0"><defs><clipPath id="2b09e0dcac"><path d="M 711.058594 668.78125 L 1615 668.78125 L 1615 1437.480469 L 711.058594 1437.480469 Z M 711.058594 668.78125 " clip-rule="nonzero"/></clipPath></defs><g clip-path="url(#2b09e0dcac)"><path fill="#000000" d="M 711.058594 668.78125 L 1614.878906 668.78125 L 1614.878906 1437.480469 L 711.058594 1437.480469 Z M 711.058594 668.78125 " fill-opacity="1" fill-rule="nonzero"/></g><path fill="#ffffff" d="M 1994.566406 1119.796875 C 1994.566406 1602.636719 1603.136719 1994.066406 1120.296875 1994.066406 C 637.449219 1994.066406 246.027344 1602.636719 246.027344 1119.796875 C 246.027344 636.949219 637.449219 245.527344 1120.296875 245.527344 C 1603.136719 245.527344 1994.566406 636.949219 1994.566406 1119.796875 Z M 1520.054688 891.175781 C 1542.480469 904.945312 1557.039062 929.730469 1557.039062 958.054688 L 1557.429688 1351.476562 C 1557.429688 1394.753906 1522.023438 1430.164062 1478.746094 1430.164062 L 849.273438 1430.164062 C 805.996094 1430.164062 770.589844 1394.753906 770.589844 1351.476562 L 770.589844 958.054688 C 770.589844 929.730469 785.539062 904.945312 807.964844 891.175781 L 1164.007812 682.660156 Z M 1478.351562 958.449219 L 1478.351562 958.054688 L 1164.007812 773.9375 L 849.273438 958.054688 L 1164.007812 1154.765625 Z M 849.273438 1351.476562 L 849.273438 1050.117188 L 1164.007812 1247.613281 L 1478.351562 1051.296875 L 1478.746094 1351.476562 Z M 849.273438 1351.476562 " fill-opacity="1" fill-rule="evenodd"/></svg>