<svg xmlns="http://www.w3.org/2000/svg" xmlns:xlink="http://www.w3.org/1999/xlink" width="3000" zoomAndPan="magnify" viewBox="0 0 2250 2250.000011" height="3000" preserveAspectRatio="xMidYMid meet" version="1.0"><defs><clipPath id="74024a6c7e"><path d="M 332.347656 420.472656 L 1733.273438 420.472656 L 1733.273438 1821.398438 L 332.347656 1821.398438 Z M 332.347656 420.472656 " clip-rule="nonzero"/></clipPath><clipPath id="531869ee1e"><path d="M 1032.808594 420.472656 C 645.957031 420.472656 332.347656 734.078125 332.347656 1120.933594 C 332.347656 1507.789062 645.957031 1821.398438 1032.808594 1821.398438 C 1419.664062 1821.398438 1733.273438 1507.789062 1733.273438 1120.933594 C 1733.273438 734.078125 1419.664062 420.472656 1032.808594 420.472656 Z M 1032.808594 420.472656 " clip-rule="nonzero"/></clipPath></defs><g clip-path="url(#74024a6c7e)"><g clip-path="url(#531869ee1e)"><path fill="#000000" d="M 332.347656 420.472656 L 1733.273438 420.472656 L 1733.273438 1821.398438 L 332.347656 1821.398438 Z M 332.347656 420.472656 " fill-opacity="1" fill-rule="nonzero"/></g></g><path fill="#ffffff" d="M 2174.21875 1099.457031 C 2174.21875 1688.007812 1697.09375 2165.132812 1108.542969 2165.132812 C 519.988281 2165.132812 42.871094 1688.007812 42.871094 1099.457031 C 42.871094 510.902344 519.988281 33.785156 1108.542969 33.785156 C 1697.09375 33.785156 2174.21875 510.902344 2174.21875 1099.457031 Z M 1515.675781 1168.085938 C 1517.859375 1150.554688 1519.5 1133.027344 1519.5 1114.410156 C 1519.5 1095.78125 1517.859375 1078.25 1515.675781 1060.71875 L 1631.246094 970.339844 C 1641.660156 962.125 1644.398438 947.332031 1637.820312 935.28125 L 1528.269531 745.746094 C 1523.335938 736.980469 1514.023438 732.050781 1504.164062 732.050781 C 1500.882812 732.050781 1497.589844 732.597656 1494.851562 733.695312 L 1358.457031 788.472656 C 1329.96875 766.5625 1299.289062 748.484375 1265.878906 734.789062 L 1245.066406 589.628906 C 1243.417969 576.480469 1231.917969 566.621094 1218.222656 566.621094 L 999.109375 566.621094 C 985.417969 566.621094 973.90625 576.480469 972.265625 589.628906 L 951.453125 734.789062 C 918.035156 748.484375 887.359375 767.109375 858.875 788.472656 L 722.476562 733.695312 C 719.191406 732.597656 715.902344 732.050781 712.617188 732.050781 C 703.304688 732.050781 693.992188 736.980469 689.0625 745.746094 L 579.503906 935.28125 C 572.382812 947.332031 575.671875 962.125 586.078125 970.339844 L 701.660156 1060.71875 C 699.46875 1078.25 697.828125 1096.324219 697.828125 1114.410156 C 697.828125 1132.484375 699.46875 1150.554688 701.660156 1168.085938 L 586.078125 1258.476562 C 575.671875 1266.695312 572.933594 1281.472656 579.503906 1293.527344 L 689.0625 1483.066406 C 693.992188 1491.828125 703.304688 1496.761719 713.164062 1496.761719 C 716.449219 1496.761719 719.738281 1496.207031 722.476562 1495.121094 L 858.875 1440.335938 C 887.359375 1462.246094 918.035156 1480.328125 951.453125 1494.023438 L 972.265625 1639.179688 C 973.90625 1652.328125 985.417969 1662.1875 999.109375 1662.1875 L 1218.222656 1662.1875 C 1231.917969 1662.1875 1243.417969 1652.328125 1245.066406 1639.179688 L 1265.878906 1494.023438 C 1299.289062 1480.328125 1329.96875 1461.703125 1358.457031 1440.335938 L 1494.851562 1495.121094 C 1498.144531 1496.207031 1501.425781 1496.761719 1504.707031 1496.761719 C 1514.023438 1496.761719 1523.335938 1491.828125 1528.269531 1483.066406 L 1637.820312 1293.527344 C 1644.398438 1281.472656 1641.660156 1266.695312 1631.246094 1258.476562 Z M 1407.210938 1074.414062 C 1409.394531 1091.402344 1409.949219 1102.898438 1409.949219 1114.410156 C 1409.949219 1125.90625 1408.851562 1137.960938 1407.210938 1154.394531 L 1399.539062 1216.296875 L 1448.292969 1254.640625 L 1507.449219 1300.65625 L 1469.105469 1366.929688 L 1399.539062 1339 L 1342.566406 1315.992188 L 1293.269531 1353.238281 C 1269.71875 1370.765625 1247.253906 1383.917969 1224.800781 1393.230469 L 1166.730469 1416.78125 L 1157.960938 1478.675781 L 1147.003906 1552.636719 L 1070.320312 1552.636719 L 1051.148438 1416.78125 L 993.078125 1393.230469 C 969.527344 1383.363281 947.617188 1370.765625 925.707031 1354.335938 L 875.855469 1315.992188 L 817.789062 1339.542969 L 748.222656 1367.484375 L 709.875 1301.199219 L 769.035156 1255.183594 L 817.789062 1216.839844 L 810.121094 1154.945312 C 808.476562 1137.960938 807.382812 1125.363281 807.382812 1114.410156 C 807.382812 1103.453125 808.476562 1090.847656 810.121094 1074.414062 L 817.789062 1012.519531 L 769.035156 974.175781 L 709.875 928.160156 L 748.222656 861.878906 L 817.789062 889.816406 L 874.757812 912.824219 L 924.054688 875.570312 C 947.617188 858.042969 970.070312 844.894531 992.535156 835.582031 L 1050.59375 812.027344 L 1059.363281 750.128906 L 1070.320312 676.179688 L 1146.460938 676.179688 L 1165.632812 812.027344 L 1223.703125 835.582031 C 1247.253906 845.445312 1269.164062 858.042969 1291.074219 874.476562 L 1340.925781 912.824219 L 1398.992188 889.265625 L 1468.5625 861.328125 L 1506.902344 927.605469 L 1448.292969 974.175781 L 1399.539062 1012.519531 Z M 889.546875 1114.410156 C 889.546875 993.347656 987.601562 895.296875 1108.660156 895.296875 C 1229.722656 895.296875 1327.773438 993.347656 1327.773438 1114.410156 C 1327.773438 1235.46875 1229.722656 1333.523438 1108.660156 1333.523438 C 987.601562 1333.523438 889.546875 1235.46875 889.546875 1114.410156 Z M 1108.660156 1223.960938 C 1048.410156 1223.960938 999.109375 1174.660156 999.109375 1114.410156 C 999.109375 1054.144531 1048.410156 1004.847656 1108.660156 1004.847656 C 1168.925781 1004.847656 1218.222656 1054.144531 1218.222656 1114.410156 C 1218.222656 1174.660156 1168.925781 1223.960938 1108.660156 1223.960938 Z M 1108.660156 1223.960938 " fill-opacity="1" fill-rule="evenodd"/></svg>