<svg xmlns="http://www.w3.org/2000/svg" xmlns:xlink="http://www.w3.org/1999/xlink" width="3000" zoomAndPan="magnify" viewBox="0 0 2250 2250.000011" height="3000" preserveAspectRatio="xMidYMid meet" version="1.0"><defs><clipPath id="14fbd28618"><path d="M 24.871094 24.371094 L 2218.246094 24.371094 L 2218.246094 2217.746094 L 24.871094 2217.746094 Z M 24.871094 24.371094 " clip-rule="nonzero"/></clipPath></defs><path fill="#fafafa" d="M 1442.671875 777.3125 C 1401.90625 788.203125 1376.253906 831.074219 1386.445312 870.433594 C 1387.851562 875.351562 1388.554688 879.921875 1387.851562 880.273438 C 1384.6875 883.085938 1291.917969 946.6875 1290.160156 947.390625 C 1288.753906 948.09375 1284.1875 945.984375 1279.96875 943.175781 C 1269.78125 936.148438 1256.074219 931.578125 1242.722656 930.875 C 1219.878906 929.117188 1199.496094 937.199219 1182.277344 954.417969 L 1171.738281 964.609375 L 1132.027344 950.90625 L 1092.320312 937.199219 L 1090.210938 923.847656 C 1085.992188 895.382812 1074.398438 876.757812 1051.90625 863.40625 C 1041.714844 857.429688 1024.847656 852.863281 1012.902344 852.863281 C 979.519531 852.863281 948.945312 875.703125 939.105469 907.683594 C 935.242188 919.980469 934.890625 939.660156 938.050781 950.203125 L 940.160156 957.582031 L 890.261719 992.722656 L 840.359375 1027.511719 L 832.277344 1022.242188 C 787.296875 992.019531 726.855469 1015.214844 713.152344 1067.925781 C 698.742188 1123.09375 751.804688 1175.804688 806.625 1161.398438 C 848.089844 1150.855469 874.097656 1107.984375 863.90625 1068.625 L 861.796875 1060.191406 L 866.714844 1056.328125 C 878.3125 1047.894531 959.488281 991.667969 961.246094 990.964844 C 962.296875 990.613281 966.515625 992.722656 970.734375 995.183594 C 1000.601562 1015.914062 1042.066406 1010.996094 1068.421875 984.289062 L 1078.613281 973.746094 L 1118.324219 987.453125 L 1158.382812 1001.15625 L 1160.140625 1014.863281 C 1163.304688 1037.703125 1170.683594 1052.460938 1185.441406 1065.816406 C 1227.609375 1103.765625 1295.082031 1084.792969 1311.949219 1030.675781 C 1315.109375 1019.78125 1315.460938 1012.402344 1313.003906 984.992188 C 1312.652344 980.421875 1315.109375 978.667969 1361.847656 945.984375 L 1411.042969 911.898438 L 1418.777344 917.171875 C 1463.402344 947.390625 1523.847656 923.847656 1537.550781 871.488281 C 1551.605469 815.261719 1498.195312 762.199219 1442.671875 777.3125 Z M 1473.945312 815.613281 C 1488.003906 819.832031 1501.003906 837.753906 1501.003906 852.511719 C 1501.003906 872.542969 1482.378906 891.519531 1462 891.519531 C 1451.808594 891.519531 1443.375 887.652344 1435.292969 879.21875 C 1418.777344 862.703125 1418.777344 841.96875 1435.292969 825.804688 C 1446.535156 814.207031 1458.835938 811.046875 1473.945312 815.613281 Z M 1031.527344 896.4375 C 1040.664062 901.355469 1048.394531 911.898438 1050.5 922.441406 C 1054.367188 938.605469 1045.582031 956.527344 1030.472656 964.257812 C 1025.199219 967.070312 1020.632812 967.773438 1012.199219 968.125 C 1002.359375 968.125 999.898438 967.421875 992.871094 963.203125 C 965.460938 945.984375 969.328125 904.871094 999.898438 893.273438 C 1008.332031 890.464844 1022.742188 891.519531 1031.527344 896.4375 Z M 1257.480469 975.152344 C 1262.046875 977.964844 1266.96875 982.882812 1269.78125 987.453125 C 1273.996094 994.480469 1274.699219 996.941406 1274.699219 1007.832031 C 1274.699219 1018.726562 1274.347656 1021.1875 1269.78125 1028.214844 C 1263.101562 1039.109375 1252.910156 1045.082031 1239.558594 1046.136719 C 1230.773438 1046.839844 1228.3125 1046.136719 1220.582031 1042.269531 C 1188.605469 1025.753906 1192.46875 981.828125 1226.90625 970.234375 C 1234.988281 967.773438 1249.75 969.882812 1257.480469 975.152344 Z M 799.949219 1048.597656 C 808.734375 1051.054688 822.4375 1064.761719 824.898438 1073.546875 C 829.46875 1088.65625 826.304688 1100.957031 814.707031 1112.199219 C 798.191406 1128.71875 777.460938 1128.71875 761.292969 1112.199219 C 744.777344 1095.683594 744.777344 1074.953125 761.292969 1058.789062 C 772.539062 1047.542969 784.839844 1044.378906 799.949219 1048.597656 Z M 799.949219 1048.597656 " fill-opacity="1" fill-rule="nonzero"/><path fill="#fafafa" d="M 1399.449219 1010.292969 C 1392.773438 1013.105469 1386.09375 1021.539062 1385.039062 1027.863281 C 1384.6875 1030.675781 1384.335938 1128.71875 1384.6875 1245.734375 C 1385.039062 1457.632812 1385.039062 1458.335938 1388.554688 1462.554688 C 1390.3125 1465.011719 1393.824219 1468.527344 1396.285156 1470.285156 C 1400.503906 1473.445312 1402.609375 1473.796875 1462 1473.796875 C 1521.386719 1473.796875 1523.496094 1473.796875 1527.710938 1470.285156 C 1530.171875 1468.527344 1533.683594 1465.011719 1535.441406 1462.554688 C 1538.957031 1458.335938 1538.957031 1457.632812 1538.957031 1241.167969 C 1538.957031 1024.699219 1538.957031 1024.347656 1535.441406 1019.78125 C 1533.683594 1017.320312 1530.171875 1013.808594 1527.710938 1012.050781 C 1523.496094 1008.886719 1521.035156 1008.535156 1463.753906 1008.183594 C 1417.019531 1008.183594 1403.3125 1008.535156 1399.449219 1010.292969 Z M 1399.449219 1010.292969 " fill-opacity="1" fill-rule="nonzero"/><path fill="#fafafa" d="M 951.757812 1087.601562 C 949.648438 1088.65625 945.78125 1090.765625 944.027344 1092.875 C 935.242188 1101.308594 935.59375 1091.46875 935.59375 1280.875 L 935.59375 1456.578125 L 939.457031 1461.851562 C 941.566406 1464.660156 945.078125 1468.878906 947.539062 1470.636719 C 951.757812 1473.796875 954.214844 1474.148438 1011.144531 1474.5 C 1067.371094 1474.851562 1070.53125 1474.851562 1076.507812 1471.691406 C 1080.019531 1469.933594 1084.589844 1465.714844 1086.695312 1462.203125 L 1090.5625 1455.875 L 1090.5625 1104.46875 L 1086.695312 1098.144531 C 1084.589844 1094.628906 1080.371094 1090.765625 1076.507812 1089.007812 C 1070.53125 1085.84375 1067.019531 1085.84375 1013.253906 1085.84375 C 978.816406 1085.84375 954.214844 1086.546875 951.757812 1087.601562 Z M 951.757812 1087.601562 " fill-opacity="1" fill-rule="nonzero"/><path fill="#fafafa" d="M 1173.144531 1167.019531 C 1169.628906 1169.128906 1165.058594 1173.347656 1163.304688 1176.507812 C 1159.789062 1182.132812 1159.789062 1183.886719 1159.789062 1319.179688 C 1159.789062 1454.472656 1159.789062 1456.226562 1163.304688 1461.851562 C 1165.058594 1465.011719 1169.628906 1469.230469 1173.144531 1471.339844 C 1179.46875 1474.851562 1179.820312 1474.851562 1238.855469 1474.5 C 1296.136719 1474.148438 1298.59375 1473.796875 1302.8125 1470.636719 C 1305.269531 1468.878906 1309.136719 1464.660156 1311.246094 1461.851562 L 1314.757812 1456.578125 L 1314.757812 1182.480469 L 1311.246094 1177.210938 C 1309.136719 1174.398438 1305.269531 1170.183594 1302.8125 1168.425781 C 1298.59375 1165.261719 1296.136719 1164.910156 1238.855469 1164.558594 C 1179.46875 1163.507812 1179.117188 1163.507812 1173.144531 1167.019531 Z M 1173.144531 1167.019531 " fill-opacity="1" fill-rule="nonzero"/><path fill="#fafafa" d="M 725.800781 1243.277344 C 719.125 1246.085938 712.449219 1254.519531 711.394531 1260.847656 C 711.042969 1263.65625 710.691406 1308.988281 711.042969 1362.050781 C 711.394531 1455.875 711.394531 1457.984375 714.910156 1462.203125 C 716.664062 1464.660156 720.179688 1468.175781 722.640625 1469.933594 C 726.855469 1473.09375 728.964844 1473.445312 788.351562 1473.445312 C 847.742188 1473.445312 849.847656 1473.445312 854.066406 1469.933594 C 856.527344 1468.175781 860.039062 1464.660156 861.796875 1462.203125 C 865.3125 1457.984375 865.3125 1456.226562 865.3125 1357.484375 C 865.3125 1258.738281 865.3125 1257.332031 861.796875 1252.761719 C 860.039062 1250.304688 856.527344 1246.789062 854.066406 1245.03125 C 849.847656 1241.871094 847.390625 1241.519531 790.109375 1241.167969 C 743.019531 1241.167969 729.667969 1241.519531 725.800781 1243.277344 Z M 725.800781 1243.277344 " fill-opacity="1" fill-rule="nonzero"/><g clip-path="url(#14fbd28618)"><path fill="#fafafa" d="M 1121.566406 2217.746094 C 1725.601562 2217.746094 2218.246094 1725.101562 2218.246094 1121.066406 C 2218.246094 517.035156 1725.601562 24.371094 1121.566406 24.371094 C 517.515625 24.371094 24.871094 517.035156 24.871094 1121.066406 C 24.871094 1725.101562 517.515625 2217.746094 1121.566406 2217.746094 " fill-opacity="1" fill-rule="evenodd"/></g><path fill="#000000" d="M 631.34375 1396.433594 L 690.347656 1465.304688 L 825.582031 1202.210938 L 844.269531 1165.867188 L 869.335938 1198.375 L 1044.015625 1424.914062 L 1488.238281 778.296875 L 1505.753906 752.792969 L 1528.03125 774.460938 L 1570.53125 815.808594 L 1662.445312 672.765625 L 1706.410156 699.367188 L 1597.199219 869.324219 L 1579.910156 896.253906 L 1556.898438 873.855469 L 1513.632812 831.792969 L 1066.726562 1482.367188 L 1046.472656 1511.84375 L 1024.578125 1483.449219 L 853.089844 1261.023438 L 718.882812 1522.113281 L 701.226562 1556.433594 L 675.933594 1526.921875 L 631.34375 1474.890625 L 631.34375 1396.433594 " fill-opacity="1" fill-rule="nonzero"/><path fill="#000000" d="M 1556.5 1044.960938 L 1273.96875 1467.777344 L 1235.671875 1420.574219 L 915.738281 1026.292969 L 631.34375 1310.667969 L 631.34375 1183.628906 L 922.570312 892.402344 L 953.945312 931.082031 L 1266.980469 1316.824219 L 1542.328125 904.761719 L 1651.34375 1007.242188 L 1596.050781 1084.515625 L 1556.5 1044.960938 " fill-opacity="1" fill-rule="evenodd"/><path fill="#000000" d="M 611.644531 1630.972656 L 1721.3125 1630.972656 L 1721.3125 1720.8125 L 521.804688 1720.8125 L 521.804688 521.304688 L 611.644531 521.304688 L 611.644531 1630.972656 " fill-opacity="1" fill-rule="evenodd"/></svg>