<svg xmlns="http://www.w3.org/2000/svg" xmlns:xlink="http://www.w3.org/1999/xlink" width="3000" zoomAndPan="magnify" viewBox="0 0 2250 2250.000011" height="3000" preserveAspectRatio="xMidYMid meet" version="1.0"><defs><clipPath id="196a9cf517"><path d="M 36.246094 33 L 2214 33 L 2214 2211 L 36.246094 2211 Z M 36.246094 33 " clip-rule="nonzero"/></clipPath></defs><g clip-path="url(#196a9cf517)"><path fill="#cdddec" d="M 2213.15625 1122.402344 C 2213.15625 1140.214844 2212.71875 1158.015625 2211.84375 1175.808594 C 2210.96875 1193.597656 2209.660156 1211.355469 2207.914062 1229.082031 C 2206.167969 1246.808594 2203.988281 1264.484375 2201.375 1282.101562 C 2198.761719 1299.722656 2195.714844 1317.265625 2192.242188 1334.738281 C 2188.765625 1352.207031 2184.863281 1369.582031 2180.535156 1386.859375 C 2176.207031 1404.140625 2171.457031 1421.300781 2166.285156 1438.347656 C 2161.117188 1455.390625 2155.53125 1472.300781 2149.527344 1489.070312 C 2143.527344 1505.84375 2137.117188 1522.457031 2130.300781 1538.914062 C 2123.484375 1555.371094 2116.269531 1571.648438 2108.652344 1587.75 C 2101.035156 1603.851562 2093.027344 1619.757812 2084.632812 1635.46875 C 2076.234375 1651.175781 2067.457031 1666.671875 2058.300781 1681.949219 C 2049.140625 1697.226562 2039.613281 1712.273438 2029.71875 1727.082031 C 2019.820312 1741.894531 2009.566406 1756.453125 1998.957031 1770.757812 C 1988.34375 1785.066406 1977.386719 1799.105469 1966.085938 1812.875 C 1954.785156 1826.640625 1943.15625 1840.125 1931.191406 1853.324219 C 1919.230469 1866.523438 1906.949219 1879.417969 1894.355469 1892.015625 C 1881.757812 1904.609375 1868.859375 1916.886719 1855.660156 1928.851562 C 1842.464844 1940.8125 1828.980469 1952.441406 1815.210938 1963.742188 C 1801.4375 1975.042969 1787.398438 1986 1773.09375 1996.609375 C 1758.785156 2007.21875 1744.226562 2017.472656 1729.414062 2027.371094 C 1714.601562 2037.265625 1699.558594 2046.792969 1684.277344 2055.949219 C 1669 2065.109375 1653.503906 2073.882812 1637.792969 2082.28125 C 1622.085938 2090.679688 1606.179688 2098.683594 1590.074219 2106.300781 C 1573.972656 2113.917969 1557.691406 2121.132812 1541.234375 2127.949219 C 1524.777344 2134.765625 1508.160156 2141.175781 1491.390625 2147.175781 C 1474.617188 2153.175781 1457.707031 2158.761719 1440.660156 2163.933594 C 1423.617188 2169.101562 1406.453125 2173.851562 1389.171875 2178.179688 C 1371.894531 2182.507812 1354.519531 2186.410156 1337.046875 2189.886719 C 1319.574219 2193.359375 1302.03125 2196.402344 1284.410156 2199.019531 C 1266.789062 2201.632812 1249.113281 2203.8125 1231.386719 2205.558594 C 1213.660156 2207.304688 1195.898438 2208.613281 1178.109375 2209.488281 C 1160.316406 2210.359375 1142.511719 2210.796875 1124.699219 2210.796875 C 1106.886719 2210.796875 1089.085938 2210.359375 1071.292969 2209.488281 C 1053.5 2208.613281 1035.742188 2207.304688 1018.011719 2205.558594 C 1000.285156 2203.8125 982.609375 2201.632812 964.992188 2199.019531 C 947.371094 2196.402344 929.824219 2193.359375 912.351562 2189.882812 C 894.882812 2186.410156 877.507812 2182.507812 860.226562 2178.179688 C 842.949219 2173.851562 825.785156 2169.101562 808.738281 2163.933594 C 791.691406 2158.761719 774.78125 2153.175781 758.011719 2147.175781 C 741.238281 2141.171875 724.625 2134.765625 708.167969 2127.949219 C 691.707031 2121.132812 675.429688 2113.914062 659.324219 2106.300781 C 643.222656 2098.683594 627.316406 2090.679688 611.605469 2082.28125 C 595.894531 2073.882812 580.402344 2065.109375 565.121094 2055.949219 C 549.84375 2046.792969 534.796875 2037.265625 519.988281 2027.371094 C 505.175781 2017.472656 490.617188 2007.21875 476.308594 1996.609375 C 462 1986 447.960938 1975.042969 434.191406 1963.742188 C 420.421875 1952.441406 406.9375 1940.8125 393.738281 1928.851562 C 380.539062 1916.886719 367.640625 1904.609375 355.046875 1892.015625 C 342.449219 1879.417969 330.171875 1866.523438 318.207031 1853.324219 C 306.246094 1840.125 294.613281 1826.640625 283.3125 1812.875 C 272.011719 1799.105469 261.054688 1785.066406 250.445312 1770.757812 C 239.832031 1756.453125 229.578125 1741.894531 219.683594 1727.082031 C 209.785156 1712.273438 200.257812 1697.226562 191.101562 1681.949219 C 181.941406 1666.671875 173.164062 1651.175781 164.769531 1635.46875 C 156.371094 1619.757812 148.363281 1603.851562 140.746094 1587.75 C 133.132812 1571.648438 125.914062 1555.371094 119.097656 1538.914062 C 112.28125 1522.457031 105.871094 1505.84375 99.871094 1489.070312 C 93.871094 1472.300781 88.285156 1455.390625 83.113281 1438.347656 C 77.941406 1421.300781 73.191406 1404.140625 68.863281 1386.859375 C 64.535156 1369.582031 60.632812 1352.207031 57.160156 1334.738281 C 53.683594 1317.265625 50.640625 1299.722656 48.027344 1282.101562 C 45.410156 1264.484375 43.230469 1246.808594 41.484375 1229.082031 C 39.738281 1211.355469 38.429688 1193.597656 37.554688 1175.808594 C 36.679688 1158.015625 36.246094 1140.214844 36.246094 1122.402344 C 36.246094 1104.589844 36.679688 1086.789062 37.554688 1068.996094 C 38.429688 1051.207031 39.738281 1033.445312 41.484375 1015.71875 C 43.230469 997.992188 45.410156 980.320312 48.027344 962.699219 C 50.640625 945.082031 53.683594 927.535156 57.160156 910.066406 C 60.632812 892.597656 64.535156 875.222656 68.863281 857.941406 C 73.191406 840.664062 77.941406 823.503906 83.113281 806.457031 C 88.285156 789.410156 93.871094 772.503906 99.871094 755.730469 C 105.871094 738.960938 112.28125 722.347656 119.097656 705.890625 C 125.914062 689.433594 133.132812 673.152344 140.746094 657.050781 C 148.363281 640.949219 156.371094 625.042969 164.769531 609.335938 C 173.164062 593.625 181.941406 578.132812 191.101562 562.855469 C 200.257812 547.574219 209.785156 532.53125 219.683594 517.71875 C 229.578125 502.910156 239.832031 488.351562 250.445312 474.042969 C 261.054688 459.738281 272.011719 445.699219 283.3125 431.929688 C 294.613281 418.160156 306.246094 404.675781 318.207031 391.480469 C 330.171875 378.28125 342.449219 365.382812 355.046875 352.789062 C 367.640625 340.195312 380.539062 327.914062 393.738281 315.953125 C 406.9375 303.992188 420.421875 292.359375 434.191406 281.058594 C 447.960938 269.757812 462 258.804688 476.308594 248.191406 C 490.617188 237.582031 505.175781 227.328125 519.988281 217.433594 C 534.796875 207.535156 549.84375 198.011719 565.121094 188.851562 C 580.402344 179.695312 595.894531 170.917969 611.605469 162.519531 C 627.316406 154.125 643.222656 146.117188 659.324219 138.503906 C 675.429688 130.886719 691.707031 123.671875 708.167969 116.855469 C 724.625 110.039062 741.238281 103.628906 758.011719 97.628906 C 774.78125 91.628906 791.691406 86.042969 808.738281 80.871094 C 825.785156 75.699219 842.949219 70.949219 860.226562 66.621094 C 877.507812 62.292969 894.882812 58.394531 912.351562 54.917969 C 929.824219 51.441406 947.371094 48.398438 964.992188 45.785156 C 982.609375 43.171875 1000.285156 40.992188 1018.011719 39.246094 C 1035.742188 37.5 1053.5 36.191406 1071.292969 35.316406 C 1089.085938 34.441406 1106.886719 34.003906 1124.699219 34.003906 C 1142.53125 33.933594 1160.355469 34.300781 1178.171875 35.109375 C 1195.988281 35.917969 1213.769531 37.164062 1231.523438 38.847656 C 1249.277344 40.535156 1266.976562 42.65625 1284.625 45.214844 C 1302.273438 47.773438 1319.851562 50.765625 1337.351562 54.191406 C 1354.851562 57.617188 1372.257812 61.472656 1389.566406 65.757812 C 1406.878906 70.042969 1424.074219 74.753906 1441.152344 79.886719 C 1458.230469 85.019531 1475.171875 90.570312 1491.972656 96.539062 C 1508.777344 102.511719 1525.425781 108.890625 1541.914062 115.679688 C 1558.402344 122.472656 1574.714844 129.664062 1590.851562 137.261719 C 1606.984375 144.855469 1622.921875 152.847656 1638.660156 161.230469 C 1654.402344 169.609375 1669.925781 178.375 1685.234375 187.523438 C 1700.539062 196.671875 1715.613281 206.191406 1730.449219 216.085938 C 1745.289062 225.976562 1759.871094 236.230469 1774.203125 246.839844 C 1788.535156 257.453125 1802.597656 268.410156 1816.386719 279.71875 C 1830.179688 291.023438 1843.683594 302.660156 1856.898438 314.632812 C 1870.117188 326.605469 1883.027344 338.894531 1895.636719 351.503906 C 1908.25 364.113281 1920.539062 377.027344 1932.511719 390.242188 C 1944.484375 403.457031 1956.125 416.960938 1967.429688 430.75 C 1978.738281 444.542969 1989.695312 458.601562 2000.308594 472.933594 C 2010.921875 487.261719 2021.171875 501.847656 2031.066406 516.683594 C 2040.957031 531.519531 2050.480469 546.59375 2059.628906 561.898438 C 2068.777344 577.207031 2077.542969 592.730469 2085.925781 608.46875 C 2094.308594 624.207031 2102.296875 640.144531 2109.894531 656.277344 C 2117.488281 672.410156 2124.683594 688.722656 2131.476562 705.210938 C 2138.265625 721.699219 2144.648438 738.34375 2150.617188 755.148438 C 2156.585938 771.949219 2162.136719 788.890625 2167.273438 805.96875 C 2172.40625 823.046875 2177.113281 840.238281 2181.398438 857.546875 C 2185.6875 874.859375 2189.542969 892.261719 2192.96875 909.761719 C 2196.394531 927.261719 2199.386719 944.835938 2201.945312 962.484375 C 2204.503906 980.132812 2206.625 997.832031 2208.3125 1015.582031 C 2209.996094 1033.335938 2211.242188 1051.121094 2212.050781 1068.933594 C 2212.859375 1086.746094 2213.226562 1104.570312 2213.15625 1122.402344 Z M 2213.15625 1122.402344 " fill-opacity="1" fill-rule="nonzero"/></g><path fill="#9b59b6" d="M 1936.914062 1846.976562 C 1924.453125 1860.945312 1911.636719 1874.582031 1898.46875 1887.886719 C 1885.300781 1901.191406 1871.800781 1914.148438 1857.964844 1926.757812 C 1844.132812 1939.367188 1829.980469 1951.613281 1815.511719 1963.492188 C 1801.046875 1975.371094 1786.28125 1986.871094 1771.222656 1997.988281 C 1756.164062 2009.105469 1740.824219 2019.828125 1725.210938 2030.15625 C 1709.597656 2040.480469 1693.730469 2050.398438 1677.605469 2059.90625 C 1661.480469 2069.414062 1645.121094 2078.5 1628.527344 2087.164062 C 1611.933594 2095.828125 1595.128906 2104.058594 1578.109375 2111.859375 C 1561.089844 2119.65625 1543.882812 2127.007812 1526.484375 2133.917969 C 1509.089844 2140.828125 1491.523438 2147.285156 1473.792969 2153.289062 C 1456.0625 2159.292969 1438.191406 2164.835938 1420.171875 2169.917969 C 1402.15625 2175 1384.019531 2179.613281 1365.765625 2183.757812 C 1347.511719 2187.90625 1329.164062 2191.578125 1310.71875 2194.777344 C 1292.273438 2197.980469 1273.757812 2200.703125 1255.175781 2202.945312 C 1236.589844 2205.191406 1217.960938 2206.957031 1199.285156 2208.238281 C 1180.609375 2209.523438 1161.914062 2210.324219 1143.195312 2210.644531 C 1124.480469 2210.964844 1105.765625 2210.800781 1087.058594 2210.152344 C 1068.347656 2209.507812 1049.671875 2208.378906 1031.019531 2206.769531 C 1012.371094 2205.164062 993.773438 2203.074219 975.230469 2200.503906 C 956.6875 2197.9375 938.222656 2194.890625 919.839844 2191.371094 C 901.453125 2187.847656 883.171875 2183.855469 864.992188 2179.394531 C 846.8125 2174.929688 828.757812 2170 810.832031 2164.605469 C 792.910156 2159.207031 775.132812 2153.355469 757.511719 2147.042969 C 739.886719 2140.730469 722.4375 2133.96875 705.164062 2126.757812 C 687.890625 2119.542969 670.8125 2111.890625 653.933594 2103.800781 C 637.054688 2095.707031 620.394531 2087.183594 603.953125 2078.230469 C 587.515625 2069.277344 571.316406 2059.910156 555.359375 2050.121094 C 539.402344 2040.332031 523.707031 2030.140625 508.277344 2019.542969 C 492.847656 2008.945312 477.699219 1997.957031 462.835938 1986.578125 C 447.972656 1975.199219 433.410156 1963.445312 419.152344 1951.316406 C 404.898438 1939.1875 390.960938 1926.695312 377.347656 1913.847656 C 363.734375 1901 350.460938 1887.808594 337.527344 1874.273438 C 354.238281 1848.40625 371.960938 1822.128906 391.105469 1796.257812 C 579.949219 1539.789062 957.644531 1477.664062 957.644531 1477.664062 L 969.835938 1475.050781 L 1146.25 1436.546875 L 1148.488281 1436.957031 L 1303.929688 1470.976562 L 1334.894531 1477.699219 C 1334.894531 1477.699219 1712.578125 1539.824219 1901.222656 1796.292969 C 1913.691406 1813.167969 1925.507812 1830.070312 1936.914062 1846.976562 Z M 1936.914062 1846.976562 " fill-opacity="1" fill-rule="nonzero"/><path fill="#2c3e50" d="M 1451.90625 851.269531 C 1669.371094 780.132812 1712.570312 606.753906 1655.996094 555.328125 C 1599.421875 503.90625 1474.984375 555.328125 1474.984375 555.328125 C 1474.984375 555.328125 1543.382812 448.308594 1496.683594 385.539062 C 1449.984375 322.769531 1414.671875 450.84375 1299.664062 461.398438 C 1184.652344 471.949219 1011.578125 409.859375 926.921875 495.851562 C 842.269531 581.84375 878.273438 660.113281 878.273438 660.113281 C 878.273438 660.113281 700.933594 666.921875 739.300781 844.40625 C 777.664062 1021.894531 897.316406 1205.554688 966.003906 1277.46875 C 1034.6875 1349.378906 1216.703125 1077.984375 1216.703125 1077.984375 Z M 1451.90625 851.269531 " fill-opacity="1" fill-rule="nonzero"/><path fill="#ffc4b5" d="M 1188.214844 1641.777344 C 1082.964844 1650.214844 1022.351562 1595.210938 981.6875 1531.195312 C 979.140625 1527.234375 976.960938 1523.085938 975.148438 1518.742188 C 973.335938 1514.398438 971.917969 1509.929688 970.898438 1505.335938 C 969.875 1500.742188 969.261719 1496.09375 969.0625 1491.390625 C 968.863281 1486.6875 969.078125 1482.003906 969.703125 1477.339844 C 977.757812 1412.335938 982.449219 1347.085938 983.777344 1281.59375 C 984.976562 1234.316406 985.152344 1180.085938 983.105469 1119.320312 L 1312.734375 1242.03125 L 1306.472656 1405 L 1303.859375 1477.59375 L 1302.300781 1517.644531 C 1302.300781 1517.644531 1320.421875 1631.117188 1188.214844 1641.777344 Z M 1188.214844 1641.777344 " fill-opacity="1" fill-rule="nonzero"/><path fill="#ff8286" d="M 1303.824219 1477.574219 C 1143.351562 1475.574219 1023.125 1353.550781 983.777344 1281.578125 C 984.976562 1234.296875 985.152344 1180.070312 983.105469 1119.300781 L 1312.734375 1242.011719 L 1306.472656 1404.984375 Z M 1303.824219 1477.574219 " fill-opacity="1" fill-rule="nonzero"/><path fill="#ffc4b5" d="M 1512.914062 717.203125 C 1184.714844 847.8125 1038.660156 832.140625 1038.660156 832.140625 C 1038.660156 832.140625 1048.613281 1025.988281 1020.234375 1033.9375 C 991.855469 1041.886719 1019.40625 958.0625 962.527344 925.542969 C 905.652344 893.019531 816.78125 954.273438 837.015625 1034.730469 C 857.253906 1115.183594 965.304688 1093.214844 965.304688 1093.214844 C 965.304688 1093.214844 1039.511719 1411.628906 1316 1404.261719 C 1592.484375 1396.894531 1552.097656 956.667969 1535.429688 889.292969 C 1518.765625 821.917969 1512.914062 717.203125 1512.914062 717.203125 Z M 1512.914062 717.203125 " fill-opacity="1" fill-rule="nonzero"/></svg>