<svg xmlns="http://www.w3.org/2000/svg" xmlns:xlink="http://www.w3.org/1999/xlink" width="3000" zoomAndPan="magnify" viewBox="0 0 2250 2250.000011" height="3000" preserveAspectRatio="xMidYMid meet" version="1.0"><defs><clipPath id="dfa5981b01"><path d="M 26.925781 37.832031 L 2200.265625 37.832031 L 2200.265625 2211.167969 L 26.925781 2211.167969 Z M 26.925781 37.832031 " clip-rule="nonzero"/></clipPath><clipPath id="8d3046557c"><path d="M 1113.59375 37.832031 C 513.445312 37.832031 26.925781 524.347656 26.925781 1124.5 C 26.925781 1724.652344 513.445312 2211.167969 1113.59375 2211.167969 C 1713.746094 2211.167969 2200.265625 1724.652344 2200.265625 1124.5 C 2200.265625 524.347656 1713.746094 37.832031 1113.59375 37.832031 Z M 1113.59375 37.832031 " clip-rule="nonzero"/></clipPath><clipPath id="9419c9badc"><path d="M 26.925781 407.867188 L 66.660156 407.867188 L 66.660156 447.597656 L 26.925781 447.597656 Z M 26.925781 407.867188 " clip-rule="nonzero"/></clipPath><clipPath id="0712b48a2f"><path d="M 59.921875 71 L 2167.234375 71 L 2167.234375 2178.140625 L 59.921875 2178.140625 Z M 59.921875 71 " clip-rule="nonzero"/></clipPath></defs><g clip-path="url(#dfa5981b01)"><g clip-path="url(#8d3046557c)"><path fill="#000000" d="M 26.925781 37.832031 L 2200.265625 37.832031 L 2200.265625 2211.167969 L 26.925781 2211.167969 Z M 26.925781 37.832031 " fill-opacity="1" fill-rule="nonzero"/></g></g><g clip-path="url(#9419c9badc)"><path fill="#ffffff" d="M 46.914062 447.84375 C 57.953125 447.84375 66.902344 438.894531 66.902344 427.855469 C 66.902344 416.816406 57.953125 407.867188 46.914062 407.867188 C 35.875 407.867188 26.925781 416.816406 26.925781 427.855469 C 26.925781 438.894531 35.875 447.84375 46.914062 447.84375 Z M 50.113281 428.921875 L 39.894531 428.921875 L 41.804688 430.832031 L 40.296875 432.339844 L 36.566406 428.609375 C 36.148438 428.191406 36.148438 427.519531 36.566406 427.101562 L 40.296875 423.371094 L 41.804688 424.878906 L 39.894531 426.789062 L 50.113281 426.789062 Z M 43.71875 418.261719 C 43.128906 418.261719 42.652344 418.738281 42.652344 419.328125 L 42.652344 422.523438 L 44.78125 422.523438 L 44.78125 420.394531 L 55.445312 420.394531 L 55.445312 435.320312 L 44.78125 435.320312 L 44.78125 433.1875 L 42.652344 433.1875 L 42.652344 436.382812 C 42.652344 436.972656 43.128906 437.449219 43.71875 437.449219 L 56.511719 437.449219 C 57.097656 437.449219 57.574219 436.972656 57.574219 436.382812 L 57.574219 419.328125 C 57.574219 418.738281 57.097656 418.261719 56.511719 418.261719 Z M 43.71875 418.261719 " fill-opacity="1" fill-rule="evenodd"/></g><path fill="#ffffff" d="M 1848.210938 390.054688 C 1651.988281 193.828125 1391.089844 85.765625 1113.589844 85.765625 C 836.089844 85.765625 575.195312 193.828125 378.972656 390.054688 C 182.746094 586.277344 74.679688 847.171875 74.679688 1124.671875 C 74.679688 1402.175781 182.746094 1663.070312 378.972656 1859.292969 C 575.195312 2055.519531 836.089844 2163.582031 1113.589844 2163.582031 C 1391.089844 2163.582031 1651.988281 2055.519531 1848.210938 1859.292969 C 2044.433594 1663.070312 2152.5 1402.175781 2152.5 1124.675781 C 2152.5 847.171875 2044.433594 586.277344 1848.210938 390.054688 Z M 1852.175781 1657.378906 C 1767.613281 1629.320312 1681.816406 1606.1875 1595.085938 1587.976562 C 1626.015625 1464.640625 1644.296875 1329.25 1648.558594 1188.613281 L 2022.34375 1188.613281 C 2010.203125 1362.824219 1948.878906 1523.679688 1852.175781 1657.378906 Z M 204.835938 1188.613281 L 578.621094 1188.613281 C 582.878906 1329.210938 601.152344 1464.566406 632.066406 1587.871094 C 545.40625 1606.082031 459.625 1629.261719 374.976562 1657.339844 C 278.292969 1523.648438 216.976562 1362.808594 204.835938 1188.613281 Z M 384.339844 579.214844 C 467.199219 606.320312 551.132812 628.710938 635.902344 646.378906 C 602.648438 773.691406 583.054688 914.382812 578.621094 1060.734375 L 204.835938 1060.734375 C 217.363281 880.957031 282.234375 715.375 384.339844 579.214844 Z M 1049.652344 694.65625 L 1049.652344 1060.734375 L 706.542969 1060.734375 C 711.007812 921.386719 730.03125 788.285156 762.085938 669.085938 C 857.164062 683.507812 953.125 692.046875 1049.652344 694.65625 Z M 801.871094 545.667969 C 812.835938 516.9375 824.664062 489.359375 837.363281 463.128906 C 897.566406 338.785156 972.480469 256.050781 1049.652344 226.128906 L 1049.652344 566.734375 C 966.53125 564.351562 883.863281 557.3125 801.871094 545.667969 Z M 1177.53125 694.570312 C 1274.039062 691.945312 1370.011719 683.417969 1465.070312 669.003906 C 1497.140625 788.222656 1516.171875 921.355469 1520.632812 1060.734375 L 1177.53125 1060.734375 Z M 1177.53125 566.664062 L 1177.53125 226.128906 C 1254.703125 256.050781 1329.617188 338.785156 1389.816406 463.128906 C 1402.503906 489.332031 1414.316406 516.878906 1425.273438 545.574219 C 1343.292969 557.21875 1260.625 564.269531 1177.53125 566.664062 Z M 1504.917969 407.402344 C 1479.242188 354.371094 1451.035156 307.476562 1420.746094 266.980469 C 1545.5 311.792969 1657.714844 383.09375 1750.613281 474.070312 C 1685.546875 493.597656 1619.773438 510.085938 1553.433594 523.523438 C 1538.8125 482.796875 1522.625 443.976562 1504.917969 407.402344 Z M 722.261719 407.402344 C 704.546875 443.996094 688.351562 482.835938 673.722656 523.585938 C 607.414062 510.144531 541.636719 493.667969 476.515625 474.121094 C 569.425781 383.121094 681.660156 311.800781 806.4375 266.980469 C 776.148438 307.476562 747.9375 354.371094 722.261719 407.402344 Z M 706.542969 1188.613281 L 1049.652344 1188.613281 L 1049.652344 1538.789062 C 951.765625 1541.4375 854.449219 1550.1875 758.042969 1564.984375 C 728.417969 1449.738281 710.816406 1322.027344 706.542969 1188.613281 Z M 1049.652344 1666.699219 L 1049.652344 2023.21875 C 972.480469 1993.296875 897.566406 1910.5625 837.363281 1786.21875 C 822.457031 1755.429688 808.75 1722.78125 796.238281 1688.582031 C 880.082031 1676.449219 964.632812 1669.128906 1049.652344 1666.699219 Z M 1177.53125 2023.21875 L 1177.53125 1666.789062 C 1262.527344 1669.234375 1347.074219 1676.570312 1430.898438 1688.691406 C 1418.398438 1722.851562 1404.707031 1755.460938 1389.816406 1786.21875 C 1329.617188 1910.5625 1254.703125 1993.296875 1177.53125 2023.21875 Z M 1177.53125 1538.875 L 1177.53125 1188.613281 L 1520.632812 1188.613281 C 1516.359375 1322.050781 1498.757812 1449.777344 1469.121094 1565.035156 C 1372.742188 1550.246094 1275.40625 1541.539062 1177.53125 1538.875 Z M 1648.558594 1060.734375 C 1644.121094 914.34375 1624.519531 773.613281 1591.25 646.273438 C 1676.085938 628.601562 1760.058594 606.304688 1842.84375 579.21875 C 1944.949219 715.382812 2009.816406 880.960938 2022.34375 1060.734375 Z M 464.3125 1763.054688 C 531.710938 1742.402344 599.820312 1725.003906 668.503906 1710.90625 C 684.472656 1757.085938 702.40625 1800.933594 722.261719 1841.945312 C 747.9375 1894.976562 776.148438 1941.871094 806.4375 1982.367188 C 676.144531 1935.566406 559.527344 1859.878906 464.3125 1763.054688 Z M 1420.746094 1982.367188 C 1451.035156 1941.871094 1479.242188 1894.976562 1504.917969 1841.945312 C 1524.757812 1800.964844 1542.683594 1757.152344 1558.640625 1711.003906 C 1627.375 1725.105469 1695.515625 1742.417969 1762.867188 1763.054688 C 1667.652344 1859.878906 1551.039062 1935.566406 1420.746094 1982.367188 Z M 1420.746094 1982.367188 " fill-opacity="1" fill-rule="nonzero"/><g clip-path="url(#0712b48a2f)"><path fill="#000000" d="M 204.835938 1075.492188 L 578.621094 1075.492188 C 586.597656 1075.492188 593.128906 1069.152344 593.371094 1061.179688 C 597.773438 915.875 616.886719 777.570312 650.179688 650.109375 C 651.199219 646.199219 650.574219 642.039062 648.445312 638.601562 C 646.316406 635.167969 642.871094 632.757812 638.914062 631.933594 C 554.875 614.417969 470.769531 591.960938 388.929688 565.1875 C 382.921875 563.226562 376.328125 565.304688 372.53125 570.359375 C 265.5625 713.011719 202.484375 882.226562 190.113281 1059.707031 C 189.832031 1063.789062 191.253906 1067.808594 194.046875 1070.796875 C 196.835938 1073.792969 200.746094 1075.492188 204.835938 1075.492188 Z M 389.878906 596.527344 C 464.640625 620.613281 541.1875 641.132812 617.789062 657.625 C 587.363281 778.828125 569.40625 909.328125 564.351562 1045.976562 L 220.800781 1045.976562 C 235.007812 883.414062 293.246094 728.566406 389.878906 596.527344 Z M 735.546875 1835.511719 C 716.167969 1795.484375 698.304688 1751.941406 682.453125 1706.082031 C 680.03125 1699.082031 672.8125 1694.972656 665.535156 1696.445312 C 596.703125 1710.582031 527.546875 1728.242188 459.992188 1748.945312 C 455.058594 1750.457031 451.277344 1754.433594 450.011719 1759.433594 C 448.742188 1764.425781 450.175781 1769.726562 453.792969 1773.402344 C 551.242188 1872.5 671.460938 1949.558594 801.449219 1996.257812 C 803.082031 1996.84375 804.765625 1997.125 806.433594 1997.125 C 811.019531 1997.125 815.460938 1994.984375 818.300781 1991.144531 C 822.175781 1985.90625 822.15625 1978.746094 818.253906 1973.527344 C 788.363281 1933.566406 760.539062 1887.132812 735.546875 1835.511719 Z M 492.359375 1770.042969 C 547.300781 1753.878906 603.152344 1739.769531 658.863281 1727.988281 C 674.003906 1770.453125 690.839844 1810.898438 708.980469 1848.375 C 726.820312 1885.21875 746.097656 1919.558594 766.539062 1950.941406 C 665.492188 1908.234375 571.796875 1846.460938 492.359375 1770.042969 Z M 1049.652344 1173.855469 L 706.546875 1173.855469 C 702.550781 1173.855469 698.722656 1175.480469 695.945312 1178.347656 C 693.164062 1181.21875 691.667969 1185.09375 691.796875 1189.085938 C 696.101562 1323.597656 713.582031 1451.304688 743.753906 1568.65625 C 745.449219 1575.257812 751.398438 1579.738281 758.03125 1579.738281 C 758.777344 1579.738281 759.527344 1579.683594 760.28125 1579.570312 C 855.753906 1564.914062 953.246094 1556.160156 1050.050781 1553.542969 C 1058.042969 1553.324219 1064.410156 1546.785156 1064.410156 1538.789062 L 1064.410156 1188.613281 C 1064.410156 1180.464844 1057.800781 1173.855469 1049.652344 1173.855469 Z M 1034.894531 1524.46875 C 946.074219 1527.421875 856.789062 1535.457031 769.082031 1548.394531 C 742.550781 1441.15625 726.675781 1325.222656 721.839844 1203.371094 L 1034.894531 1203.371094 Z M 472.273438 488.253906 C 537.300781 507.773438 604.09375 524.527344 670.792969 538.046875 C 671.777344 538.25 672.761719 538.34375 673.730469 538.34375 C 679.847656 538.34375 685.476562 534.523438 687.613281 528.574219 C 702.105469 488.199219 718.234375 449.59375 735.546875 413.835938 C 760.535156 362.222656 788.359375 315.785156 818.253906 275.820312 C 822.15625 270.601562 822.175781 263.445312 818.300781 258.207031 C 814.429688 252.972656 807.578125 250.890625 801.449219 253.09375 C 677.109375 297.757812 561.175781 370.542969 466.191406 463.578125 C 462.460938 467.230469 460.9375 472.582031 462.1875 477.652344 C 463.4375 482.722656 467.273438 486.753906 472.273438 488.253906 Z M 766.535156 298.414062 C 746.089844 329.796875 726.816406 364.132812 708.980469 400.972656 C 692.945312 434.09375 677.914062 469.5625 664.222656 506.5625 C 610.878906 495.429688 557.550781 482.214844 505.21875 467.171875 C 581.726562 396.414062 670.972656 338.816406 766.535156 298.414062 Z M 644.578125 1595.699219 C 646.703125 1592.296875 647.355469 1588.175781 646.382812 1584.28125 C 615.429688 1460.824219 597.59375 1327.554688 593.371094 1188.164062 C 593.128906 1180.195312 586.597656 1173.855469 578.621094 1173.855469 L 204.835938 1173.855469 C 200.746094 1173.855469 196.835938 1175.558594 194.046875 1178.546875 C 191.253906 1181.539062 189.832031 1185.558594 190.113281 1189.640625 C 202.085938 1361.410156 261.875 1526.128906 363.019531 1665.984375 C 365.847656 1669.902344 370.332031 1672.09375 374.976562 1672.09375 C 376.527344 1672.09375 378.09375 1671.851562 379.621094 1671.347656 C 463.382812 1643.5625 549.339844 1620.332031 635.101562 1602.3125 C 639.027344 1601.488281 642.449219 1599.097656 644.578125 1595.699219 Z M 380.675781 1639.925781 C 289.601562 1510.765625 234.542969 1360.375 220.800781 1203.371094 L 564.351562 1203.371094 C 569.191406 1334.148438 585.910156 1459.5625 614.105469 1576.617188 C 535.746094 1593.625 457.347656 1614.886719 380.675781 1639.925781 Z M 1049.230469 1651.945312 C 964.167969 1654.378906 878.339844 1661.789062 794.125 1673.976562 C 789.726562 1674.613281 785.847656 1677.199219 783.566406 1681.019531 C 781.289062 1684.835938 780.851562 1689.476562 782.378906 1693.652344 C 795.171875 1728.613281 809.203125 1761.917969 824.082031 1792.648438 C 885.171875 1918.828125 963.382812 2005.597656 1044.316406 2036.980469 C 1046.042969 2037.644531 1047.851562 2037.976562 1049.648438 2037.976562 C 1052.585938 2037.976562 1055.5 2037.097656 1057.988281 2035.394531 C 1062.007812 2032.644531 1064.410156 2028.089844 1064.410156 2023.21875 L 1064.410156 1666.695312 C 1064.410156 1662.710938 1062.792969 1658.894531 1059.9375 1656.113281 C 1057.074219 1653.335938 1053.242188 1651.816406 1049.230469 1651.945312 Z M 1034.894531 2000.355469 C 967.984375 1965.667969 903.222656 1888.382812 850.644531 1779.785156 C 838.636719 1754.988281 827.191406 1728.433594 816.519531 1700.636719 C 888.753906 1690.804688 962.050781 1684.527344 1034.894531 1681.9375 Z M 1443.570312 1681.128906 C 1441.292969 1677.3125 1437.414062 1674.726562 1433.011719 1674.089844 C 1348.777344 1661.898438 1262.960938 1654.484375 1177.957031 1652.035156 C 1173.980469 1651.882812 1170.105469 1653.425781 1167.246094 1656.207031 C 1164.386719 1658.980469 1162.773438 1662.800781 1162.773438 1666.789062 L 1162.773438 2023.21875 C 1162.773438 2028.089844 1165.175781 2032.644531 1169.195312 2035.394531 C 1171.683594 2037.097656 1174.597656 2037.976562 1177.53125 2037.976562 C 1179.332031 2037.976562 1181.144531 2037.644531 1182.867188 2036.980469 C 1263.796875 2005.597656 1342.011719 1918.828125 1403.101562 1792.648438 C 1417.972656 1761.9375 1431.988281 1728.667969 1444.761719 1693.765625 C 1446.289062 1689.589844 1445.851562 1684.945312 1443.570312 1681.128906 Z M 1376.535156 1779.785156 C 1323.960938 1888.382812 1259.195312 1965.667969 1192.289062 2000.355469 L 1192.289062 1682.03125 C 1265.082031 1684.632812 1338.371094 1690.917969 1410.621094 1700.75 C 1399.964844 1728.492188 1388.53125 1755.011719 1376.535156 1779.785156 Z M 1767.191406 1748.945312 C 1700.179688 1728.414062 1631.007812 1710.785156 1561.601562 1696.550781 C 1554.359375 1695.078125 1547.113281 1699.179688 1544.691406 1706.183594 C 1528.84375 1752.019531 1510.992188 1795.535156 1491.632812 1835.511719 C 1466.644531 1887.128906 1438.820312 1933.566406 1408.929688 1973.527344 C 1405.027344 1978.746094 1405.007812 1985.90625 1408.878906 1991.144531 C 1411.722656 1994.984375 1416.164062 1997.125 1420.75 1997.125 C 1422.414062 1997.125 1424.101562 1996.84375 1425.738281 1996.257812 C 1555.71875 1949.5625 1675.933594 1872.5 1773.390625 1773.402344 C 1777.007812 1769.726562 1778.441406 1764.425781 1777.171875 1759.429688 C 1775.90625 1754.429688 1772.121094 1750.457031 1767.191406 1748.945312 Z M 1460.644531 1950.941406 C 1481.089844 1919.558594 1500.363281 1885.21875 1518.199219 1848.375 C 1536.320312 1810.941406 1553.144531 1770.535156 1568.28125 1728.085938 C 1624.375 1739.933594 1680.242188 1754.007812 1734.816406 1770.042969 C 1655.375 1846.464844 1561.6875 1908.238281 1460.644531 1950.941406 Z M 2022.34375 1173.855469 L 1648.558594 1173.855469 C 1640.582031 1173.855469 1634.046875 1180.195312 1633.808594 1188.164062 C 1629.578125 1327.609375 1611.738281 1460.914062 1580.773438 1584.382812 C 1579.796875 1588.273438 1580.449219 1592.398438 1582.578125 1595.800781 C 1584.703125 1599.203125 1588.128906 1601.589844 1592.050781 1602.414062 C 1678.125 1620.496094 1764.082031 1643.699219 1847.53125 1671.386719 C 1849.0625 1671.894531 1850.625 1672.136719 1852.175781 1672.136719 C 1856.820312 1672.136719 1861.308594 1669.9375 1864.136719 1666.027344 C 1965.300781 1526.15625 2025.09375 1361.425781 2037.0625 1189.640625 C 2037.347656 1185.558594 2035.925781 1181.539062 2033.136719 1178.546875 C 2030.34375 1175.558594 2026.4375 1173.855469 2022.34375 1173.855469 Z M 1846.480469 1639.964844 C 1770.066406 1615.007812 1691.660156 1593.765625 1613.050781 1576.71875 C 1641.257812 1459.652344 1657.984375 1334.199219 1662.824219 1203.371094 L 2006.378906 1203.371094 C 1992.640625 1360.390625 1937.570312 1510.792969 1846.480469 1639.964844 Z M 1858.648438 379.621094 C 1659.632812 180.605469 1395.035156 71.007812 1113.589844 71.007812 C 832.144531 71.007812 567.546875 180.605469 368.535156 379.621094 C 169.523438 578.632812 59.925781 843.226562 59.925781 1124.671875 C 59.925781 1406.117188 169.523438 1670.71875 368.535156 1869.730469 C 567.550781 2068.738281 832.144531 2178.339844 1113.589844 2178.339844 C 1395.035156 2178.339844 1659.632812 2068.738281 1858.648438 1869.730469 C 2057.65625 1670.714844 2167.257812 1406.117188 2167.257812 1124.671875 C 2167.257812 843.230469 2057.65625 578.632812 1858.648438 379.621094 Z M 1837.777344 1848.859375 C 1644.339844 2042.292969 1387.152344 2148.824219 1113.589844 2148.824219 C 840.03125 2148.824219 582.84375 2042.292969 389.40625 1848.859375 C 195.96875 1655.421875 89.4375 1398.234375 89.4375 1124.671875 C 89.4375 851.113281 195.96875 593.925781 389.40625 400.488281 C 582.84375 207.050781 840.03125 100.519531 1113.589844 100.519531 C 1387.152344 100.519531 1644.339844 207.050781 1837.777344 400.492188 C 2031.191406 593.921875 2137.742188 851.128906 2137.742188 1124.671875 C 2137.742188 1398.234375 2031.210938 1655.421875 1837.777344 1848.859375 Z M 1177.128906 1553.628906 C 1274.1875 1556.269531 1371.671875 1565.015625 1466.886719 1579.625 C 1467.640625 1579.738281 1468.394531 1579.792969 1469.136719 1579.792969 C 1475.769531 1579.792969 1481.71875 1575.3125 1483.414062 1568.707031 C 1513.589844 1451.351562 1531.074219 1323.628906 1535.382812 1189.085938 C 1535.511719 1185.09375 1534.015625 1181.21875 1531.230469 1178.347656 C 1528.453125 1175.480469 1524.628906 1173.855469 1520.632812 1173.855469 L 1177.53125 1173.855469 C 1169.382812 1173.855469 1162.773438 1180.464844 1162.773438 1188.613281 L 1162.773438 1538.875 C 1162.773438 1546.867188 1169.140625 1553.410156 1177.128906 1553.628906 Z M 1192.289062 1203.371094 L 1505.335938 1203.371094 C 1500.5 1325.246094 1484.621094 1441.203125 1458.089844 1548.449219 C 1370.59375 1535.550781 1281.308594 1527.523438 1192.289062 1524.558594 Z M 1177.53125 1075.492188 L 1520.632812 1075.492188 C 1524.628906 1075.492188 1528.453125 1073.871094 1531.230469 1071 C 1534.015625 1068.128906 1535.511719 1064.253906 1535.382812 1060.261719 C 1530.882812 919.65625 1512.019531 786.730469 1479.324219 665.167969 C 1477.375 657.917969 1470.304688 653.28125 1462.859375 654.414062 C 1368.828125 668.671875 1272.695312 677.21875 1177.132812 679.820312 C 1169.140625 680.035156 1162.773438 686.578125 1162.773438 694.570312 L 1162.773438 1060.734375 C 1162.773438 1068.882812 1169.382812 1075.492188 1177.53125 1075.492188 Z M 1192.289062 708.886719 C 1279.890625 705.96875 1367.851562 698.125 1454.175781 685.542969 C 1483.078125 797.042969 1500.269531 918.140625 1505.335938 1045.976562 L 1192.289062 1045.976562 Z M 1057.988281 213.953125 C 1053.972656 211.199219 1048.855469 210.605469 1044.316406 212.371094 C 963.386719 243.746094 885.171875 330.515625 824.082031 456.699219 C 811.394531 482.90625 799.28125 511.070312 788.082031 540.40625 C 786.484375 544.601562 786.878906 549.292969 789.15625 553.160156 C 791.4375 557.027344 795.351562 559.648438 799.792969 560.28125 C 882.074219 571.964844 965.996094 579.101562 1049.226562 581.488281 C 1049.371094 581.492188 1049.507812 581.492188 1049.652344 581.492188 C 1053.488281 581.492188 1057.179688 580 1059.933594 577.320312 C 1062.792969 574.539062 1064.410156 570.722656 1064.410156 566.734375 L 1064.410156 226.128906 C 1064.410156 221.257812 1062.007812 216.703125 1057.988281 213.953125 Z M 1034.894531 551.496094 C 963.984375 548.964844 892.671875 542.960938 822.4375 533.601562 C 831.382812 511.285156 840.839844 489.8125 850.644531 469.5625 C 903.222656 360.960938 967.988281 283.675781 1034.894531 248.992188 Z M 1578.707031 638.496094 C 1576.578125 641.933594 1575.949219 646.089844 1576.96875 650.003906 C 1610.28125 777.5 1629.402344 915.839844 1633.808594 1061.179688 C 1634.046875 1069.152344 1640.582031 1075.492188 1648.558594 1075.492188 L 2022.34375 1075.492188 C 2026.4375 1075.492188 2030.34375 1073.792969 2033.136719 1070.796875 C 2035.925781 1067.808594 2037.347656 1063.789062 2037.0625 1059.707031 C 2024.699219 882.234375 1961.621094 713.023438 1854.648438 570.367188 C 1850.859375 565.304688 1844.246094 563.230469 1838.257812 565.195312 C 1757.019531 591.773438 1672.902344 614.191406 1588.238281 631.824219 C 1584.28125 632.648438 1580.835938 635.058594 1578.707031 638.496094 Z M 1837.304688 596.535156 C 1933.941406 728.578125 1992.175781 883.421875 2006.382812 1045.976562 L 1662.824219 1045.976562 C 1657.773438 909.285156 1639.808594 778.765625 1609.367188 657.519531 C 1686.476562 640.9375 1763.027344 620.457031 1837.304688 596.535156 Z M 1050.050781 679.90625 C 954.578125 677.324219 858.4375 668.773438 764.300781 654.496094 C 756.851562 653.355469 749.785156 658 747.835938 665.253906 C 715.152344 786.796875 696.296875 919.695312 691.796875 1060.261719 C 691.667969 1064.253906 693.164062 1068.128906 695.945312 1071 C 698.722656 1073.871094 702.550781 1075.492188 706.546875 1075.492188 L 1049.652344 1075.492188 C 1057.800781 1075.492188 1064.410156 1068.882812 1064.410156 1060.734375 L 1064.410156 694.65625 C 1064.410156 686.664062 1058.042969 680.121094 1050.050781 679.90625 Z M 1034.894531 1045.976562 L 721.839844 1045.976562 C 726.910156 918.191406 744.097656 797.09375 772.980469 685.625 C 859.398438 698.226562 947.367188 706.070312 1034.894531 708.976562 Z M 1177.53125 581.417969 C 1177.671875 581.417969 1177.816406 581.417969 1177.957031 581.414062 C 1261.101562 579.019531 1345.007812 571.878906 1427.347656 560.1875 C 1431.789062 559.554688 1435.707031 556.9375 1437.988281 553.066406 C 1440.261719 549.199219 1440.660156 544.507812 1439.058594 540.3125 C 1427.886719 511.042969 1415.789062 482.910156 1403.101562 456.699219 C 1342.011719 330.519531 1263.796875 243.746094 1182.867188 212.371094 C 1178.328125 210.609375 1173.210938 211.199219 1169.195312 213.953125 C 1165.175781 216.703125 1162.773438 221.261719 1162.773438 226.128906 L 1162.773438 566.660156 C 1162.773438 570.648438 1164.386719 574.464844 1167.246094 577.246094 C 1170.003906 579.925781 1173.699219 581.417969 1177.53125 581.417969 Z M 1192.289062 248.992188 C 1259.195312 283.675781 1323.960938 360.964844 1376.535156 469.558594 C 1386.335938 489.804688 1395.78125 511.246094 1404.703125 533.507812 C 1334.429688 542.875 1263.136719 548.886719 1192.289062 551.421875 Z M 1491.632812 413.832031 C 1508.941406 449.582031 1525.058594 488.167969 1539.546875 528.511719 C 1541.683594 534.464844 1547.308594 538.285156 1553.425781 538.285156 C 1554.398438 538.285156 1555.382812 538.1875 1556.367188 537.988281 C 1622.945312 524.496094 1689.726562 507.75 1754.851562 488.207031 C 1759.855469 486.707031 1763.6875 482.671875 1764.941406 477.601562 C 1766.1875 472.53125 1764.667969 467.179688 1760.9375 463.527344 C 1665.960938 370.515625 1550.054688 297.75 1425.738281 253.09375 C 1419.597656 250.890625 1412.75 252.972656 1408.878906 258.207031 C 1405.007812 263.445312 1405.027344 270.601562 1408.929688 275.820312 C 1438.824219 315.785156 1466.648438 362.222656 1491.632812 413.832031 Z M 1721.902344 467.121094 C 1669.511719 482.179688 1616.199219 495.390625 1562.9375 506.507812 C 1549.253906 469.527344 1534.230469 434.082031 1518.199219 400.972656 C 1500.363281 364.128906 1481.09375 329.796875 1460.648438 298.414062 C 1556.183594 338.808594 1645.414062 396.386719 1721.902344 467.121094 Z M 1721.902344 467.121094 " fill-opacity="1" fill-rule="nonzero"/></g></svg>