<svg xmlns="http://www.w3.org/2000/svg" xmlns:xlink="http://www.w3.org/1999/xlink" width="3000" zoomAndPan="magnify" viewBox="0 0 2250 2250.000011" height="3000" preserveAspectRatio="xMidYMid meet" version="1.0"><defs><clipPath id="7afa7818a1"><path d="M 107.554688 224.898438 L 2100.667969 224.898438 L 2100.667969 2218.015625 L 107.554688 2218.015625 Z M 107.554688 224.898438 " clip-rule="nonzero"/></clipPath><clipPath id="de3ecc489e"><path d="M 1104.113281 224.898438 C 553.726562 224.898438 107.554688 671.074219 107.554688 1221.457031 C 107.554688 1771.839844 553.726562 2218.015625 1104.113281 2218.015625 C 1654.496094 2218.015625 2100.667969 1771.839844 2100.667969 1221.457031 C 2100.667969 671.074219 1654.496094 224.898438 1104.113281 224.898438 Z M 1104.113281 224.898438 " clip-rule="nonzero"/></clipPath><clipPath id="0acfd8a307"><path d="M 0.5 0 L 2245 0 L 2245 2241 L 0.5 2241 Z M 0.5 0 " clip-rule="nonzero"/></clipPath></defs><g clip-path="url(#7afa7818a1)"><g clip-path="url(#de3ecc489e)"><path fill="#000000" d="M 107.554688 224.898438 L 2100.667969 224.898438 L 2100.667969 2218.015625 L 107.554688 2218.015625 Z M 107.554688 224.898438 " fill-opacity="1" fill-rule="nonzero"/></g></g><g clip-path="url(#0acfd8a307)"><path fill="#9b59b6" d="M 1121.222656 0 C 1102.851562 0.0234375 1084.492188 0.5 1066.140625 1.425781 C 1047.792969 2.347656 1029.476562 3.722656 1011.195312 5.546875 C 992.914062 7.367188 974.6875 9.636719 956.519531 12.351562 C 938.347656 15.066406 920.253906 18.226562 902.238281 21.828125 C 884.222656 25.433594 866.308594 29.472656 848.488281 33.953125 C 830.671875 38.433594 812.976562 43.347656 795.398438 48.699219 C 777.820312 54.046875 760.386719 59.820312 743.09375 66.023438 C 725.800781 72.226562 708.667969 78.847656 691.699219 85.890625 C 674.730469 92.933594 657.945312 100.386719 641.339844 108.25 C 624.738281 116.117188 608.335938 124.382812 592.136719 133.050781 C 575.9375 141.722656 559.960938 150.78125 544.207031 160.234375 C 528.453125 169.683594 512.941406 179.515625 497.667969 189.730469 C 482.394531 199.941406 467.382812 210.523438 452.628906 221.46875 C 437.875 232.417969 423.398438 243.722656 409.195312 255.378906 C 394.996094 267.035156 381.089844 279.035156 367.480469 291.375 C 353.867188 303.710938 340.566406 316.378906 327.574219 329.367188 C 314.582031 342.359375 301.917969 355.660156 289.578125 369.273438 C 277.238281 382.886719 265.242188 396.792969 253.582031 410.992188 C 241.925781 425.191406 230.625 439.667969 219.675781 454.421875 C 208.726562 469.175781 198.148438 484.1875 187.933594 499.460938 C 177.722656 514.734375 167.890625 530.246094 158.4375 546.003906 C 148.988281 561.757812 139.925781 577.734375 131.257812 593.929688 C 122.589844 610.128906 114.320312 626.53125 106.457031 643.136719 C 98.59375 659.738281 91.136719 676.523438 84.097656 693.492188 C 77.054688 710.460938 70.429688 727.59375 64.230469 744.886719 C 58.027344 762.179688 52.25 779.617188 46.902344 797.191406 C 41.554688 814.769531 36.640625 832.464844 32.160156 850.285156 C 27.679688 868.101562 23.636719 886.019531 20.035156 904.035156 C 16.433594 922.050781 13.273438 940.140625 10.558594 958.3125 C 7.84375 976.484375 5.574219 994.707031 3.75 1012.992188 C 1.929688 1031.273438 0.554688 1049.585938 -0.371094 1067.9375 C -1.292969 1086.285156 -1.769531 1104.644531 -1.792969 1123.019531 C 60.175781 2612.804688 2182.496094 2612.371094 2244.246094 1123.007812 C 2244.21875 1104.636719 2243.742188 1086.277344 2242.820312 1067.925781 C 2241.894531 1049.578125 2240.519531 1031.261719 2238.699219 1012.980469 C 2236.875 994.699219 2234.605469 976.472656 2231.890625 958.304688 C 2229.175781 940.132812 2226.015625 922.039062 2222.414062 904.023438 C 2218.808594 886.007812 2214.769531 868.09375 2210.289062 850.277344 C 2205.804688 832.457031 2200.890625 814.761719 2195.542969 797.183594 C 2190.195312 779.609375 2184.421875 762.171875 2178.21875 744.878906 C 2172.015625 727.585938 2165.390625 710.457031 2158.351562 693.488281 C 2151.308594 676.519531 2143.855469 659.730469 2135.988281 643.128906 C 2128.125 626.523438 2119.855469 610.125 2111.1875 593.925781 C 2102.519531 577.726562 2093.457031 561.75 2084.007812 545.996094 C 2074.554688 530.242188 2064.722656 514.730469 2054.511719 499.457031 C 2044.296875 484.183594 2033.71875 469.171875 2022.769531 454.417969 C 2011.820312 439.664062 2000.519531 425.1875 1988.859375 410.988281 C 1977.203125 396.785156 1965.207031 382.882812 1952.867188 369.269531 C 1940.527344 355.65625 1927.863281 342.355469 1914.871094 329.367188 C 1901.878906 316.375 1888.578125 303.710938 1874.964844 291.371094 C 1861.355469 279.03125 1847.449219 267.03125 1833.25 255.375 C 1819.046875 243.71875 1804.570312 232.414062 1789.816406 221.46875 C 1775.0625 210.519531 1760.050781 199.9375 1744.777344 189.726562 C 1729.503906 179.515625 1713.992188 169.683594 1698.238281 160.230469 C 1682.484375 150.78125 1666.507812 141.71875 1650.308594 133.050781 C 1634.109375 124.382812 1617.707031 116.113281 1601.105469 108.25 C 1584.5 100.386719 1567.714844 92.933594 1550.746094 85.890625 C 1533.777344 78.847656 1516.644531 72.226562 1499.351562 66.023438 C 1482.058594 59.820312 1464.625 54.042969 1447.046875 48.695312 C 1429.472656 43.347656 1411.773438 38.433594 1393.957031 33.953125 C 1376.140625 29.472656 1358.222656 25.433594 1340.207031 21.828125 C 1322.191406 18.226562 1304.097656 15.066406 1285.929688 12.351562 C 1267.757812 9.636719 1249.53125 7.367188 1231.25 5.546875 C 1212.96875 3.722656 1194.652344 2.347656 1176.304688 1.425781 C 1157.957031 0.5 1139.597656 0.0234375 1121.222656 0 Z M 1761.542969 1019.78125 C 1760.46875 1021.390625 1759.320312 1022.949219 1758.097656 1024.449219 C 1756.875 1025.949219 1755.578125 1027.386719 1754.214844 1028.757812 C 1752.847656 1030.132812 1751.417969 1031.433594 1749.925781 1032.667969 C 1748.429688 1033.898438 1746.882812 1035.054688 1745.273438 1036.136719 C 1743.667969 1037.214844 1742.011719 1038.214844 1740.304688 1039.132812 C 1738.601562 1040.050781 1736.855469 1040.882812 1735.066406 1041.628906 C 1733.28125 1042.375 1731.460938 1043.03125 1729.609375 1043.597656 C 1727.761719 1044.164062 1725.886719 1044.640625 1723.988281 1045.023438 C 1722.089844 1045.40625 1720.175781 1045.695312 1718.25 1045.890625 C 1716.324219 1046.085938 1714.394531 1046.1875 1712.457031 1046.195312 C 1710.519531 1046.199219 1708.589844 1046.109375 1706.660156 1045.925781 C 1704.734375 1045.742188 1702.820312 1045.464844 1700.917969 1045.09375 C 1699.019531 1044.71875 1697.140625 1044.253906 1695.285156 1043.699219 C 1693.433594 1043.144531 1691.609375 1042.496094 1689.816406 1041.761719 C 1688.027344 1041.027344 1686.277344 1040.203125 1684.566406 1039.296875 C 1682.855469 1038.390625 1681.195312 1037.398438 1679.582031 1036.328125 L 1633.476562 1005.59375 L 1633.476562 1469.773438 C 1633.472656 1473.320312 1633.378906 1476.863281 1633.199219 1480.402344 C 1633.019531 1483.945312 1632.753906 1487.476562 1632.398438 1491.003906 C 1632.046875 1494.53125 1631.609375 1498.050781 1631.082031 1501.554688 C 1630.558594 1505.0625 1629.945312 1508.550781 1629.25 1512.027344 C 1628.554688 1515.503906 1627.773438 1518.960938 1626.90625 1522.398438 C 1626.042969 1525.835938 1625.09375 1529.253906 1624.058594 1532.644531 C 1623.027344 1536.035156 1621.910156 1539.398438 1620.714844 1542.734375 C 1619.515625 1546.070312 1618.238281 1549.378906 1616.878906 1552.652344 C 1615.519531 1555.925781 1614.082031 1559.164062 1612.5625 1562.367188 C 1611.042969 1565.570312 1609.449219 1568.734375 1607.773438 1571.863281 C 1606.101562 1574.988281 1604.351562 1578.070312 1602.527344 1581.109375 C 1600.703125 1584.148438 1598.808594 1587.140625 1596.835938 1590.089844 C 1594.863281 1593.035156 1592.824219 1595.933594 1590.710938 1598.78125 C 1588.597656 1601.625 1586.417969 1604.417969 1584.167969 1607.160156 C 1581.917969 1609.898438 1579.601562 1612.582031 1577.222656 1615.210938 C 1574.839844 1617.835938 1572.394531 1620.402344 1569.890625 1622.910156 C 1567.382812 1625.414062 1564.816406 1627.859375 1562.1875 1630.242188 C 1559.5625 1632.621094 1556.878906 1634.9375 1554.140625 1637.1875 C 1551.398438 1639.4375 1548.605469 1641.617188 1545.757812 1643.730469 C 1542.914062 1645.84375 1540.015625 1647.882812 1537.070312 1649.855469 C 1534.121094 1651.828125 1531.128906 1653.722656 1528.089844 1655.546875 C 1525.050781 1657.371094 1521.96875 1659.121094 1518.839844 1660.792969 C 1515.714844 1662.46875 1512.550781 1664.0625 1509.347656 1665.582031 C 1506.144531 1667.101562 1502.90625 1668.539062 1499.632812 1669.898438 C 1496.359375 1671.257812 1493.050781 1672.535156 1489.714844 1673.734375 C 1486.378906 1674.929688 1483.015625 1676.046875 1479.625 1677.078125 C 1476.230469 1678.113281 1472.816406 1679.0625 1469.378906 1679.925781 C 1465.941406 1680.792969 1462.484375 1681.574219 1459.007812 1682.269531 C 1455.53125 1682.964844 1452.042969 1683.578125 1448.535156 1684.101562 C 1445.03125 1684.628906 1441.511719 1685.066406 1437.984375 1685.417969 C 1434.457031 1685.773438 1430.925781 1686.039062 1427.382812 1686.21875 C 1423.84375 1686.398438 1420.300781 1686.492188 1416.753906 1686.496094 C 1246.449219 1686.464844 995.992188 1686.519531 825.691406 1686.496094 C 822.148438 1686.492188 818.605469 1686.398438 815.0625 1686.21875 C 811.523438 1686.039062 807.988281 1685.773438 804.460938 1685.417969 C 800.933594 1685.066406 797.417969 1684.628906 793.910156 1684.101562 C 790.40625 1683.578125 786.914062 1682.964844 783.4375 1682.269531 C 779.960938 1681.574219 776.503906 1680.792969 773.066406 1679.925781 C 769.628906 1679.0625 766.214844 1678.113281 762.824219 1677.078125 C 759.433594 1676.046875 756.070312 1674.929688 752.730469 1673.734375 C 749.394531 1672.535156 746.089844 1671.257812 742.816406 1669.898438 C 739.542969 1668.539062 736.304688 1667.101562 733.097656 1665.582031 C 729.894531 1664.0625 726.730469 1662.46875 723.605469 1660.792969 C 720.480469 1659.121094 717.398438 1657.371094 714.359375 1655.546875 C 711.316406 1653.722656 708.324219 1651.828125 705.378906 1649.855469 C 702.429688 1647.882812 699.535156 1645.84375 696.6875 1643.730469 C 693.839844 1641.617188 691.046875 1639.4375 688.308594 1637.1875 C 685.566406 1634.9375 682.882812 1632.621094 680.257812 1630.242188 C 677.632812 1627.859375 675.066406 1625.414062 672.558594 1622.910156 C 670.050781 1620.402344 667.609375 1617.835938 665.226562 1615.210938 C 662.84375 1612.582031 660.53125 1609.898438 658.28125 1607.160156 C 656.03125 1604.417969 653.851562 1601.625 651.738281 1598.78125 C 649.625 1595.933594 647.582031 1593.035156 645.613281 1590.089844 C 643.640625 1587.140625 641.742188 1584.148438 639.917969 1581.109375 C 638.09375 1578.070312 636.347656 1574.988281 634.671875 1571.863281 C 633 1568.734375 631.402344 1565.570312 629.886719 1562.367188 C 628.367188 1559.164062 626.929688 1555.925781 625.570312 1552.652344 C 624.210938 1549.378906 622.929688 1546.070312 621.734375 1542.734375 C 620.535156 1539.398438 619.421875 1536.035156 618.386719 1532.644531 C 617.355469 1529.253906 616.40625 1525.835938 615.539062 1522.398438 C 614.675781 1518.960938 613.894531 1515.503906 613.199219 1512.027344 C 612.5 1508.550781 611.890625 1505.0625 611.363281 1501.554688 C 610.839844 1498.050781 610.402344 1494.53125 610.046875 1491.003906 C 609.695312 1487.476562 609.429688 1483.945312 609.25 1480.402344 C 609.070312 1476.863281 608.976562 1473.320312 608.96875 1469.773438 L 608.96875 1005.59375 L 562.867188 1036.328125 C 561.253906 1037.367188 559.59375 1038.324219 557.886719 1039.199219 C 556.179688 1040.074219 554.433594 1040.863281 552.652344 1041.570312 C 550.867188 1042.273438 549.054688 1042.890625 547.210938 1043.421875 C 545.367188 1043.949219 543.5 1044.390625 541.613281 1044.734375 C 539.726562 1045.082031 537.828125 1045.339844 535.917969 1045.5 C 534.007812 1045.664062 532.089844 1045.734375 530.171875 1045.710938 C 528.253906 1045.6875 526.34375 1045.570312 524.4375 1045.359375 C 522.53125 1045.152344 520.636719 1044.851562 518.761719 1044.457031 C 516.882812 1044.0625 515.03125 1043.578125 513.199219 1043.003906 C 511.371094 1042.429688 509.570312 1041.769531 507.804688 1041.019531 C 506.039062 1040.269531 504.3125 1039.4375 502.628906 1038.519531 C 500.945312 1037.601562 499.308594 1036.605469 497.722656 1035.53125 C 496.132812 1034.453125 494.601562 1033.304688 493.125 1032.078125 C 491.648438 1030.851562 490.238281 1029.558594 488.886719 1028.195312 C 487.535156 1026.832031 486.257812 1025.40625 485.046875 1023.921875 C 483.835938 1022.433594 482.699219 1020.890625 481.636719 1019.292969 C 480.574219 1017.695312 479.59375 1016.046875 478.695312 1014.355469 C 477.792969 1012.660156 476.976562 1010.929688 476.246094 1009.15625 C 475.511719 1007.382812 474.867188 1005.578125 474.3125 1003.742188 C 473.753906 1001.90625 473.289062 1000.046875 472.914062 998.167969 C 472.535156 996.285156 472.253906 994.390625 472.0625 992.484375 C 471.871094 990.574219 471.773438 988.660156 471.765625 986.742188 C 471.761719 984.824219 471.851562 982.910156 472.03125 981 C 472.210938 979.09375 472.484375 977.195312 472.851562 975.3125 C 473.214844 973.429688 473.671875 971.570312 474.21875 969.730469 C 474.765625 967.890625 475.402344 966.085938 476.125 964.308594 C 476.847656 962.53125 477.652344 960.792969 478.542969 959.09375 C 479.4375 957.394531 480.410156 955.746094 481.460938 954.140625 C 482.511719 952.539062 483.640625 950.988281 484.84375 949.496094 C 486.046875 948 487.320312 946.570312 488.664062 945.199219 C 490.003906 943.828125 491.410156 942.527344 492.878906 941.292969 C 494.347656 940.058594 495.875 938.902344 497.457031 937.816406 L 1019.167969 589.878906 C 1026.726562 584.90625 1034.609375 580.511719 1042.816406 576.695312 C 1051.023438 572.882812 1059.46875 569.691406 1068.144531 567.121094 C 1076.824219 564.550781 1085.640625 562.632812 1094.601562 561.359375 C 1103.5625 560.089844 1112.566406 559.484375 1121.617188 559.539062 C 1130.617188 559.390625 1139.570312 559.929688 1148.484375 561.15625 C 1157.402344 562.382812 1166.167969 564.28125 1174.792969 566.855469 C 1183.414062 569.429688 1191.792969 572.644531 1199.921875 576.507812 C 1208.050781 580.367188 1215.835938 584.824219 1223.28125 589.878906 L 1744.992188 937.820312 C 1746.605469 938.890625 1748.164062 940.035156 1749.664062 941.261719 C 1751.164062 942.484375 1752.601562 943.777344 1753.976562 945.144531 C 1755.351562 946.507812 1756.65625 947.9375 1757.886719 949.429688 C 1759.121094 950.921875 1760.277344 952.472656 1761.359375 954.078125 C 1762.441406 955.6875 1763.441406 957.34375 1764.359375 959.046875 C 1765.277344 960.753906 1766.109375 962.5 1766.855469 964.285156 C 1767.601562 966.074219 1768.257812 967.890625 1768.828125 969.742188 C 1769.394531 971.59375 1769.871094 973.46875 1770.253906 975.367188 C 1770.636719 977.265625 1770.925781 979.179688 1771.121094 981.105469 C 1771.316406 983.035156 1771.417969 984.964844 1771.421875 986.902344 C 1771.425781 988.839844 1771.335938 990.769531 1771.152344 992.699219 C 1770.96875 994.625 1770.691406 996.539062 1770.316406 998.441406 C 1769.945312 1000.339844 1769.480469 1002.21875 1768.921875 1004.074219 C 1768.363281 1005.929688 1767.71875 1007.75 1766.980469 1009.542969 C 1766.242188 1011.332031 1765.421875 1013.085938 1764.511719 1014.792969 C 1763.605469 1016.503906 1762.613281 1018.167969 1761.542969 1019.78125 Z M 1761.542969 1019.78125 " fill-opacity="1" fill-rule="nonzero"/></g><path fill="#9b59b6" d="M 1047.144531 1406.726562 L 1047.144531 1568.285156 L 1195.304688 1568.285156 L 1195.304688 1406.726562 C 1195.285156 1405.527344 1195.238281 1404.328125 1195.164062 1403.128906 C 1195.085938 1401.929688 1194.980469 1400.734375 1194.847656 1399.542969 C 1194.710938 1398.347656 1194.546875 1397.160156 1194.355469 1395.972656 C 1194.164062 1394.789062 1193.941406 1393.605469 1193.691406 1392.433594 C 1193.445312 1391.257812 1193.164062 1390.089844 1192.859375 1388.929688 C 1192.550781 1387.765625 1192.21875 1386.613281 1191.855469 1385.46875 C 1191.492188 1384.324219 1191.101562 1383.1875 1190.683594 1382.0625 C 1190.265625 1380.9375 1189.824219 1379.820312 1189.351562 1378.71875 C 1188.878906 1377.613281 1188.378906 1376.519531 1187.855469 1375.441406 C 1187.328125 1374.359375 1186.777344 1373.292969 1186.203125 1372.242188 C 1185.625 1371.1875 1185.023438 1370.148438 1184.394531 1369.125 C 1183.765625 1368.101562 1183.117188 1367.09375 1182.4375 1366.101562 C 1181.761719 1365.109375 1181.0625 1364.132812 1180.339844 1363.175781 C 1179.613281 1362.214844 1178.867188 1361.277344 1178.097656 1360.355469 C 1177.328125 1359.433594 1176.535156 1358.53125 1175.722656 1357.644531 C 1174.910156 1356.761719 1174.074219 1355.898438 1173.21875 1355.058594 C 1172.363281 1354.214844 1171.488281 1353.390625 1170.59375 1352.59375 C 1169.699219 1351.792969 1168.78125 1351.015625 1167.851562 1350.257812 C 1166.917969 1349.503906 1165.964844 1348.769531 1164.996094 1348.058594 C 1164.027344 1347.351562 1163.042969 1346.664062 1162.039062 1346.003906 C 1161.039062 1345.339844 1160.019531 1344.703125 1158.984375 1344.09375 C 1157.953125 1343.480469 1156.90625 1342.894531 1155.84375 1342.332031 C 1154.78125 1341.773438 1153.707031 1341.238281 1152.617188 1340.726562 C 1151.53125 1340.21875 1150.433594 1339.738281 1149.320312 1339.28125 C 1148.210938 1338.824219 1147.085938 1338.398438 1145.957031 1337.996094 C 1144.824219 1337.59375 1143.683594 1337.222656 1142.53125 1336.878906 C 1141.382812 1336.53125 1140.222656 1336.214844 1139.058594 1335.925781 C 1137.890625 1335.636719 1136.71875 1335.375 1135.542969 1335.144531 C 1134.363281 1334.910156 1133.179688 1334.707031 1131.992188 1334.535156 C 1130.804688 1334.359375 1129.613281 1334.214844 1128.417969 1334.097656 C 1127.222656 1333.980469 1126.023438 1333.894531 1124.824219 1333.835938 C 1123.625 1333.777344 1122.425781 1333.746094 1121.222656 1333.746094 C 1120.023438 1333.746094 1118.824219 1333.777344 1117.625 1333.835938 C 1116.421875 1333.894531 1115.226562 1333.980469 1114.03125 1334.097656 C 1112.835938 1334.214844 1111.644531 1334.359375 1110.457031 1334.535156 C 1109.265625 1334.707031 1108.085938 1334.910156 1106.90625 1335.144531 C 1105.726562 1335.375 1104.554688 1335.636719 1103.390625 1335.925781 C 1102.222656 1336.214844 1101.066406 1336.53125 1099.914062 1336.878906 C 1098.765625 1337.222656 1097.625 1337.59375 1096.492188 1337.996094 C 1095.359375 1338.398438 1094.238281 1338.824219 1093.128906 1339.28125 C 1092.015625 1339.738281 1090.917969 1340.21875 1089.828125 1340.726562 C 1088.742188 1341.238281 1087.667969 1341.773438 1086.605469 1342.332031 C 1085.542969 1342.894531 1084.496094 1343.480469 1083.460938 1344.09375 C 1082.429688 1344.703125 1081.410156 1345.339844 1080.410156 1346.003906 C 1079.40625 1346.664062 1078.421875 1347.351562 1077.453125 1348.058594 C 1076.484375 1348.769531 1075.53125 1349.503906 1074.597656 1350.257812 C 1073.664062 1351.015625 1072.75 1351.792969 1071.855469 1352.59375 C 1070.960938 1353.390625 1070.082031 1354.214844 1069.226562 1355.058594 C 1068.371094 1355.898438 1067.539062 1356.761719 1066.726562 1357.644531 C 1065.910156 1358.53125 1065.121094 1359.433594 1064.351562 1360.355469 C 1063.582031 1361.277344 1062.832031 1362.214844 1062.109375 1363.175781 C 1061.386719 1364.132812 1060.683594 1365.109375 1060.007812 1366.101562 C 1059.332031 1367.09375 1058.679688 1368.101562 1058.054688 1369.125 C 1057.425781 1370.148438 1056.824219 1371.1875 1056.246094 1372.242188 C 1055.667969 1373.292969 1055.117188 1374.359375 1054.59375 1375.441406 C 1054.066406 1376.519531 1053.570312 1377.613281 1053.097656 1378.71875 C 1052.625 1379.820312 1052.179688 1380.9375 1051.761719 1382.0625 C 1051.34375 1383.1875 1050.953125 1384.324219 1050.59375 1385.46875 C 1050.230469 1386.613281 1049.894531 1387.765625 1049.589844 1388.929688 C 1049.28125 1390.089844 1049.003906 1391.257812 1048.753906 1392.433594 C 1048.503906 1393.605469 1048.285156 1394.789062 1048.089844 1395.972656 C 1047.898438 1397.160156 1047.734375 1398.347656 1047.601562 1399.542969 C 1047.46875 1400.734375 1047.363281 1401.929688 1047.285156 1403.128906 C 1047.210938 1404.328125 1047.160156 1405.527344 1047.144531 1406.726562 Z M 1047.144531 1406.726562 " fill-opacity="1" fill-rule="nonzero"/><path fill="#9b59b6" d="M 1084.972656 688.390625 L 727.183594 926.785156 L 727.183594 1469.773438 C 727.183594 1471.386719 727.222656 1472.996094 727.300781 1474.609375 C 727.382812 1476.21875 727.5 1477.824219 727.660156 1479.429688 C 727.820312 1481.035156 728.015625 1482.632812 728.253906 1484.226562 C 728.488281 1485.820312 728.765625 1487.410156 729.082031 1488.992188 C 729.394531 1490.570312 729.75 1492.144531 730.140625 1493.707031 C 730.535156 1495.273438 730.964844 1496.824219 731.433594 1498.367188 C 731.902344 1499.910156 732.40625 1501.441406 732.949219 1502.957031 C 733.492188 1504.476562 734.074219 1505.976562 734.691406 1507.46875 C 735.308594 1508.957031 735.960938 1510.429688 736.652344 1511.886719 C 737.339844 1513.34375 738.066406 1514.785156 738.824219 1516.207031 C 739.585938 1517.628906 740.378906 1519.027344 741.207031 1520.410156 C 742.035156 1521.792969 742.898438 1523.15625 743.796875 1524.496094 C 744.691406 1525.835938 745.617188 1527.152344 746.578125 1528.449219 C 747.539062 1529.742188 748.53125 1531.011719 749.554688 1532.257812 C 750.578125 1533.503906 751.628906 1534.726562 752.710938 1535.921875 C 753.792969 1537.113281 754.90625 1538.28125 756.046875 1539.421875 C 757.183594 1540.5625 758.351562 1541.671875 759.546875 1542.753906 C 760.742188 1543.839844 761.960938 1544.890625 763.207031 1545.914062 C 764.453125 1546.9375 765.722656 1547.925781 767.019531 1548.886719 C 768.3125 1549.847656 769.632812 1550.777344 770.972656 1551.671875 C 772.3125 1552.566406 773.671875 1553.429688 775.054688 1554.257812 C 776.4375 1555.089844 777.839844 1555.882812 779.261719 1556.644531 C 780.683594 1557.402344 782.125 1558.128906 783.582031 1558.816406 C 785.039062 1559.507812 786.511719 1560.160156 788 1560.777344 C 789.488281 1561.394531 790.992188 1561.972656 792.511719 1562.519531 C 794.027344 1563.0625 795.558594 1563.566406 797.101562 1564.035156 C 798.644531 1564.503906 800.195312 1564.933594 801.761719 1565.324219 C 803.324219 1565.71875 804.894531 1566.070312 806.476562 1566.386719 C 808.058594 1566.703125 809.644531 1566.976562 811.238281 1567.214844 C 812.835938 1567.453125 814.433594 1567.648438 816.039062 1567.808594 C 817.640625 1567.964844 819.25 1568.085938 820.859375 1568.164062 C 822.46875 1568.246094 824.082031 1568.285156 825.691406 1568.285156 L 928.929688 1568.285156 L 928.929688 1406.726562 C 928.933594 1403.582031 929.011719 1400.4375 929.167969 1397.296875 C 929.324219 1394.15625 929.558594 1391.019531 929.871094 1387.890625 C 930.179688 1384.757812 930.566406 1381.636719 931.03125 1378.527344 C 931.492188 1375.414062 932.035156 1372.316406 932.648438 1369.234375 C 933.265625 1366.148438 933.957031 1363.078125 934.722656 1360.027344 C 935.488281 1356.976562 936.328125 1353.949219 937.242188 1350.9375 C 938.15625 1347.929688 939.144531 1344.941406 940.207031 1341.980469 C 941.269531 1339.019531 942.402344 1336.085938 943.605469 1333.183594 C 944.8125 1330.277344 946.089844 1327.402344 947.433594 1324.558594 C 948.78125 1321.714844 950.195312 1318.90625 951.679688 1316.132812 C 953.164062 1313.359375 954.714844 1310.625 956.335938 1307.929688 C 957.953125 1305.230469 959.636719 1302.574219 961.382812 1299.960938 C 963.132812 1297.34375 964.945312 1294.773438 966.820312 1292.25 C 968.695312 1289.722656 970.628906 1287.246094 972.628906 1284.8125 C 974.625 1282.382812 976.679688 1280.003906 978.792969 1277.671875 C 980.90625 1275.34375 983.074219 1273.066406 985.300781 1270.84375 C 987.523438 1268.617188 989.804688 1266.453125 992.132812 1264.339844 C 994.464844 1262.226562 996.847656 1260.175781 999.28125 1258.179688 C 1001.710938 1256.183594 1004.191406 1254.25 1006.71875 1252.378906 C 1009.246094 1250.503906 1011.816406 1248.695312 1014.433594 1246.949219 C 1017.050781 1245.203125 1019.707031 1243.519531 1022.40625 1241.902344 C 1025.101562 1240.285156 1027.839844 1238.738281 1030.613281 1237.253906 C 1033.390625 1235.773438 1036.199219 1234.359375 1039.042969 1233.015625 C 1041.886719 1231.671875 1044.761719 1230.398438 1047.667969 1229.191406 C 1050.574219 1227.988281 1053.507812 1226.859375 1056.46875 1225.800781 C 1059.433594 1224.738281 1062.417969 1223.753906 1065.429688 1222.839844 C 1068.4375 1221.929688 1071.46875 1221.089844 1074.519531 1220.328125 C 1077.570312 1219.5625 1080.640625 1218.875 1083.726562 1218.261719 C 1086.8125 1217.648438 1089.910156 1217.109375 1093.019531 1216.648438 C 1096.132812 1216.1875 1099.253906 1215.800781 1102.382812 1215.492188 C 1105.515625 1215.1875 1108.652344 1214.953125 1111.792969 1214.800781 C 1114.933594 1214.644531 1118.078125 1214.570312 1121.222656 1214.570312 C 1124.371094 1214.570312 1127.511719 1214.644531 1130.65625 1214.800781 C 1133.796875 1214.953125 1136.933594 1215.1875 1140.0625 1215.492188 C 1143.195312 1215.800781 1146.316406 1216.1875 1149.425781 1216.648438 C 1152.539062 1217.109375 1155.636719 1217.648438 1158.722656 1218.261719 C 1161.808594 1218.875 1164.875 1219.5625 1167.925781 1220.328125 C 1170.976562 1221.089844 1174.007812 1221.929688 1177.019531 1222.839844 C 1180.03125 1223.753906 1183.015625 1224.738281 1185.976562 1225.800781 C 1188.941406 1226.859375 1191.875 1227.988281 1194.78125 1229.191406 C 1197.6875 1230.398438 1200.5625 1231.671875 1203.40625 1233.015625 C 1206.25 1234.359375 1209.058594 1235.773438 1211.832031 1237.253906 C 1214.609375 1238.738281 1217.34375 1240.285156 1220.042969 1241.902344 C 1222.742188 1243.519531 1225.398438 1245.203125 1228.015625 1246.949219 C 1230.628906 1248.695312 1233.203125 1250.503906 1235.730469 1252.378906 C 1238.257812 1254.25 1240.734375 1256.183594 1243.167969 1258.179688 C 1245.601562 1260.175781 1247.980469 1262.226562 1250.3125 1264.339844 C 1252.644531 1266.453125 1254.921875 1268.617188 1257.148438 1270.84375 C 1259.371094 1273.066406 1261.542969 1275.34375 1263.65625 1277.671875 C 1265.769531 1280.003906 1267.824219 1282.382812 1269.820312 1284.8125 C 1271.816406 1287.246094 1273.753906 1289.722656 1275.628906 1292.25 C 1277.503906 1294.773438 1279.3125 1297.34375 1281.0625 1299.960938 C 1282.8125 1302.574219 1284.496094 1305.230469 1286.113281 1307.929688 C 1287.730469 1310.625 1289.285156 1313.359375 1290.765625 1316.132812 C 1292.25 1318.90625 1293.667969 1321.714844 1295.011719 1324.558594 C 1296.359375 1327.402344 1297.636719 1330.277344 1298.839844 1333.183594 C 1300.046875 1336.085938 1301.179688 1339.019531 1302.242188 1341.980469 C 1303.300781 1344.941406 1304.289062 1347.929688 1305.203125 1350.9375 C 1306.121094 1353.949219 1306.960938 1356.976562 1307.726562 1360.027344 C 1308.492188 1363.078125 1309.183594 1366.148438 1309.796875 1369.234375 C 1310.414062 1372.316406 1310.953125 1375.414062 1311.417969 1378.527344 C 1311.878906 1381.636719 1312.269531 1384.757812 1312.578125 1387.890625 C 1312.886719 1391.019531 1313.121094 1394.15625 1313.277344 1397.296875 C 1313.433594 1400.4375 1313.515625 1403.582031 1313.515625 1406.726562 L 1313.515625 1568.285156 L 1416.753906 1568.285156 C 1418.367188 1568.285156 1419.976562 1568.246094 1421.589844 1568.164062 C 1423.199219 1568.085938 1424.804688 1567.964844 1426.410156 1567.808594 C 1428.015625 1567.648438 1429.613281 1567.453125 1431.207031 1567.214844 C 1432.800781 1566.976562 1434.390625 1566.703125 1435.972656 1566.386719 C 1437.550781 1566.070312 1439.125 1565.71875 1440.6875 1565.324219 C 1442.25 1564.933594 1443.804688 1564.503906 1445.347656 1564.035156 C 1446.890625 1563.566406 1448.417969 1563.0625 1449.9375 1562.519531 C 1451.453125 1561.972656 1452.957031 1561.394531 1454.449219 1560.777344 C 1455.9375 1560.160156 1457.410156 1559.507812 1458.867188 1558.816406 C 1460.324219 1558.128906 1461.765625 1557.402344 1463.183594 1556.644531 C 1464.605469 1555.882812 1466.007812 1555.089844 1467.390625 1554.257812 C 1468.773438 1553.429688 1470.136719 1552.566406 1471.476562 1551.671875 C 1472.816406 1550.777344 1474.132812 1549.847656 1475.429688 1548.886719 C 1476.722656 1547.929688 1477.992188 1546.9375 1479.238281 1545.914062 C 1480.484375 1544.890625 1481.707031 1543.839844 1482.898438 1542.753906 C 1484.09375 1541.671875 1485.261719 1540.5625 1486.402344 1539.421875 C 1487.542969 1538.28125 1488.652344 1537.113281 1489.734375 1535.921875 C 1490.816406 1534.726562 1491.871094 1533.503906 1492.894531 1532.257812 C 1493.917969 1531.011719 1494.90625 1529.742188 1495.867188 1528.449219 C 1496.828125 1527.152344 1497.757812 1525.835938 1498.652344 1524.496094 C 1499.546875 1523.15625 1500.410156 1521.792969 1501.238281 1520.410156 C 1502.066406 1519.027344 1502.863281 1517.628906 1503.621094 1516.207031 C 1504.382812 1514.785156 1505.109375 1513.34375 1505.796875 1511.886719 C 1506.488281 1510.429688 1507.140625 1508.957031 1507.757812 1507.46875 C 1508.375 1505.976562 1508.953125 1504.476562 1509.496094 1502.957031 C 1510.042969 1501.441406 1510.546875 1499.910156 1511.015625 1498.367188 C 1511.484375 1496.824219 1511.914062 1495.273438 1512.304688 1493.707031 C 1512.699219 1492.144531 1513.050781 1490.570312 1513.367188 1488.992188 C 1513.679688 1487.410156 1513.957031 1485.820312 1514.195312 1484.226562 C 1514.429688 1482.632812 1514.628906 1481.035156 1514.789062 1479.429688 C 1514.945312 1477.824219 1515.066406 1476.21875 1515.144531 1474.609375 C 1515.222656 1472.996094 1515.265625 1471.386719 1515.265625 1469.773438 L 1515.265625 926.785156 L 1157.476562 688.390625 C 1156.128906 687.53125 1154.757812 686.722656 1153.355469 685.960938 C 1151.953125 685.199219 1150.523438 684.488281 1149.074219 683.828125 C 1147.621094 683.167969 1146.144531 682.558594 1144.648438 682.003906 C 1143.152344 681.449219 1141.640625 680.945312 1140.109375 680.5 C 1138.574219 680.050781 1137.03125 679.660156 1135.46875 679.320312 C 1133.910156 678.984375 1132.339844 678.703125 1130.761719 678.476562 C 1129.183594 678.25 1127.597656 678.078125 1126.003906 677.964844 C 1124.414062 677.851562 1122.820312 677.796875 1121.222656 677.796875 C 1119.628906 677.796875 1118.035156 677.851562 1116.441406 677.964844 C 1114.851562 678.078125 1113.265625 678.25 1111.683594 678.476562 C 1110.105469 678.703125 1108.535156 678.984375 1106.976562 679.320312 C 1105.417969 679.660156 1103.871094 680.050781 1102.339844 680.5 C 1100.808594 680.945312 1099.292969 681.449219 1097.796875 682.003906 C 1096.300781 682.558594 1094.828125 683.167969 1093.375 683.828125 C 1091.921875 684.488281 1090.496094 685.199219 1089.09375 685.960938 C 1087.691406 686.722656 1086.316406 687.53125 1084.972656 688.390625 Z M 1084.972656 688.390625 " fill-opacity="1" fill-rule="nonzero"/></svg>