<svg xmlns="http://www.w3.org/2000/svg" xmlns:xlink="http://www.w3.org/1999/xlink" width="3000" zoomAndPan="magnify" viewBox="0 0 2250 2250.000011" height="3000" preserveAspectRatio="xMidYMid meet" version="1.0"><defs><clipPath id="e59ad5c4a0"><path d="M 278.347656 277.847656 L 1965.675781 277.847656 L 1965.675781 1965.175781 L 278.347656 1965.175781 Z M 278.347656 277.847656 " clip-rule="nonzero"/></clipPath><clipPath id="ce2e965ab9"><path d="M 1122.011719 277.847656 C 656.070312 277.847656 278.347656 655.570312 278.347656 1121.511719 C 278.347656 1587.453125 656.070312 1965.175781 1122.011719 1965.175781 C 1587.953125 1965.175781 1965.675781 1587.453125 1965.675781 1121.511719 C 1965.675781 655.570312 1587.953125 277.847656 1122.011719 277.847656 Z M 1122.011719 277.847656 " clip-rule="nonzero"/></clipPath><clipPath id="50d59d0c75"><path d="M 26.925781 407.867188 L 66.660156 407.867188 L 66.660156 447.597656 L 26.925781 447.597656 Z M 26.925781 407.867188 " clip-rule="nonzero"/></clipPath><clipPath id="7a0d430298"><path d="M 26.925781 26.425781 L 2217.453125 26.425781 L 2217.453125 2216.953125 L 26.925781 2216.953125 Z M 26.925781 26.425781 " clip-rule="nonzero"/></clipPath></defs><g clip-path="url(#e59ad5c4a0)"><g clip-path="url(#ce2e965ab9)"><path fill="#000000" d="M 278.347656 277.847656 L 1965.675781 277.847656 L 1965.675781 1965.175781 L 278.347656 1965.175781 Z M 278.347656 277.847656 " fill-opacity="1" fill-rule="nonzero"/></g></g><g clip-path="url(#50d59d0c75)"><path fill="#ffffff" d="M 46.914062 447.84375 C 57.953125 447.84375 66.902344 438.894531 66.902344 427.855469 C 66.902344 416.816406 57.953125 407.867188 46.914062 407.867188 C 35.875 407.867188 26.925781 416.816406 26.925781 427.855469 C 26.925781 438.894531 35.875 447.84375 46.914062 447.84375 Z M 50.113281 428.921875 L 39.894531 428.921875 L 41.804688 430.832031 L 40.296875 432.339844 L 36.566406 428.609375 C 36.148438 428.191406 36.148438 427.519531 36.566406 427.101562 L 40.296875 423.371094 L 41.804688 424.878906 L 39.894531 426.789062 L 50.113281 426.789062 Z M 43.71875 418.261719 C 43.128906 418.261719 42.652344 418.738281 42.652344 419.328125 L 42.652344 422.523438 L 44.78125 422.523438 L 44.78125 420.394531 L 55.445312 420.394531 L 55.445312 435.320312 L 44.78125 435.320312 L 44.78125 433.1875 L 42.652344 433.1875 L 42.652344 436.382812 C 42.652344 436.972656 43.128906 437.449219 43.71875 437.449219 L 56.511719 437.449219 C 57.097656 437.449219 57.574219 436.972656 57.574219 436.382812 L 57.574219 419.328125 C 57.574219 418.738281 57.097656 418.261719 56.511719 418.261719 Z M 43.71875 418.261719 " fill-opacity="1" fill-rule="evenodd"/></g><g clip-path="url(#7a0d430298)"><path fill="#9b59b6" d="M 1122.007812 2216.589844 C 1726.804688 2216.589844 2217.089844 1726.308594 2217.089844 1121.507812 C 2217.089844 516.710938 1726.804688 26.425781 1122.007812 26.425781 C 517.210938 26.425781 26.925781 516.710938 26.925781 1121.507812 C 26.925781 1726.308594 517.210938 2216.589844 1122.007812 2216.589844 Z M 1297.21875 1179.914062 L 737.371094 1179.914062 L 842.082031 1284.625 L 759.484375 1367.222656 L 555.070312 1162.808594 C 532.261719 1140 532.261719 1103.015625 555.070312 1080.207031 L 759.484375 875.792969 L 842.082031 958.390625 L 737.371094 1063.105469 L 1297.21875 1063.105469 Z M 946.792969 595.871094 C 914.539062 595.871094 888.390625 622.019531 888.390625 654.273438 L 888.390625 829.484375 L 1005.199219 829.484375 L 1005.199219 712.675781 L 1589.242188 712.675781 L 1589.242188 1530.339844 L 1005.199219 1530.339844 L 1005.199219 1413.53125 L 888.390625 1413.53125 L 888.390625 1588.742188 C 888.390625 1620.996094 914.539062 1647.148438 946.792969 1647.148438 L 1647.648438 1647.148438 C 1679.902344 1647.148438 1706.050781 1620.996094 1706.050781 1588.742188 L 1706.050781 654.273438 C 1706.050781 622.019531 1679.902344 595.871094 1647.648438 595.871094 Z M 946.792969 595.871094 " fill-opacity="1" fill-rule="evenodd"/></g></svg>