<svg xmlns="http://www.w3.org/2000/svg" xmlns:xlink="http://www.w3.org/1999/xlink" width="3000" zoomAndPan="magnify" viewBox="0 0 2250 2250.000011" height="3000" preserveAspectRatio="xMidYMid meet" version="1.0"><defs><clipPath id="79f4f4d536"><path d="M 296.105469 224.898438 L 2148.375 224.898438 L 2148.375 2077.167969 L 296.105469 2077.167969 Z M 296.105469 224.898438 " clip-rule="nonzero"/></clipPath><clipPath id="4d668a7ebf"><path d="M 1222.242188 224.898438 C 710.75 224.898438 296.105469 639.542969 296.105469 1151.035156 C 296.105469 1662.523438 710.75 2077.167969 1222.242188 2077.167969 C 1733.730469 2077.167969 2148.375 1662.523438 2148.375 1151.035156 C 2148.375 639.542969 1733.730469 224.898438 1222.242188 224.898438 Z M 1222.242188 224.898438 " clip-rule="nonzero"/></clipPath></defs><g clip-path="url(#79f4f4d536)"><g clip-path="url(#4d668a7ebf)"><path fill="#000000" d="M 296.105469 224.898438 L 2148.375 224.898438 L 2148.375 2077.167969 L 296.105469 2077.167969 Z M 296.105469 224.898438 " fill-opacity="1" fill-rule="nonzero"/></g></g><path fill="#9b59b6" d="M 2235.265625 1135.574219 C 2235.265625 1153.746094 2234.820312 1171.902344 2233.929688 1190.050781 C 2233.039062 1208.199219 2231.703125 1226.316406 2229.921875 1244.398438 C 2228.140625 1262.484375 2225.914062 1280.511719 2223.25 1298.484375 C 2220.582031 1316.457031 2217.476562 1334.355469 2213.933594 1352.175781 C 2210.386719 1370 2206.40625 1387.722656 2201.992188 1405.347656 C 2197.578125 1422.972656 2192.734375 1440.480469 2187.457031 1457.867188 C 2182.183594 1475.257812 2176.484375 1492.503906 2170.363281 1509.613281 C 2164.242188 1526.722656 2157.703125 1543.667969 2150.75 1560.457031 C 2143.796875 1577.242188 2136.4375 1593.851562 2128.667969 1610.277344 C 2120.898438 1626.703125 2112.730469 1642.925781 2104.167969 1658.953125 C 2095.601562 1674.976562 2086.648438 1690.78125 2077.304688 1706.367188 C 2067.964844 1721.953125 2058.246094 1737.300781 2048.152344 1752.40625 C 2038.054688 1767.515625 2027.597656 1782.367188 2016.773438 1796.960938 C 2005.949219 1811.554688 1994.773438 1825.875 1983.246094 1839.921875 C 1971.71875 1853.96875 1959.855469 1867.722656 1947.652344 1881.1875 C 1935.449219 1894.648438 1922.921875 1907.804688 1910.074219 1920.65625 C 1897.226562 1933.503906 1884.070312 1946.027344 1870.605469 1958.230469 C 1857.144531 1970.433594 1843.390625 1982.296875 1829.34375 1993.824219 C 1815.296875 2005.351562 1800.976562 2016.527344 1786.382812 2027.351562 C 1771.789062 2038.175781 1756.9375 2048.636719 1741.828125 2058.730469 C 1726.71875 2068.824219 1711.375 2078.542969 1695.789062 2087.886719 C 1680.203125 2097.226562 1664.398438 2106.179688 1648.375 2114.746094 C 1632.347656 2123.3125 1616.121094 2131.476562 1599.695312 2139.246094 C 1583.269531 2147.015625 1566.664062 2154.378906 1549.878906 2161.332031 C 1533.089844 2168.285156 1516.140625 2174.820312 1499.035156 2180.941406 C 1481.925781 2187.0625 1464.675781 2192.761719 1447.289062 2198.039062 C 1429.902344 2203.3125 1412.394531 2208.15625 1394.769531 2212.570312 C 1377.144531 2216.988281 1359.417969 2220.964844 1341.597656 2224.511719 C 1323.777344 2228.054688 1305.878906 2231.160156 1287.90625 2233.828125 C 1269.933594 2236.496094 1251.902344 2238.71875 1233.820312 2240.5 C 1215.738281 2242.28125 1197.621094 2243.617188 1179.472656 2244.507812 C 1161.324219 2245.398438 1143.164062 2245.84375 1124.996094 2245.84375 C 1106.824219 2245.84375 1088.664062 2245.398438 1070.515625 2244.507812 C 1052.367188 2243.617188 1034.253906 2242.28125 1016.167969 2240.5 C 998.085938 2238.71875 980.058594 2236.496094 962.085938 2233.828125 C 944.109375 2231.160156 926.214844 2228.054688 908.390625 2224.511719 C 890.570312 2220.964844 872.847656 2216.988281 855.222656 2212.570312 C 837.59375 2208.15625 820.089844 2203.3125 802.699219 2198.039062 C 785.3125 2192.761719 768.0625 2187.066406 750.957031 2180.941406 C 733.847656 2174.820312 716.898438 2168.285156 700.113281 2161.332031 C 683.324219 2154.378906 666.71875 2147.015625 650.292969 2139.246094 C 633.867188 2131.476562 617.640625 2123.3125 601.617188 2114.746094 C 585.589844 2106.179688 569.785156 2097.226562 554.203125 2087.886719 C 538.617188 2078.542969 523.269531 2068.824219 508.160156 2058.730469 C 493.054688 2048.636719 478.203125 2038.175781 463.605469 2027.351562 C 449.011719 2016.527344 434.691406 2005.351562 420.644531 1993.824219 C 406.601562 1982.296875 392.847656 1970.433594 379.382812 1958.230469 C 365.917969 1946.027344 352.761719 1933.503906 339.914062 1920.65625 C 327.066406 1907.804688 314.539062 1894.648438 302.339844 1881.1875 C 290.136719 1867.722656 278.269531 1853.96875 266.742188 1839.921875 C 255.214844 1825.875 244.039062 1811.554688 233.214844 1796.960938 C 222.394531 1782.367188 211.933594 1767.515625 201.839844 1752.40625 C 191.742188 1737.300781 182.023438 1721.953125 172.683594 1706.367188 C 163.34375 1690.78125 154.390625 1674.976562 145.824219 1658.953125 C 137.257812 1642.925781 129.089844 1626.703125 121.320312 1610.277344 C 113.554688 1593.851562 106.191406 1577.242188 99.238281 1560.457031 C 92.285156 1543.667969 85.746094 1526.722656 79.625 1509.613281 C 73.503906 1492.503906 67.804688 1475.257812 62.53125 1457.867188 C 57.257812 1440.480469 52.414062 1422.972656 47.996094 1405.347656 C 43.582031 1387.722656 39.601562 1370 36.058594 1352.175781 C 32.511719 1334.355469 29.40625 1316.457031 26.742188 1298.484375 C 24.074219 1280.511719 21.851562 1262.484375 20.070312 1244.398438 C 18.289062 1226.316406 16.953125 1208.199219 16.0625 1190.050781 C 15.167969 1171.902344 14.722656 1153.746094 14.722656 1135.574219 C 14.722656 1117.402344 15.167969 1099.246094 16.0625 1081.097656 C 16.953125 1062.949219 18.289062 1044.832031 20.070312 1026.75 C 21.851562 1008.664062 24.074219 990.636719 26.742188 972.664062 C 29.40625 954.691406 32.511719 936.792969 36.058594 918.972656 C 39.601562 901.148438 43.582031 883.425781 47.996094 865.800781 C 52.414062 848.175781 57.257812 830.667969 62.53125 813.28125 C 67.804688 795.890625 73.503906 778.644531 79.625 761.535156 C 85.746094 744.425781 92.285156 727.480469 99.238281 710.691406 C 106.191406 693.90625 113.554688 677.296875 121.320312 660.871094 C 129.089844 644.445312 137.257812 628.222656 145.824219 612.195312 C 154.390625 596.171875 163.34375 580.367188 172.683594 564.78125 C 182.023438 549.195312 191.742188 533.847656 201.839844 518.742188 C 211.933594 503.632812 222.394531 488.78125 233.21875 474.1875 C 244.039062 459.59375 255.214844 445.273438 266.742188 431.226562 C 278.269531 417.179688 290.136719 403.425781 302.339844 389.960938 C 314.539062 376.5 327.066406 363.34375 339.914062 350.492188 C 352.761719 337.644531 365.917969 325.121094 379.382812 312.917969 C 392.847656 300.714844 406.601562 288.851562 420.644531 277.324219 C 434.691406 265.796875 449.011719 254.621094 463.605469 243.796875 C 478.203125 232.972656 493.054688 222.511719 508.160156 212.417969 C 523.269531 202.324219 538.617188 192.605469 554.203125 183.261719 C 569.785156 173.921875 585.59375 164.96875 601.617188 156.402344 C 617.640625 147.835938 633.867188 139.667969 650.292969 131.902344 C 666.71875 124.132812 683.324219 116.769531 700.113281 109.816406 C 716.898438 102.863281 733.847656 96.328125 750.957031 90.203125 C 768.0625 84.082031 785.3125 78.386719 802.699219 73.109375 C 820.089844 67.835938 837.59375 62.992188 855.222656 58.578125 C 872.847656 54.160156 890.570312 50.179688 908.390625 46.636719 C 926.214844 43.089844 944.109375 39.984375 962.085938 37.320312 C 980.058594 34.652344 998.085938 32.429688 1016.167969 30.648438 C 1034.253906 28.867188 1052.367188 27.53125 1070.515625 26.640625 C 1088.664062 25.75 1106.824219 25.304688 1124.996094 25.304688 C 1143.164062 25.304688 1161.324219 25.75 1179.472656 26.640625 C 1197.621094 27.53125 1215.738281 28.867188 1233.820312 30.648438 C 1251.902344 32.429688 1269.933594 34.652344 1287.90625 37.320312 C 1305.878906 39.984375 1323.777344 43.089844 1341.597656 46.636719 C 1359.417969 50.179688 1377.144531 54.160156 1394.769531 58.578125 C 1412.394531 62.992188 1429.902344 67.835938 1447.289062 73.109375 C 1464.679688 78.386719 1481.925781 84.082031 1499.035156 90.203125 C 1516.140625 96.328125 1533.089844 102.863281 1549.878906 109.816406 C 1566.664062 116.769531 1583.269531 124.132812 1599.695312 131.902344 C 1616.121094 139.667969 1632.347656 147.835938 1648.375 156.402344 C 1664.398438 164.96875 1680.203125 173.921875 1695.789062 183.261719 C 1711.375 192.605469 1726.71875 202.324219 1741.828125 212.417969 C 1756.9375 222.511719 1771.789062 232.972656 1786.382812 243.796875 C 1800.976562 254.621094 1815.296875 265.796875 1829.34375 277.324219 C 1843.390625 288.851562 1857.144531 300.714844 1870.609375 312.917969 C 1884.070312 325.121094 1897.226562 337.644531 1910.074219 350.492188 C 1922.921875 363.34375 1935.449219 376.5 1947.652344 389.960938 C 1959.855469 403.425781 1971.71875 417.179688 1983.246094 431.226562 C 1994.773438 445.273438 2005.949219 459.59375 2016.773438 474.1875 C 2027.597656 488.78125 2038.054688 503.632812 2048.152344 518.742188 C 2058.246094 533.847656 2067.964844 549.195312 2077.304688 564.78125 C 2086.648438 580.367188 2095.601562 596.171875 2104.167969 612.195312 C 2112.730469 628.222656 2120.898438 644.445312 2128.667969 660.871094 C 2136.4375 677.296875 2143.796875 693.90625 2150.75 710.691406 C 2157.703125 727.480469 2164.242188 744.425781 2170.363281 761.535156 C 2176.484375 778.644531 2182.183594 795.890625 2187.457031 813.28125 C 2192.734375 830.667969 2197.578125 848.175781 2201.992188 865.800781 C 2206.40625 883.425781 2210.386719 901.148438 2213.933594 918.972656 C 2217.476562 936.792969 2220.582031 954.691406 2223.25 972.664062 C 2225.914062 990.636719 2228.140625 1008.664062 2229.921875 1026.75 C 2231.703125 1044.832031 2233.039062 1062.945312 2233.929688 1081.097656 C 2234.820312 1099.242188 2235.265625 1117.402344 2235.265625 1135.574219 Z M 1736.015625 752.441406 L 1623.125 639.550781 L 1623.125 1635.527344 L 686.046875 1635.527344 C 682.511719 1635.699219 678.984375 1635.570312 675.472656 1635.144531 C 671.957031 1634.714844 668.503906 1633.996094 665.113281 1632.980469 C 661.71875 1631.964844 658.4375 1630.671875 655.265625 1629.097656 C 652.09375 1627.523438 649.078125 1625.691406 646.21875 1623.605469 C 645.378906 1622.933594 644.558594 1622.238281 643.753906 1621.519531 C 642.953125 1620.804688 642.171875 1620.0625 641.414062 1619.300781 C 640.652344 1618.539062 639.917969 1617.757812 639.199219 1616.953125 C 638.484375 1616.148438 637.792969 1615.324219 637.125 1614.480469 C 636.457031 1613.640625 635.8125 1612.777344 635.191406 1611.898438 C 634.570312 1611.019531 633.976562 1610.121094 633.40625 1609.210938 C 632.835938 1608.296875 632.292969 1607.367188 631.777344 1606.425781 C 631.257812 1605.480469 630.769531 1604.523438 630.308594 1603.550781 C 629.84375 1602.578125 629.410156 1601.597656 629.003906 1600.601562 C 628.59375 1599.605469 628.214844 1598.597656 627.867188 1597.578125 C 627.515625 1596.5625 627.195312 1595.535156 626.902344 1594.5 C 626.609375 1593.464844 626.347656 1592.421875 626.113281 1591.371094 C 625.882812 1590.320312 625.679688 1589.261719 625.503906 1588.199219 C 625.332031 1587.140625 625.1875 1586.074219 625.074219 1585.003906 C 624.960938 1583.933594 624.878906 1582.859375 624.828125 1581.785156 C 624.773438 1580.710938 624.753906 1579.636719 624.761719 1578.558594 C 624.769531 1577.484375 624.808594 1576.40625 624.878906 1575.332031 C 624.945312 1574.261719 625.046875 1573.1875 625.175781 1572.121094 C 625.304688 1571.050781 625.464844 1569.988281 625.65625 1568.929688 C 625.84375 1567.871094 626.066406 1566.816406 626.316406 1565.769531 C 626.5625 1564.722656 626.84375 1563.683594 627.152344 1562.652344 C 627.460938 1561.621094 627.796875 1560.601562 628.164062 1559.589844 C 628.527344 1558.578125 628.921875 1557.578125 629.347656 1556.585938 C 629.769531 1555.597656 630.21875 1554.621094 630.695312 1553.65625 C 631.175781 1552.691406 631.679688 1551.742188 632.210938 1550.804688 C 632.742188 1549.871094 633.300781 1548.949219 633.882812 1548.046875 C 634.46875 1547.144531 635.078125 1546.253906 635.710938 1545.386719 C 636.34375 1544.515625 637.003906 1543.664062 637.683594 1542.832031 C 638.367188 1542 639.070312 1541.1875 639.800781 1540.394531 C 640.527344 1539.601562 641.277344 1538.832031 642.046875 1538.082031 C 642.820312 1537.332031 643.613281 1536.605469 644.425781 1535.898438 C 645.238281 1535.191406 646.070312 1534.511719 646.921875 1533.851562 C 651.734375 1531.191406 656.734375 1528.945312 661.917969 1527.113281 C 667.101562 1525.28125 672.402344 1523.886719 677.820312 1522.933594 C 683.234375 1521.976562 688.691406 1521.476562 694.191406 1521.425781 C 699.691406 1521.375 705.15625 1521.777344 710.589844 1522.632812 L 1510.230469 1522.632812 L 1510.230469 527.359375 L 926.835938 527.359375 L 926.835938 936.292969 L 837.503906 870.664062 L 748.3125 936.292969 L 748.3125 527.359375 L 680.71875 527.359375 C 677.949219 527.363281 675.183594 527.441406 672.417969 527.582031 C 669.652344 527.726562 666.890625 527.933594 664.136719 528.210938 C 661.382812 528.488281 658.636719 528.835938 655.898438 529.246094 C 653.160156 529.660156 650.433594 530.136719 647.71875 530.683594 C 645.003906 531.230469 642.304688 531.84375 639.617188 532.519531 C 636.933594 533.199219 634.269531 533.941406 631.621094 534.75 C 628.972656 535.558594 626.34375 536.433594 623.738281 537.371094 C 621.132812 538.308594 618.550781 539.308594 615.996094 540.371094 C 613.441406 541.433594 610.910156 542.5625 608.410156 543.75 C 605.910156 544.9375 603.4375 546.183594 600.996094 547.492188 C 598.558594 548.800781 596.152344 550.171875 593.777344 551.597656 C 591.40625 553.023438 589.066406 554.507812 586.769531 556.050781 C 584.46875 557.589844 582.207031 559.1875 579.984375 560.839844 C 577.761719 562.492188 575.582031 564.195312 573.441406 565.953125 C 571.304688 567.714844 569.210938 569.523438 567.160156 571.386719 C 565.109375 573.246094 563.105469 575.15625 561.152344 577.117188 C 559.195312 579.078125 557.285156 581.082031 555.429688 583.136719 C 553.570312 585.1875 551.765625 587.285156 550.007812 589.425781 C 548.253906 591.570312 546.550781 593.753906 544.902344 595.976562 C 543.253906 598.203125 541.664062 600.464844 540.125 602.769531 C 538.585938 605.070312 537.109375 607.410156 535.683594 609.785156 C 534.261719 612.160156 532.898438 614.570312 531.59375 617.011719 C 530.289062 619.457031 529.042969 621.929688 527.859375 624.429688 C 526.675781 626.933594 525.554688 629.464844 524.496094 632.023438 C 523.4375 634.582031 522.441406 637.164062 521.507812 639.769531 C 520.574219 642.378906 519.707031 645.007812 518.902344 647.65625 C 518.097656 650.304688 517.359375 652.972656 516.683594 655.660156 C 516.011719 658.34375 515.402344 661.046875 514.863281 663.761719 C 514.320312 666.476562 513.847656 669.203125 513.4375 671.941406 C 513.03125 674.679688 512.691406 677.429688 512.417969 680.183594 C 512.144531 682.9375 511.9375 685.699219 511.800781 688.464844 C 511.664062 691.230469 511.59375 693.996094 511.589844 696.765625 L 511.589844 1579.007812 C 511.59375 1581.78125 511.664062 1584.546875 511.800781 1587.316406 C 511.9375 1590.082031 512.144531 1592.84375 512.417969 1595.601562 C 512.691406 1598.359375 513.03125 1601.105469 513.441406 1603.847656 C 513.847656 1606.585938 514.324219 1609.316406 514.863281 1612.03125 C 515.40625 1614.75 516.015625 1617.453125 516.6875 1620.136719 C 517.363281 1622.824219 518.101562 1625.496094 518.910156 1628.144531 C 519.714844 1630.796875 520.582031 1633.425781 521.515625 1636.035156 C 522.453125 1638.640625 523.449219 1641.226562 524.507812 1643.785156 C 525.570312 1646.34375 526.691406 1648.875 527.878906 1651.378906 C 529.0625 1653.882812 530.308594 1656.359375 531.613281 1658.800781 C 532.921875 1661.246094 534.285156 1663.65625 535.710938 1666.03125 C 537.132812 1668.40625 538.617188 1670.746094 540.15625 1673.050781 C 541.691406 1675.355469 543.289062 1677.617188 544.9375 1679.84375 C 546.585938 1682.070312 548.289062 1684.253906 550.046875 1686.394531 C 551.804688 1688.539062 553.613281 1690.636719 555.472656 1692.6875 C 557.332031 1694.742188 559.242188 1696.75 561.199219 1698.707031 C 563.160156 1700.667969 565.164062 1702.578125 567.214844 1704.441406 C 569.265625 1706.300781 571.363281 1708.113281 573.503906 1709.871094 C 575.644531 1711.628906 577.828125 1713.335938 580.050781 1714.988281 C 582.273438 1716.636719 584.539062 1718.234375 586.839844 1719.777344 C 589.144531 1721.316406 591.480469 1722.800781 593.855469 1724.226562 C 596.230469 1725.652344 598.640625 1727.019531 601.082031 1728.328125 C 603.523438 1729.636719 605.996094 1730.882812 608.5 1732.070312 C 611.003906 1733.257812 613.535156 1734.382812 616.09375 1735.445312 C 618.652344 1736.507812 621.234375 1737.507812 623.84375 1738.441406 C 626.449219 1739.378906 629.078125 1740.25 631.730469 1741.058594 C 634.378906 1741.867188 637.046875 1742.609375 639.734375 1743.285156 C 642.421875 1743.960938 645.121094 1744.570312 647.839844 1745.117188 C 650.554688 1745.660156 653.28125 1746.136719 656.023438 1746.546875 C 658.761719 1746.957031 661.511719 1747.300781 664.265625 1747.578125 C 667.023438 1747.851562 669.785156 1748.058594 672.550781 1748.199219 C 675.320312 1748.339844 678.089844 1748.414062 680.859375 1748.417969 L 1736.015625 1748.417969 Z M 1736.015625 752.441406 " fill-opacity="1" fill-rule="nonzero"/></svg>