<svg xmlns="http://www.w3.org/2000/svg" xmlns:xlink="http://www.w3.org/1999/xlink" width="3000" zoomAndPan="magnify" viewBox="0 0 2250 2250.000011" height="3000" preserveAspectRatio="xMidYMid meet" version="1.0"><defs><clipPath id="48c31129a0"><path d="M 328.527344 328.027344 L 1921.472656 328.027344 L 1921.472656 1920.972656 L 328.527344 1920.972656 Z M 328.527344 328.027344 " clip-rule="nonzero"/></clipPath><clipPath id="cccf1caf01"><path d="M 1125 328.027344 C 685.121094 328.027344 328.527344 684.621094 328.527344 1124.5 C 328.527344 1564.378906 685.121094 1920.972656 1125 1920.972656 C 1564.878906 1920.972656 1921.472656 1564.378906 1921.472656 1124.5 C 1921.472656 684.621094 1564.878906 328.027344 1125 328.027344 Z M 1125 328.027344 " clip-rule="nonzero"/></clipPath><clipPath id="7d47e5b4a3"><path d="M 35.949219 35.449219 L 2213.730469 35.449219 L 2213.730469 2213.230469 L 35.949219 2213.230469 Z M 35.949219 35.449219 " clip-rule="nonzero"/></clipPath></defs><g clip-path="url(#48c31129a0)"><g clip-path="url(#cccf1caf01)"><path fill="#000000" d="M 328.527344 328.027344 L 1921.472656 328.027344 L 1921.472656 1920.972656 L 328.527344 1920.972656 Z M 328.527344 328.027344 " fill-opacity="1" fill-rule="nonzero"/></g></g><g clip-path="url(#7d47e5b4a3)"><path fill="#9b59b6" d="M 1124.96875 35.449219 C 523.53125 35.449219 35.957031 523.0625 35.957031 1124.476562 C 35.957031 1725.894531 523.53125 2213.546875 1124.96875 2213.546875 C 1726.40625 2213.546875 2214.039062 1725.921875 2214.039062 1124.476562 C 2214.039062 523.03125 1726.40625 35.449219 1124.96875 35.449219 Z M 1124.992188 1726.75 C 1046.828125 1726.75 983.421875 1663.402344 983.421875 1585.179688 L 1266.539062 1585.179688 C 1266.554688 1663.402344 1203.15625 1726.75 1124.992188 1726.75 Z M 1603.375 1443.226562 L 1603.339844 1443.226562 L 1603.339844 1443.21875 C 1603.339844 1495.566406 1560.914062 1499.015625 1508.605469 1499.015625 L 741.363281 1499.015625 C 689.03125 1499.015625 646.644531 1495.566406 646.644531 1443.21875 L 646.644531 1434.203125 C 646.644531 1396.558594 668.753906 1364.320312 700.515625 1349.03125 L 730.589844 1089.453125 C 730.589844 899.421875 864.976562 740.8125 1043.886719 703.390625 L 1043.886719 602.617188 C 1043.886719 557.824219 1080.210938 521.5 1125.027344 521.5 C 1169.824219 521.5 1206.148438 557.824219 1206.148438 602.621094 L 1206.148438 703.398438 C 1385.054688 740.8125 1519.445312 899.40625 1519.445312 1089.460938 L 1549.515625 1349.074219 C 1581.28125 1364.386719 1603.375 1396.566406 1603.375 1434.210938 Z M 1603.375 1443.226562 " fill-opacity="1" fill-rule="nonzero"/></g></svg>