<svg xmlns="http://www.w3.org/2000/svg" xmlns:xlink="http://www.w3.org/1999/xlink" width="3000" zoomAndPan="magnify" viewBox="0 0 2250 2250.000011" height="3000" preserveAspectRatio="xMidYMid meet" version="1.0"><defs><clipPath id="204e77d698"><path d="M 332.347656 420.472656 L 1733.273438 420.472656 L 1733.273438 1821.398438 L 332.347656 1821.398438 Z M 332.347656 420.472656 " clip-rule="nonzero"/></clipPath><clipPath id="8173396f6d"><path d="M 1032.808594 420.472656 C 645.957031 420.472656 332.347656 734.078125 332.347656 1120.933594 C 332.347656 1507.789062 645.957031 1821.398438 1032.808594 1821.398438 C 1419.664062 1821.398438 1733.273438 1507.789062 1733.273438 1120.933594 C 1733.273438 734.078125 1419.664062 420.472656 1032.808594 420.472656 Z M 1032.808594 420.472656 " clip-rule="nonzero"/></clipPath></defs><g clip-path="url(#204e77d698)"><g clip-path="url(#8173396f6d)"><path fill="#000000" d="M 332.347656 420.472656 L 1733.273438 420.472656 L 1733.273438 1821.398438 L 332.347656 1821.398438 Z M 332.347656 420.472656 " fill-opacity="1" fill-rule="nonzero"/></g></g><path fill="#9b59b6" d="M 2047.511719 1201.664062 C 2047.511719 1754.707031 1599.171875 2203.050781 1046.125 2203.050781 C 493.074219 2203.050781 44.738281 1754.707031 44.738281 1201.664062 C 44.738281 648.613281 493.074219 200.277344 1046.125 200.277344 C 1599.171875 200.277344 2047.511719 648.613281 2047.511719 1201.664062 Z M 1504.007812 939.800781 C 1529.695312 955.574219 1546.367188 983.960938 1546.367188 1016.40625 L 1546.816406 1467.03125 C 1546.816406 1516.597656 1506.261719 1557.15625 1456.695312 1557.15625 L 735.695312 1557.15625 C 686.128906 1557.15625 645.570312 1516.597656 645.570312 1467.03125 L 645.570312 1016.40625 C 645.570312 983.960938 662.695312 955.574219 688.378906 939.800781 L 1096.195312 700.96875 Z M 1456.242188 1016.859375 L 1456.242188 1016.40625 L 1096.195312 805.515625 L 735.695312 1016.40625 L 1096.195312 1241.71875 Z M 735.695312 1467.03125 L 735.695312 1121.851562 L 1096.195312 1348.066406 L 1456.242188 1123.203125 L 1456.695312 1467.03125 Z M 735.695312 1467.03125 " fill-opacity="1" fill-rule="evenodd"/></svg>