<svg xmlns="http://www.w3.org/2000/svg" xmlns:xlink="http://www.w3.org/1999/xlink" width="3000" zoomAndPan="magnify" viewBox="0 0 2250 2250.000011" height="3000" preserveAspectRatio="xMidYMid meet" version="1.0"><defs><clipPath id="5253b51bd2"><path d="M 435.742188 282.613281 L 2090.230469 282.613281 L 2090.230469 1937.101562 L 435.742188 1937.101562 Z M 435.742188 282.613281 " clip-rule="nonzero"/></clipPath><clipPath id="20e4c4945b"><path d="M 1262.988281 282.613281 C 806.113281 282.613281 435.742188 652.980469 435.742188 1109.855469 C 435.742188 1566.730469 806.113281 1937.101562 1262.988281 1937.101562 C 1719.859375 1937.101562 2090.230469 1566.730469 2090.230469 1109.855469 C 2090.230469 652.980469 1719.859375 282.613281 1262.988281 282.613281 Z M 1262.988281 282.613281 " clip-rule="nonzero"/></clipPath></defs><g clip-path="url(#5253b51bd2)"><g clip-path="url(#20e4c4945b)"><path fill="#000000" d="M 435.742188 282.613281 L 2090.230469 282.613281 L 2090.230469 1937.101562 L 435.742188 1937.101562 Z M 435.742188 282.613281 " fill-opacity="1" fill-rule="nonzero"/></g></g><path fill="#9b59b6" d="M 2190.671875 1124.496094 C 2190.671875 1713.046875 1713.546875 2190.171875 1124.996094 2190.171875 C 536.441406 2190.171875 59.324219 1713.046875 59.324219 1124.496094 C 59.324219 535.941406 536.441406 58.824219 1124.996094 58.824219 C 1713.546875 58.824219 2190.671875 535.941406 2190.671875 1124.496094 Z M 1532.125 1193.125 C 1534.3125 1175.597656 1535.953125 1158.066406 1535.953125 1139.449219 C 1535.953125 1120.820312 1534.3125 1103.289062 1532.125 1085.757812 L 1647.699219 995.378906 C 1658.109375 987.164062 1660.847656 972.371094 1654.273438 960.320312 L 1544.722656 770.785156 C 1539.789062 762.019531 1530.476562 757.089844 1520.617188 757.089844 C 1517.335938 757.089844 1514.042969 757.640625 1511.304688 758.734375 L 1374.90625 813.511719 C 1346.421875 791.601562 1315.742188 773.523438 1282.332031 759.828125 L 1261.519531 614.667969 C 1259.867188 601.519531 1248.371094 591.660156 1234.675781 591.660156 L 1015.5625 591.660156 C 1001.867188 591.660156 990.359375 601.519531 988.71875 614.667969 L 967.90625 759.828125 C 934.484375 773.523438 903.8125 792.148438 875.328125 813.511719 L 738.929688 758.734375 C 735.644531 757.640625 732.355469 757.089844 729.070312 757.089844 C 719.757812 757.089844 710.445312 762.019531 705.515625 770.785156 L 595.957031 960.320312 C 588.835938 972.371094 592.125 987.164062 602.53125 995.378906 L 718.113281 1085.757812 C 715.921875 1103.289062 714.28125 1121.363281 714.28125 1139.449219 C 714.28125 1157.523438 715.921875 1175.597656 718.113281 1193.125 L 602.53125 1283.515625 C 592.125 1291.734375 589.382812 1306.515625 595.957031 1318.566406 L 705.515625 1508.109375 C 710.445312 1516.867188 719.757812 1521.800781 729.617188 1521.800781 C 732.902344 1521.800781 736.191406 1521.246094 738.929688 1520.160156 L 875.328125 1465.375 C 903.8125 1487.285156 934.484375 1505.367188 967.90625 1519.0625 L 988.71875 1664.21875 C 990.359375 1677.367188 1001.867188 1687.226562 1015.5625 1687.226562 L 1234.675781 1687.226562 C 1248.371094 1687.226562 1259.867188 1677.367188 1261.519531 1664.21875 L 1282.332031 1519.0625 C 1315.742188 1505.367188 1346.421875 1486.742188 1374.90625 1465.375 L 1511.304688 1520.160156 C 1514.597656 1521.246094 1517.878906 1521.800781 1521.160156 1521.800781 C 1530.476562 1521.800781 1539.789062 1516.867188 1544.722656 1508.109375 L 1654.273438 1318.566406 C 1660.847656 1306.515625 1658.109375 1291.734375 1647.699219 1283.515625 Z M 1423.664062 1099.453125 C 1425.847656 1116.441406 1426.402344 1127.9375 1426.402344 1139.449219 C 1426.402344 1150.945312 1425.304688 1163 1423.664062 1179.433594 L 1415.988281 1241.335938 L 1464.742188 1279.679688 L 1523.898438 1325.695312 L 1485.558594 1391.96875 L 1415.988281 1364.039062 L 1359.019531 1341.03125 L 1309.71875 1378.277344 C 1286.167969 1395.808594 1263.703125 1408.957031 1241.25 1418.269531 L 1183.183594 1441.824219 L 1174.410156 1503.71875 L 1163.457031 1577.675781 L 1086.769531 1577.675781 L 1067.597656 1441.824219 L 1009.53125 1418.269531 C 985.980469 1408.402344 964.070312 1395.808594 942.160156 1379.375 L 892.308594 1341.03125 L 834.242188 1364.582031 L 764.671875 1392.523438 L 726.328125 1326.238281 L 785.488281 1280.222656 L 834.242188 1241.878906 L 826.574219 1179.988281 C 824.929688 1163 823.832031 1150.402344 823.832031 1139.449219 C 823.832031 1128.492188 824.929688 1115.886719 826.574219 1099.453125 L 834.242188 1037.558594 L 785.488281 999.214844 L 726.328125 953.199219 L 764.671875 886.917969 L 834.242188 914.859375 L 891.210938 937.867188 L 940.507812 900.613281 C 964.070312 883.082031 986.523438 869.933594 1008.988281 860.625 L 1067.046875 837.070312 L 1075.816406 775.167969 L 1086.769531 701.21875 L 1162.914062 701.21875 L 1182.085938 837.070312 L 1240.152344 860.625 C 1263.703125 870.484375 1285.613281 883.082031 1307.523438 899.515625 L 1357.378906 937.867188 L 1415.445312 914.304688 L 1485.011719 886.367188 L 1523.355469 952.644531 L 1464.742188 999.214844 L 1415.988281 1037.558594 Z M 906 1139.449219 C 906 1018.386719 1004.054688 920.335938 1125.113281 920.335938 C 1246.175781 920.335938 1344.226562 1018.386719 1344.226562 1139.449219 C 1344.226562 1260.507812 1246.175781 1358.5625 1125.113281 1358.5625 C 1004.054688 1358.5625 906 1260.507812 906 1139.449219 Z M 1125.113281 1249 C 1064.859375 1249 1015.5625 1199.703125 1015.5625 1139.449219 C 1015.5625 1079.183594 1064.859375 1029.886719 1125.113281 1029.886719 C 1185.378906 1029.886719 1234.675781 1079.183594 1234.675781 1139.449219 C 1234.675781 1199.703125 1185.378906 1249 1125.113281 1249 Z M 1125.113281 1249 " fill-opacity="1" fill-rule="evenodd"/></svg>