<svg xmlns="http://www.w3.org/2000/svg" xmlns:xlink="http://www.w3.org/1999/xlink" width="3000" zoomAndPan="magnify" viewBox="0 0 2250 2250.000011" height="3000" preserveAspectRatio="xMidYMid meet" version="1.0"><defs><clipPath id="a7eea5b40a"><path d="M 26.925781 407.867188 L 66.660156 407.867188 L 66.660156 447.597656 L 26.925781 447.597656 Z M 26.925781 407.867188 " clip-rule="nonzero"/></clipPath><clipPath id="fa26f8d962"><path d="M 26.925781 27.078125 L 2222.699219 27.078125 L 2222.699219 2222.855469 L 26.925781 2222.855469 Z M 26.925781 27.078125 " clip-rule="nonzero"/></clipPath></defs><g clip-path="url(#a7eea5b40a)"><path fill="#ffffff" d="M 46.914062 447.84375 C 57.953125 447.84375 66.902344 438.894531 66.902344 427.855469 C 66.902344 416.816406 57.953125 407.867188 46.914062 407.867188 C 35.875 407.867188 26.925781 416.816406 26.925781 427.855469 C 26.925781 438.894531 35.875 447.84375 46.914062 447.84375 Z M 50.113281 428.921875 L 39.894531 428.921875 L 41.804688 430.832031 L 40.296875 432.339844 L 36.566406 428.609375 C 36.148438 428.191406 36.148438 427.519531 36.566406 427.101562 L 40.296875 423.371094 L 41.804688 424.878906 L 39.894531 426.789062 L 50.113281 426.789062 Z M 43.71875 418.261719 C 43.128906 418.261719 42.652344 418.738281 42.652344 419.328125 L 42.652344 422.523438 L 44.78125 422.523438 L 44.78125 420.394531 L 55.445312 420.394531 L 55.445312 435.320312 L 44.78125 435.320312 L 44.78125 433.1875 L 42.652344 433.1875 L 42.652344 436.382812 C 42.652344 436.972656 43.128906 437.449219 43.71875 437.449219 L 56.511719 437.449219 C 57.097656 437.449219 57.574219 436.972656 57.574219 436.382812 L 57.574219 419.328125 C 57.574219 418.738281 57.097656 418.261719 56.511719 418.261719 Z M 43.71875 418.261719 " fill-opacity="1" fill-rule="evenodd"/></g><g clip-path="url(#fa26f8d962)"><path fill="#000000" d="M 1124.8125 2222.855469 C 1731.160156 2222.855469 2222.699219 1731.316406 2222.699219 1124.964844 C 2222.699219 518.621094 1731.160156 27.078125 1124.8125 27.078125 C 518.464844 27.078125 26.925781 518.621094 26.925781 1124.964844 C 26.925781 1731.316406 518.464844 2222.855469 1124.8125 2222.855469 Z M 592.484375 1124.964844 C 592.484375 801.582031 854.636719 539.425781 1178.023438 539.425781 C 1242.636719 539.425781 1304.902344 549.910156 1363.164062 569.3125 C 1382.289062 575.683594 1396.175781 592.308594 1399.035156 612.261719 C 1401.898438 632.214844 1393.238281 652.074219 1376.675781 663.558594 C 1272.609375 735.730469 1204.636719 855.875 1204.636719 991.886719 C 1204.636719 1212.375 1383.417969 1391.125 1603.910156 1391.125 C 1624.082031 1391.125 1642.519531 1402.519531 1651.527344 1420.5625 C 1660.546875 1438.605469 1658.582031 1460.195312 1646.46875 1476.320312 C 1539.734375 1618.421875 1369.628906 1710.507812 1178.023438 1710.507812 C 854.636719 1710.507812 592.484375 1448.351562 592.484375 1124.964844 Z M 592.484375 1124.964844 " fill-opacity="1" fill-rule="evenodd"/></g></svg>