<svg xmlns="http://www.w3.org/2000/svg" xmlns:xlink="http://www.w3.org/1999/xlink" width="3000" zoomAndPan="magnify" viewBox="0 0 2250 2250.000011" height="3000" preserveAspectRatio="xMidYMid meet" version="1.0"><defs><clipPath id="35ade4c2ce"><path d="M 26.925781 407.867188 L 66.660156 407.867188 L 66.660156 447.597656 L 26.925781 447.597656 Z M 26.925781 407.867188 " clip-rule="nonzero"/></clipPath><clipPath id="82670b4e99"><path d="M 66.910156 71 L 2174.222656 71 L 2174.222656 2178.140625 L 66.910156 2178.140625 Z M 66.910156 71 " clip-rule="nonzero"/></clipPath></defs><g clip-path="url(#35ade4c2ce)"><path fill="#ffffff" d="M 46.914062 447.84375 C 57.953125 447.84375 66.902344 438.894531 66.902344 427.855469 C 66.902344 416.816406 57.953125 407.867188 46.914062 407.867188 C 35.875 407.867188 26.925781 416.816406 26.925781 427.855469 C 26.925781 438.894531 35.875 447.84375 46.914062 447.84375 Z M 50.113281 428.921875 L 39.894531 428.921875 L 41.804688 430.832031 L 40.296875 432.339844 L 36.566406 428.609375 C 36.148438 428.191406 36.148438 427.519531 36.566406 427.101562 L 40.296875 423.371094 L 41.804688 424.878906 L 39.894531 426.789062 L 50.113281 426.789062 Z M 43.71875 418.261719 C 43.128906 418.261719 42.652344 418.738281 42.652344 419.328125 L 42.652344 422.523438 L 44.78125 422.523438 L 44.78125 420.394531 L 55.445312 420.394531 L 55.445312 435.320312 L 44.78125 435.320312 L 44.78125 433.1875 L 42.652344 433.1875 L 42.652344 436.382812 C 42.652344 436.972656 43.128906 437.449219 43.71875 437.449219 L 56.511719 437.449219 C 57.097656 437.449219 57.574219 436.972656 57.574219 436.382812 L 57.574219 419.328125 C 57.574219 418.738281 57.097656 418.261719 56.511719 418.261719 Z M 43.71875 418.261719 " fill-opacity="1" fill-rule="evenodd"/></g><path fill="#000000" d="M 1855.199219 390.054688 C 1658.976562 193.828125 1398.078125 85.765625 1120.578125 85.765625 C 843.078125 85.765625 582.183594 193.828125 385.960938 390.054688 C 189.734375 586.277344 81.667969 847.171875 81.667969 1124.671875 C 81.667969 1402.175781 189.734375 1663.070312 385.960938 1859.292969 C 582.183594 2055.519531 843.078125 2163.582031 1120.578125 2163.582031 C 1398.078125 2163.582031 1658.976562 2055.519531 1855.199219 1859.292969 C 2051.421875 1663.070312 2159.488281 1402.175781 2159.488281 1124.675781 C 2159.488281 847.171875 2051.421875 586.277344 1855.199219 390.054688 Z M 1859.164062 1657.378906 C 1774.601562 1629.320312 1688.804688 1606.1875 1602.074219 1587.976562 C 1633.003906 1464.640625 1651.285156 1329.25 1655.546875 1188.613281 L 2029.332031 1188.613281 C 2017.191406 1362.824219 1955.867188 1523.679688 1859.164062 1657.378906 Z M 211.824219 1188.613281 L 585.609375 1188.613281 C 589.867188 1329.210938 608.140625 1464.566406 639.054688 1587.871094 C 552.394531 1606.082031 466.613281 1629.261719 381.964844 1657.339844 C 285.28125 1523.648438 223.964844 1362.808594 211.824219 1188.613281 Z M 391.328125 579.214844 C 474.1875 606.320312 558.121094 628.710938 642.890625 646.378906 C 609.636719 773.691406 590.042969 914.382812 585.609375 1060.734375 L 211.824219 1060.734375 C 224.351562 880.957031 289.222656 715.375 391.328125 579.214844 Z M 1056.640625 694.65625 L 1056.640625 1060.734375 L 713.53125 1060.734375 C 717.996094 921.386719 737.019531 788.285156 769.074219 669.085938 C 864.152344 683.507812 960.113281 692.046875 1056.640625 694.65625 Z M 808.859375 545.667969 C 819.824219 516.9375 831.652344 489.359375 844.351562 463.128906 C 904.554688 338.785156 979.46875 256.050781 1056.640625 226.128906 L 1056.640625 566.734375 C 973.519531 564.351562 890.851562 557.3125 808.859375 545.667969 Z M 1184.519531 694.570312 C 1281.027344 691.945312 1377 683.417969 1472.058594 669.003906 C 1504.128906 788.222656 1523.160156 921.355469 1527.621094 1060.734375 L 1184.519531 1060.734375 Z M 1184.519531 566.664062 L 1184.519531 226.128906 C 1261.691406 256.050781 1336.605469 338.785156 1396.804688 463.128906 C 1409.492188 489.332031 1421.304688 516.878906 1432.261719 545.574219 C 1350.28125 557.21875 1267.613281 564.269531 1184.519531 566.664062 Z M 1511.90625 407.402344 C 1486.230469 354.371094 1458.023438 307.476562 1427.734375 266.980469 C 1552.488281 311.792969 1664.703125 383.09375 1757.601562 474.070312 C 1692.535156 493.597656 1626.761719 510.085938 1560.421875 523.523438 C 1545.800781 482.796875 1529.613281 443.976562 1511.90625 407.402344 Z M 729.25 407.402344 C 711.535156 443.996094 695.339844 482.835938 680.710938 523.585938 C 614.402344 510.144531 548.625 493.667969 483.503906 474.121094 C 576.414062 383.121094 688.648438 311.800781 813.425781 266.980469 C 783.136719 307.476562 754.925781 354.371094 729.25 407.402344 Z M 713.53125 1188.613281 L 1056.640625 1188.613281 L 1056.640625 1538.789062 C 958.753906 1541.4375 861.4375 1550.1875 765.03125 1564.984375 C 735.40625 1449.738281 717.804688 1322.027344 713.53125 1188.613281 Z M 1056.640625 1666.699219 L 1056.640625 2023.21875 C 979.46875 1993.296875 904.554688 1910.5625 844.351562 1786.21875 C 829.445312 1755.429688 815.738281 1722.78125 803.226562 1688.582031 C 887.070312 1676.449219 971.621094 1669.128906 1056.640625 1666.699219 Z M 1184.519531 2023.21875 L 1184.519531 1666.789062 C 1269.515625 1669.234375 1354.0625 1676.570312 1437.886719 1688.691406 C 1425.386719 1722.851562 1411.695312 1755.460938 1396.804688 1786.21875 C 1336.605469 1910.5625 1261.691406 1993.296875 1184.519531 2023.21875 Z M 1184.519531 1538.875 L 1184.519531 1188.613281 L 1527.621094 1188.613281 C 1523.347656 1322.050781 1505.746094 1449.777344 1476.109375 1565.035156 C 1379.730469 1550.246094 1282.394531 1541.539062 1184.519531 1538.875 Z M 1655.546875 1060.734375 C 1651.109375 914.34375 1631.507812 773.613281 1598.238281 646.273438 C 1683.074219 628.601562 1767.046875 606.304688 1849.832031 579.21875 C 1951.9375 715.382812 2016.804688 880.960938 2029.332031 1060.734375 Z M 471.304688 1763.054688 C 538.699219 1742.402344 606.808594 1725.003906 675.492188 1710.90625 C 691.460938 1757.085938 709.394531 1800.933594 729.25 1841.945312 C 754.925781 1894.976562 783.136719 1941.871094 813.425781 1982.367188 C 683.132812 1935.566406 566.515625 1859.878906 471.304688 1763.054688 Z M 1427.734375 1982.367188 C 1458.023438 1941.871094 1486.230469 1894.976562 1511.90625 1841.945312 C 1531.746094 1800.964844 1549.671875 1757.152344 1565.628906 1711.003906 C 1634.363281 1725.105469 1702.503906 1742.417969 1769.855469 1763.054688 C 1674.640625 1859.878906 1558.027344 1935.566406 1427.734375 1982.367188 Z M 1427.734375 1982.367188 " fill-opacity="1" fill-rule="nonzero"/><g clip-path="url(#82670b4e99)"><path fill="#ffffff" d="M 211.824219 1075.492188 L 585.609375 1075.492188 C 593.585938 1075.492188 600.117188 1069.152344 600.359375 1061.179688 C 604.761719 915.875 623.875 777.570312 657.167969 650.109375 C 658.1875 646.199219 657.5625 642.039062 655.433594 638.601562 C 653.304688 635.167969 649.859375 632.757812 645.902344 631.933594 C 561.863281 614.417969 477.757812 591.960938 395.917969 565.1875 C 389.910156 563.226562 383.316406 565.304688 379.519531 570.359375 C 272.550781 713.011719 209.472656 882.226562 197.101562 1059.707031 C 196.820312 1063.789062 198.242188 1067.808594 201.035156 1070.796875 C 203.824219 1073.792969 207.734375 1075.492188 211.824219 1075.492188 Z M 396.867188 596.527344 C 471.628906 620.613281 548.175781 641.132812 624.777344 657.625 C 594.351562 778.828125 576.394531 909.328125 571.339844 1045.976562 L 227.789062 1045.976562 C 241.996094 883.414062 300.234375 728.566406 396.867188 596.527344 Z M 742.535156 1835.511719 C 723.15625 1795.484375 705.292969 1751.941406 689.441406 1706.082031 C 687.019531 1699.082031 679.800781 1694.972656 672.523438 1696.445312 C 603.691406 1710.582031 534.535156 1728.242188 466.980469 1748.945312 C 462.046875 1750.457031 458.265625 1754.433594 457 1759.433594 C 455.730469 1764.425781 457.164062 1769.726562 460.78125 1773.402344 C 558.230469 1872.5 678.449219 1949.558594 808.4375 1996.257812 C 810.070312 1996.84375 811.753906 1997.125 813.421875 1997.125 C 818.007812 1997.125 822.449219 1994.984375 825.289062 1991.144531 C 829.164062 1985.90625 829.144531 1978.746094 825.242188 1973.527344 C 795.351562 1933.566406 767.527344 1887.132812 742.535156 1835.511719 Z M 499.347656 1770.042969 C 554.289062 1753.878906 610.140625 1739.769531 665.851562 1727.988281 C 680.992188 1770.453125 697.828125 1810.898438 715.96875 1848.375 C 733.808594 1885.21875 753.085938 1919.558594 773.527344 1950.941406 C 672.480469 1908.234375 578.785156 1846.460938 499.347656 1770.042969 Z M 1056.640625 1173.855469 L 713.535156 1173.855469 C 709.539062 1173.855469 705.710938 1175.480469 702.933594 1178.347656 C 700.152344 1181.21875 698.65625 1185.09375 698.785156 1189.085938 C 703.089844 1323.597656 720.570312 1451.304688 750.742188 1568.65625 C 752.4375 1575.257812 758.386719 1579.738281 765.019531 1579.738281 C 765.765625 1579.738281 766.515625 1579.683594 767.269531 1579.570312 C 862.742188 1564.914062 960.234375 1556.160156 1057.039062 1553.542969 C 1065.03125 1553.324219 1071.398438 1546.785156 1071.398438 1538.789062 L 1071.398438 1188.613281 C 1071.398438 1180.464844 1064.789062 1173.855469 1056.640625 1173.855469 Z M 1041.882812 1524.46875 C 953.0625 1527.421875 863.777344 1535.457031 776.070312 1548.394531 C 749.539062 1441.15625 733.664062 1325.222656 728.828125 1203.371094 L 1041.882812 1203.371094 Z M 479.261719 488.253906 C 544.289062 507.773438 611.082031 524.527344 677.78125 538.046875 C 678.765625 538.25 679.75 538.34375 680.71875 538.34375 C 686.835938 538.34375 692.464844 534.523438 694.601562 528.574219 C 709.09375 488.199219 725.222656 449.59375 742.535156 413.835938 C 767.523438 362.222656 795.347656 315.785156 825.242188 275.820312 C 829.144531 270.601562 829.164062 263.445312 825.289062 258.207031 C 821.417969 252.972656 814.566406 250.890625 808.4375 253.09375 C 684.097656 297.757812 568.164062 370.542969 473.179688 463.578125 C 469.449219 467.230469 467.925781 472.582031 469.175781 477.652344 C 470.425781 482.722656 474.261719 486.753906 479.261719 488.253906 Z M 773.523438 298.414062 C 753.078125 329.796875 733.804688 364.132812 715.96875 400.972656 C 699.933594 434.09375 684.902344 469.5625 671.210938 506.5625 C 617.867188 495.429688 564.539062 482.214844 512.207031 467.171875 C 588.714844 396.414062 677.960938 338.816406 773.523438 298.414062 Z M 651.566406 1595.699219 C 653.691406 1592.296875 654.347656 1588.175781 653.371094 1584.28125 C 622.417969 1460.824219 604.582031 1327.554688 600.359375 1188.164062 C 600.117188 1180.195312 593.585938 1173.855469 585.609375 1173.855469 L 211.824219 1173.855469 C 207.734375 1173.855469 203.824219 1175.558594 201.035156 1178.546875 C 198.242188 1181.539062 196.820312 1185.558594 197.101562 1189.640625 C 209.074219 1361.410156 268.863281 1526.128906 370.007812 1665.984375 C 372.835938 1669.902344 377.320312 1672.09375 381.964844 1672.09375 C 383.515625 1672.09375 385.082031 1671.851562 386.609375 1671.347656 C 470.371094 1643.5625 556.328125 1620.332031 642.089844 1602.3125 C 646.015625 1601.488281 649.4375 1599.097656 651.566406 1595.699219 Z M 387.664062 1639.925781 C 296.589844 1510.765625 241.53125 1360.375 227.789062 1203.371094 L 571.339844 1203.371094 C 576.179688 1334.148438 592.898438 1459.5625 621.09375 1576.617188 C 542.734375 1593.625 464.335938 1614.886719 387.664062 1639.925781 Z M 1056.21875 1651.945312 C 971.15625 1654.378906 885.328125 1661.789062 801.113281 1673.976562 C 796.714844 1674.613281 792.835938 1677.199219 790.554688 1681.019531 C 788.277344 1684.835938 787.839844 1689.476562 789.367188 1693.652344 C 802.160156 1728.613281 816.191406 1761.917969 831.070312 1792.648438 C 892.160156 1918.828125 970.371094 2005.597656 1051.304688 2036.980469 C 1053.03125 2037.644531 1054.839844 2037.976562 1056.636719 2037.976562 C 1059.574219 2037.976562 1062.488281 2037.097656 1064.976562 2035.394531 C 1068.996094 2032.644531 1071.398438 2028.089844 1071.398438 2023.21875 L 1071.398438 1666.695312 C 1071.398438 1662.710938 1069.78125 1658.894531 1066.925781 1656.113281 C 1064.0625 1653.335938 1060.230469 1651.816406 1056.21875 1651.945312 Z M 1041.882812 2000.355469 C 974.972656 1965.667969 910.210938 1888.382812 857.632812 1779.785156 C 845.625 1754.988281 834.179688 1728.433594 823.507812 1700.636719 C 895.742188 1690.804688 969.039062 1684.527344 1041.882812 1681.9375 Z M 1450.558594 1681.128906 C 1448.28125 1677.3125 1444.402344 1674.726562 1440 1674.089844 C 1355.765625 1661.898438 1269.949219 1654.484375 1184.945312 1652.035156 C 1180.972656 1651.882812 1177.09375 1653.425781 1174.234375 1656.207031 C 1171.375 1658.980469 1169.761719 1662.800781 1169.761719 1666.789062 L 1169.761719 2023.21875 C 1169.761719 2028.089844 1172.164062 2032.644531 1176.183594 2035.394531 C 1178.671875 2037.097656 1181.585938 2037.976562 1184.519531 2037.976562 C 1186.320312 2037.976562 1188.132812 2037.644531 1189.855469 2036.980469 C 1270.785156 2005.597656 1349 1918.828125 1410.089844 1792.648438 C 1424.960938 1761.9375 1438.976562 1728.667969 1451.75 1693.765625 C 1453.277344 1689.589844 1452.839844 1684.945312 1450.558594 1681.128906 Z M 1383.523438 1779.785156 C 1330.949219 1888.382812 1266.183594 1965.667969 1199.277344 2000.355469 L 1199.277344 1682.03125 C 1272.070312 1684.632812 1345.359375 1690.917969 1417.609375 1700.75 C 1406.953125 1728.492188 1395.519531 1755.011719 1383.523438 1779.785156 Z M 1774.179688 1748.945312 C 1707.167969 1728.414062 1637.996094 1710.785156 1568.589844 1696.550781 C 1561.347656 1695.078125 1554.101562 1699.179688 1551.679688 1706.183594 C 1535.832031 1752.019531 1517.980469 1795.535156 1498.621094 1835.511719 C 1473.632812 1887.128906 1445.808594 1933.566406 1415.917969 1973.527344 C 1412.015625 1978.746094 1411.996094 1985.90625 1415.867188 1991.144531 C 1418.710938 1994.984375 1423.152344 1997.125 1427.738281 1997.125 C 1429.402344 1997.125 1431.089844 1996.84375 1432.726562 1996.257812 C 1562.707031 1949.5625 1682.921875 1872.5 1780.378906 1773.402344 C 1783.996094 1769.726562 1785.429688 1764.425781 1784.160156 1759.429688 C 1782.894531 1754.429688 1779.109375 1750.457031 1774.179688 1748.945312 Z M 1467.632812 1950.941406 C 1488.078125 1919.558594 1507.351562 1885.21875 1525.1875 1848.375 C 1543.308594 1810.941406 1560.132812 1770.535156 1575.269531 1728.085938 C 1631.363281 1739.933594 1687.230469 1754.007812 1741.804688 1770.042969 C 1662.363281 1846.464844 1568.675781 1908.238281 1467.632812 1950.941406 Z M 2029.332031 1173.855469 L 1655.546875 1173.855469 C 1647.570312 1173.855469 1641.035156 1180.195312 1640.796875 1188.164062 C 1636.566406 1327.609375 1618.726562 1460.914062 1587.761719 1584.382812 C 1586.789062 1588.273438 1587.4375 1592.398438 1589.566406 1595.800781 C 1591.691406 1599.203125 1595.117188 1601.589844 1599.039062 1602.414062 C 1685.113281 1620.496094 1771.070312 1643.699219 1854.519531 1671.386719 C 1856.050781 1671.894531 1857.613281 1672.136719 1859.164062 1672.136719 C 1863.808594 1672.136719 1868.296875 1669.9375 1871.125 1666.027344 C 1972.289062 1526.15625 2032.082031 1361.425781 2044.050781 1189.640625 C 2044.335938 1185.558594 2042.914062 1181.539062 2040.125 1178.546875 C 2037.332031 1175.558594 2033.425781 1173.855469 2029.332031 1173.855469 Z M 1853.46875 1639.964844 C 1777.054688 1615.007812 1698.648438 1593.765625 1620.039062 1576.71875 C 1648.246094 1459.652344 1664.972656 1334.199219 1669.8125 1203.371094 L 2013.367188 1203.371094 C 1999.628906 1360.390625 1944.558594 1510.792969 1853.46875 1639.964844 Z M 1865.636719 379.621094 C 1666.621094 180.605469 1402.023438 71.007812 1120.578125 71.007812 C 839.132812 71.007812 574.535156 180.605469 375.523438 379.621094 C 176.511719 578.632812 66.914062 843.226562 66.914062 1124.671875 C 66.914062 1406.117188 176.511719 1670.71875 375.523438 1869.730469 C 574.539062 2068.738281 839.132812 2178.339844 1120.578125 2178.339844 C 1402.023438 2178.339844 1666.621094 2068.738281 1865.636719 1869.730469 C 2064.644531 1670.714844 2174.246094 1406.117188 2174.246094 1124.671875 C 2174.246094 843.230469 2064.644531 578.632812 1865.636719 379.621094 Z M 1844.765625 1848.859375 C 1651.328125 2042.292969 1394.140625 2148.824219 1120.578125 2148.824219 C 847.019531 2148.824219 589.832031 2042.292969 396.394531 1848.859375 C 202.957031 1655.421875 96.425781 1398.234375 96.425781 1124.671875 C 96.425781 851.113281 202.957031 593.925781 396.394531 400.488281 C 589.832031 207.050781 847.019531 100.519531 1120.578125 100.519531 C 1394.140625 100.519531 1651.328125 207.050781 1844.765625 400.492188 C 2038.179688 593.921875 2144.730469 851.128906 2144.730469 1124.671875 C 2144.730469 1398.234375 2038.199219 1655.421875 1844.765625 1848.859375 Z M 1184.117188 1553.628906 C 1281.175781 1556.269531 1378.660156 1565.015625 1473.875 1579.625 C 1474.628906 1579.738281 1475.382812 1579.792969 1476.125 1579.792969 C 1482.757812 1579.792969 1488.707031 1575.3125 1490.402344 1568.707031 C 1520.578125 1451.351562 1538.0625 1323.628906 1542.371094 1189.085938 C 1542.5 1185.09375 1541.003906 1181.21875 1538.222656 1178.347656 C 1535.441406 1175.480469 1531.617188 1173.855469 1527.621094 1173.855469 L 1184.519531 1173.855469 C 1176.371094 1173.855469 1169.761719 1180.464844 1169.761719 1188.613281 L 1169.761719 1538.875 C 1169.761719 1546.867188 1176.128906 1553.410156 1184.117188 1553.628906 Z M 1199.277344 1203.371094 L 1512.324219 1203.371094 C 1507.488281 1325.246094 1491.609375 1441.203125 1465.078125 1548.449219 C 1377.582031 1535.550781 1288.296875 1527.523438 1199.277344 1524.558594 Z M 1184.519531 1075.492188 L 1527.621094 1075.492188 C 1531.617188 1075.492188 1535.441406 1073.871094 1538.222656 1071 C 1541.003906 1068.128906 1542.5 1064.253906 1542.371094 1060.261719 C 1537.871094 919.65625 1519.007812 786.730469 1486.3125 665.167969 C 1484.363281 657.917969 1477.292969 653.28125 1469.847656 654.414062 C 1375.816406 668.671875 1279.683594 677.21875 1184.121094 679.820312 C 1176.128906 680.035156 1169.761719 686.578125 1169.761719 694.570312 L 1169.761719 1060.734375 C 1169.761719 1068.882812 1176.371094 1075.492188 1184.519531 1075.492188 Z M 1199.277344 708.886719 C 1286.878906 705.96875 1374.839844 698.125 1461.164062 685.542969 C 1490.066406 797.042969 1507.257812 918.140625 1512.324219 1045.976562 L 1199.277344 1045.976562 Z M 1064.976562 213.953125 C 1060.960938 211.199219 1055.84375 210.605469 1051.304688 212.371094 C 970.375 243.746094 892.160156 330.515625 831.070312 456.699219 C 818.382812 482.90625 806.269531 511.070312 795.070312 540.40625 C 793.472656 544.601562 793.867188 549.292969 796.144531 553.160156 C 798.425781 557.027344 802.339844 559.648438 806.78125 560.28125 C 889.0625 571.964844 972.984375 579.101562 1056.214844 581.488281 C 1056.359375 581.492188 1056.496094 581.492188 1056.640625 581.492188 C 1060.476562 581.492188 1064.167969 580 1066.921875 577.320312 C 1069.78125 574.539062 1071.398438 570.722656 1071.398438 566.734375 L 1071.398438 226.128906 C 1071.398438 221.257812 1068.996094 216.703125 1064.976562 213.953125 Z M 1041.882812 551.496094 C 970.972656 548.964844 899.660156 542.960938 829.425781 533.601562 C 838.371094 511.285156 847.828125 489.8125 857.636719 469.5625 C 910.210938 360.960938 974.976562 283.675781 1041.882812 248.992188 Z M 1585.695312 638.496094 C 1583.566406 641.933594 1582.9375 646.089844 1583.957031 650.003906 C 1617.269531 777.5 1636.390625 915.839844 1640.796875 1061.179688 C 1641.035156 1069.152344 1647.570312 1075.492188 1655.546875 1075.492188 L 2029.332031 1075.492188 C 2033.425781 1075.492188 2037.332031 1073.792969 2040.125 1070.796875 C 2042.914062 1067.808594 2044.335938 1063.789062 2044.050781 1059.707031 C 2031.6875 882.234375 1968.609375 713.023438 1861.636719 570.367188 C 1857.847656 565.304688 1851.234375 563.230469 1845.246094 565.195312 C 1764.007812 591.773438 1679.890625 614.191406 1595.226562 631.824219 C 1591.269531 632.648438 1587.824219 635.058594 1585.695312 638.496094 Z M 1844.292969 596.535156 C 1940.929688 728.578125 1999.164062 883.421875 2013.371094 1045.976562 L 1669.8125 1045.976562 C 1664.761719 909.285156 1646.796875 778.765625 1616.355469 657.519531 C 1693.464844 640.9375 1770.019531 620.457031 1844.292969 596.535156 Z M 1057.039062 679.90625 C 961.566406 677.324219 865.425781 668.773438 771.289062 654.496094 C 763.839844 653.355469 756.773438 658 754.824219 665.253906 C 722.140625 786.796875 703.285156 919.695312 698.785156 1060.261719 C 698.65625 1064.253906 700.152344 1068.128906 702.933594 1071 C 705.710938 1073.871094 709.539062 1075.492188 713.535156 1075.492188 L 1056.640625 1075.492188 C 1064.789062 1075.492188 1071.398438 1068.882812 1071.398438 1060.734375 L 1071.398438 694.65625 C 1071.398438 686.664062 1065.03125 680.121094 1057.039062 679.90625 Z M 1041.882812 1045.976562 L 728.828125 1045.976562 C 733.898438 918.191406 751.085938 797.09375 779.96875 685.625 C 866.386719 698.226562 954.355469 706.070312 1041.882812 708.976562 Z M 1184.519531 581.417969 C 1184.660156 581.417969 1184.804688 581.417969 1184.945312 581.414062 C 1268.089844 579.019531 1351.996094 571.878906 1434.335938 560.1875 C 1438.777344 559.554688 1442.695312 556.9375 1444.976562 553.066406 C 1447.253906 549.199219 1447.648438 544.507812 1446.046875 540.3125 C 1434.875 511.042969 1422.777344 482.910156 1410.089844 456.699219 C 1349 330.519531 1270.785156 243.746094 1189.855469 212.371094 C 1185.316406 210.609375 1180.199219 211.199219 1176.183594 213.953125 C 1172.164062 216.703125 1169.761719 221.261719 1169.761719 226.128906 L 1169.761719 566.660156 C 1169.761719 570.648438 1171.375 574.464844 1174.234375 577.246094 C 1176.992188 579.925781 1180.6875 581.417969 1184.519531 581.417969 Z M 1199.277344 248.992188 C 1266.183594 283.675781 1330.949219 360.964844 1383.523438 469.558594 C 1393.324219 489.804688 1402.769531 511.246094 1411.691406 533.507812 C 1341.417969 542.875 1270.125 548.886719 1199.277344 551.421875 Z M 1498.621094 413.832031 C 1515.929688 449.582031 1532.046875 488.167969 1546.535156 528.511719 C 1548.671875 534.464844 1554.296875 538.285156 1560.414062 538.285156 C 1561.386719 538.285156 1562.371094 538.1875 1563.355469 537.988281 C 1629.933594 524.496094 1696.714844 507.75 1761.839844 488.207031 C 1766.84375 486.707031 1770.675781 482.671875 1771.929688 477.601562 C 1773.175781 472.53125 1771.65625 467.179688 1767.925781 463.527344 C 1672.949219 370.515625 1557.042969 297.75 1432.726562 253.09375 C 1426.585938 250.890625 1419.738281 252.972656 1415.867188 258.207031 C 1411.996094 263.445312 1412.015625 270.601562 1415.917969 275.820312 C 1445.8125 315.785156 1473.636719 362.222656 1498.621094 413.832031 Z M 1728.890625 467.121094 C 1676.5 482.179688 1623.1875 495.390625 1569.925781 506.507812 C 1556.242188 469.527344 1541.21875 434.082031 1525.1875 400.972656 C 1507.351562 364.128906 1488.082031 329.796875 1467.636719 298.414062 C 1563.171875 338.808594 1652.402344 396.386719 1728.890625 467.121094 Z M 1728.890625 467.121094 " fill-opacity="1" fill-rule="nonzero"/></g></svg>