<svg xmlns="http://www.w3.org/2000/svg" xmlns:xlink="http://www.w3.org/1999/xlink" width="3000" zoomAndPan="magnify" viewBox="0 0 2250 2250.000011" height="3000" preserveAspectRatio="xMidYMid meet" version="1.0"><path fill="#000000" d="M 1125 0 C 1106.6875 0.0234375 1088.390625 0.496094 1070.101562 1.417969 C 1051.816406 2.339844 1033.5625 3.710938 1015.339844 5.527344 C 997.121094 7.34375 978.953125 9.605469 960.84375 12.308594 C 942.734375 15.015625 924.703125 18.164062 906.746094 21.753906 C 888.792969 25.347656 870.9375 29.375 853.179688 33.839844 C 835.421875 38.304688 817.78125 43.203125 800.265625 48.53125 C 782.746094 53.863281 765.371094 59.617188 748.132812 65.796875 C 730.898438 71.980469 713.824219 78.578125 696.914062 85.597656 C 680 92.617188 663.269531 100.042969 646.722656 107.882812 C 630.171875 115.722656 613.828125 123.960938 597.683594 132.597656 C 581.539062 141.238281 565.617188 150.269531 549.914062 159.6875 C 534.210938 169.105469 518.75 178.90625 503.527344 189.082031 C 488.308594 199.261719 473.34375 209.804688 458.640625 220.714844 C 443.9375 231.625 429.507812 242.890625 415.355469 254.507812 C 401.203125 266.125 387.34375 278.082031 373.777344 290.378906 C 360.210938 302.679688 346.953125 315.300781 334.003906 328.246094 C 321.058594 341.195312 308.433594 354.449219 296.136719 368.015625 C 283.839844 381.582031 271.878906 395.4375 260.261719 409.589844 C 248.644531 423.742188 237.378906 438.171875 226.46875 452.875 C 215.554688 467.578125 205.011719 482.539062 194.832031 497.761719 C 184.65625 512.980469 174.855469 528.441406 165.433594 544.140625 C 156.015625 559.84375 146.984375 575.765625 138.34375 591.90625 C 129.707031 608.050781 121.464844 624.394531 113.628906 640.945312 C 105.789062 657.492188 98.359375 674.21875 91.339844 691.128906 C 84.324219 708.042969 77.722656 725.113281 71.539062 742.347656 C 65.359375 759.582031 59.601562 776.960938 54.273438 794.476562 C 48.941406 811.992188 44.042969 829.628906 39.578125 847.386719 C 35.113281 865.144531 31.085938 883 27.496094 900.953125 C 23.90625 918.90625 20.753906 936.9375 18.050781 955.046875 C 15.34375 973.15625 13.082031 991.320312 11.265625 1009.539062 C 9.449219 1027.757812 8.078125 1046.011719 7.15625 1064.296875 C 6.234375 1082.585938 5.761719 1100.882812 5.738281 1119.191406 C 67.5 2603.902344 2182.722656 2603.46875 2244.265625 1119.183594 C 2244.238281 1100.871094 2243.765625 1082.574219 2242.84375 1064.289062 C 2241.921875 1046.003906 2240.554688 1027.75 2238.738281 1009.53125 C 2236.921875 991.3125 2234.660156 973.148438 2231.953125 955.039062 C 2229.246094 936.929688 2226.097656 918.898438 2222.503906 900.945312 C 2218.914062 882.992188 2214.886719 865.136719 2210.421875 847.378906 C 2205.957031 829.621094 2201.058594 811.984375 2195.726562 794.46875 C 2190.398438 776.953125 2184.640625 759.578125 2178.457031 742.34375 C 2172.277344 725.109375 2165.675781 708.035156 2158.65625 691.125 C 2151.640625 674.210938 2144.210938 657.484375 2136.371094 640.9375 C 2128.53125 624.390625 2120.292969 608.042969 2111.652344 591.902344 C 2103.011719 575.757812 2093.984375 559.835938 2084.5625 544.136719 C 2075.144531 528.4375 2065.34375 512.976562 2055.164062 497.753906 C 2044.988281 482.535156 2034.441406 467.574219 2023.53125 452.867188 C 2012.621094 438.164062 2001.355469 423.738281 1989.734375 409.585938 C 1978.117188 395.433594 1966.160156 381.578125 1953.859375 368.011719 C 1941.5625 354.445312 1928.941406 341.191406 1915.992188 328.242188 C 1903.042969 315.296875 1889.789062 302.675781 1876.222656 290.378906 C 1862.65625 278.082031 1848.796875 266.121094 1834.644531 254.503906 C 1820.492188 242.886719 1806.0625 231.625 1791.355469 220.710938 C 1776.652344 209.800781 1761.691406 199.257812 1746.46875 189.082031 C 1731.246094 178.902344 1715.785156 169.105469 1700.082031 159.683594 C 1684.382812 150.265625 1668.457031 141.234375 1652.316406 132.597656 C 1636.171875 123.957031 1619.824219 115.71875 1603.277344 107.882812 C 1586.726562 100.042969 1570 92.613281 1553.085938 85.597656 C 1536.171875 78.578125 1519.101562 71.980469 1501.863281 65.796875 C 1484.628906 59.617188 1467.25 53.859375 1449.734375 48.53125 C 1432.214844 43.199219 1414.578125 38.304688 1396.820312 33.839844 C 1379.0625 29.371094 1361.207031 25.34375 1343.25 21.753906 C 1325.296875 18.164062 1307.261719 15.015625 1289.152344 12.308594 C 1271.042969 9.605469 1252.878906 7.34375 1234.660156 5.527344 C 1216.4375 3.710938 1198.183594 2.339844 1179.898438 1.417969 C 1161.609375 0.496094 1143.3125 0.0234375 1125 0 Z M 1763.175781 1016.304688 C 1762.109375 1017.910156 1760.964844 1019.464844 1759.742188 1020.957031 C 1758.523438 1022.453125 1757.234375 1023.882812 1755.871094 1025.253906 C 1754.511719 1026.621094 1753.085938 1027.917969 1751.597656 1029.148438 C 1750.109375 1030.375 1748.566406 1031.527344 1746.964844 1032.605469 C 1745.363281 1033.683594 1743.710938 1034.675781 1742.011719 1035.59375 C 1740.3125 1036.507812 1738.574219 1037.335938 1736.792969 1038.078125 C 1735.011719 1038.824219 1733.199219 1039.476562 1731.351562 1040.042969 C 1729.507812 1040.609375 1727.640625 1041.082031 1725.746094 1041.464844 C 1723.855469 1041.84375 1721.949219 1042.132812 1720.03125 1042.328125 C 1718.109375 1042.523438 1716.183594 1042.625 1714.253906 1042.628906 C 1712.324219 1042.636719 1710.398438 1042.546875 1708.480469 1042.363281 C 1706.558594 1042.179688 1704.648438 1041.902344 1702.757812 1041.53125 C 1700.863281 1041.160156 1698.992188 1040.699219 1697.144531 1040.144531 C 1695.292969 1039.589844 1693.476562 1038.945312 1691.691406 1038.210938 C 1689.90625 1037.476562 1688.164062 1036.660156 1686.457031 1035.753906 C 1684.753906 1034.851562 1683.097656 1033.863281 1681.488281 1032.796875 L 1635.539062 1002.167969 L 1635.539062 1464.765625 C 1635.535156 1468.300781 1635.441406 1471.832031 1635.261719 1475.359375 C 1635.082031 1478.886719 1634.816406 1482.410156 1634.464844 1485.925781 C 1634.113281 1489.441406 1633.675781 1492.945312 1633.152344 1496.4375 C 1632.628906 1499.933594 1632.019531 1503.414062 1631.328125 1506.875 C 1630.632812 1510.339844 1629.855469 1513.785156 1628.992188 1517.210938 C 1628.128906 1520.636719 1627.183594 1524.042969 1626.15625 1527.421875 C 1625.125 1530.800781 1624.011719 1534.152344 1622.820312 1537.480469 C 1621.625 1540.804688 1620.351562 1544.097656 1618.996094 1547.359375 C 1617.640625 1550.625 1616.207031 1553.851562 1614.695312 1557.042969 C 1613.183594 1560.238281 1611.589844 1563.390625 1609.921875 1566.503906 C 1608.257812 1569.621094 1606.511719 1572.691406 1604.695312 1575.722656 C 1602.878906 1578.75 1600.984375 1581.734375 1599.023438 1584.671875 C 1597.058594 1587.609375 1595.023438 1590.496094 1592.917969 1593.332031 C 1590.8125 1596.167969 1588.636719 1598.953125 1586.394531 1601.683594 C 1584.152344 1604.414062 1581.84375 1607.089844 1579.472656 1609.707031 C 1577.097656 1612.324219 1574.664062 1614.878906 1572.164062 1617.378906 C 1569.667969 1619.878906 1567.109375 1622.3125 1564.492188 1624.6875 C 1561.875 1627.058594 1559.199219 1629.367188 1556.46875 1631.609375 C 1553.738281 1633.851562 1550.953125 1636.023438 1548.117188 1638.128906 C 1545.277344 1640.234375 1542.390625 1642.269531 1539.453125 1644.234375 C 1536.519531 1646.199219 1533.535156 1648.089844 1530.503906 1649.90625 C 1527.476562 1651.726562 1524.402344 1653.46875 1521.289062 1655.136719 C 1518.171875 1656.804688 1515.019531 1658.394531 1511.828125 1659.90625 C 1508.632812 1661.417969 1505.40625 1662.851562 1502.140625 1664.207031 C 1498.878906 1665.5625 1495.585938 1666.835938 1492.257812 1668.03125 C 1488.933594 1669.222656 1485.582031 1670.335938 1482.199219 1671.363281 C 1478.820312 1672.394531 1475.417969 1673.339844 1471.992188 1674.203125 C 1468.566406 1675.066406 1465.121094 1675.84375 1461.65625 1676.539062 C 1458.191406 1677.230469 1454.710938 1677.839844 1451.21875 1678.363281 C 1447.722656 1678.886719 1444.21875 1679.324219 1440.703125 1679.675781 C 1437.1875 1680.027344 1433.664062 1680.292969 1430.136719 1680.472656 C 1426.605469 1680.652344 1423.074219 1680.746094 1419.542969 1680.75 C 1249.808594 1680.71875 1000.1875 1680.773438 830.457031 1680.75 C 826.925781 1680.746094 823.394531 1680.652344 819.863281 1680.472656 C 816.335938 1680.292969 812.8125 1680.027344 809.296875 1679.675781 C 805.78125 1679.324219 802.277344 1678.886719 798.78125 1678.363281 C 795.289062 1677.839844 791.808594 1677.230469 788.34375 1676.539062 C 784.878906 1675.84375 781.433594 1675.066406 778.007812 1674.203125 C 774.582031 1673.339844 771.179688 1672.394531 767.800781 1671.363281 C 764.417969 1670.335938 761.066406 1669.222656 757.742188 1668.03125 C 754.414062 1666.835938 751.121094 1665.5625 747.859375 1664.207031 C 744.59375 1662.851562 741.367188 1661.417969 738.171875 1659.90625 C 734.980469 1658.394531 731.828125 1656.804688 728.710938 1655.136719 C 725.597656 1653.46875 722.523438 1651.726562 719.496094 1649.90625 C 716.464844 1648.089844 713.484375 1646.199219 710.546875 1644.234375 C 707.609375 1642.269531 704.722656 1640.234375 701.882812 1638.128906 C 699.046875 1636.023438 696.261719 1633.851562 693.53125 1631.609375 C 690.800781 1629.367188 688.128906 1627.058594 685.507812 1624.6875 C 682.890625 1622.3125 680.332031 1619.878906 677.835938 1617.378906 C 675.335938 1614.878906 672.902344 1612.324219 670.527344 1609.707031 C 668.15625 1607.089844 665.847656 1604.414062 663.605469 1601.683594 C 661.363281 1598.953125 659.1875 1596.167969 657.082031 1593.332031 C 654.976562 1590.496094 652.941406 1587.609375 650.980469 1584.671875 C 649.015625 1581.734375 647.125 1578.75 645.304688 1575.722656 C 643.488281 1572.691406 641.742188 1569.621094 640.078125 1566.503906 C 638.410156 1563.390625 636.816406 1560.238281 635.304688 1557.042969 C 633.792969 1553.851562 632.359375 1550.625 631.003906 1547.359375 C 629.648438 1544.097656 628.375 1540.804688 627.179688 1537.480469 C 625.988281 1534.152344 624.875 1530.800781 623.84375 1527.421875 C 622.816406 1524.042969 621.871094 1520.636719 621.007812 1517.210938 C 620.144531 1513.785156 619.367188 1510.339844 618.671875 1506.875 C 617.980469 1503.414062 617.371094 1499.933594 616.847656 1496.4375 C 616.324219 1492.945312 615.886719 1489.441406 615.535156 1485.925781 C 615.183594 1482.410156 614.917969 1478.886719 614.738281 1475.359375 C 614.558594 1471.832031 614.464844 1468.300781 614.460938 1464.765625 L 614.460938 1002.167969 L 568.511719 1032.796875 C 566.902344 1033.832031 565.246094 1034.785156 563.546875 1035.65625 C 561.847656 1036.527344 560.105469 1037.316406 558.328125 1038.019531 C 556.550781 1038.722656 554.742188 1039.339844 552.90625 1039.867188 C 551.066406 1040.394531 549.210938 1040.828125 547.328125 1041.175781 C 545.449219 1041.523438 543.554688 1041.777344 541.652344 1041.9375 C 539.746094 1042.101562 537.839844 1042.171875 535.925781 1042.148438 C 534.015625 1042.125 532.109375 1042.007812 530.210938 1041.800781 C 528.308594 1041.589844 526.421875 1041.289062 524.550781 1040.898438 C 522.679688 1040.503906 520.832031 1040.023438 519.007812 1039.449219 C 517.183594 1038.878906 515.394531 1038.21875 513.632812 1037.472656 C 511.875 1036.726562 510.152344 1035.894531 508.476562 1034.980469 C 506.796875 1034.066406 505.164062 1033.074219 503.582031 1032 C 502 1030.929688 500.472656 1029.78125 499.003906 1028.5625 C 497.53125 1027.339844 496.125 1026.050781 494.777344 1024.691406 C 493.433594 1023.332031 492.15625 1021.914062 490.949219 1020.429688 C 489.742188 1018.949219 488.609375 1017.410156 487.550781 1015.820312 C 486.496094 1014.226562 485.515625 1012.585938 484.621094 1010.898438 C 483.722656 1009.210938 482.90625 1007.484375 482.179688 1005.71875 C 481.449219 1003.949219 480.804688 1002.152344 480.25 1000.324219 C 479.695312 998.492188 479.230469 996.640625 478.859375 994.765625 C 478.484375 992.890625 478.199219 991.003906 478.007812 989.101562 C 477.820312 987.199219 477.722656 985.292969 477.714844 983.382812 C 477.710938 981.46875 477.796875 979.5625 477.980469 977.660156 C 478.160156 975.757812 478.429688 973.867188 478.796875 971.988281 C 479.160156 970.113281 479.613281 968.257812 480.160156 966.425781 C 480.703125 964.59375 481.335938 962.792969 482.058594 961.019531 C 482.777344 959.25 483.582031 957.519531 484.46875 955.828125 C 485.359375 954.132812 486.328125 952.488281 487.375 950.890625 C 488.425781 949.292969 489.550781 947.75 490.75 946.257812 C 491.949219 944.769531 493.214844 943.34375 494.554688 941.976562 C 495.890625 940.613281 497.292969 939.316406 498.757812 938.085938 C 500.222656 936.855469 501.742188 935.703125 503.320312 934.621094 L 1023.285156 587.871094 C 1030.820312 582.910156 1038.675781 578.53125 1046.855469 574.730469 C 1055.035156 570.929688 1063.449219 567.75 1072.097656 565.1875 C 1080.746094 562.628906 1089.539062 560.714844 1098.46875 559.449219 C 1107.398438 558.183594 1116.375 557.578125 1125.394531 557.632812 C 1134.359375 557.484375 1143.285156 558.019531 1152.171875 559.242188 C 1161.054688 560.464844 1169.796875 562.359375 1178.390625 564.925781 C 1186.984375 567.488281 1195.332031 570.695312 1203.433594 574.542969 C 1211.535156 578.386719 1219.296875 582.832031 1226.714844 587.871094 L 1746.679688 934.625 C 1748.289062 935.691406 1749.84375 936.832031 1751.339844 938.050781 C 1752.835938 939.273438 1754.265625 940.5625 1755.636719 941.921875 C 1757.007812 943.28125 1758.304688 944.707031 1759.535156 946.195312 C 1760.765625 947.683594 1761.917969 949.226562 1762.996094 950.828125 C 1764.070312 952.429688 1765.070312 954.082031 1765.984375 955.78125 C 1766.898438 957.480469 1767.726562 959.21875 1768.472656 961 C 1769.214844 962.78125 1769.871094 964.59375 1770.4375 966.441406 C 1771.003906 968.285156 1771.476562 970.152344 1771.859375 972.046875 C 1772.242188 973.9375 1772.527344 975.84375 1772.722656 977.761719 C 1772.917969 979.683594 1773.019531 981.609375 1773.023438 983.539062 C 1773.027344 985.46875 1772.941406 987.394531 1772.753906 989.316406 C 1772.570312 991.238281 1772.292969 993.144531 1771.921875 995.039062 C 1771.550781 996.933594 1771.085938 998.804688 1770.53125 1000.652344 C 1769.976562 1002.5 1769.332031 1004.316406 1768.597656 1006.101562 C 1767.863281 1007.886719 1767.042969 1009.632812 1766.136719 1011.335938 C 1765.230469 1013.042969 1764.246094 1014.695312 1763.175781 1016.304688 Z M 1763.175781 1016.304688 " fill-opacity="1" fill-rule="nonzero"/><path fill="#000000" d="M 1051.167969 1401.933594 L 1051.167969 1562.941406 L 1198.832031 1562.941406 L 1198.832031 1401.933594 C 1198.8125 1400.738281 1198.765625 1399.542969 1198.691406 1398.347656 C 1198.617188 1397.152344 1198.511719 1395.960938 1198.375 1394.773438 C 1198.242188 1393.582031 1198.078125 1392.398438 1197.886719 1391.214844 C 1197.695312 1390.035156 1197.476562 1388.859375 1197.226562 1387.6875 C 1196.976562 1386.515625 1196.699219 1385.351562 1196.394531 1384.195312 C 1196.089844 1383.039062 1195.757812 1381.890625 1195.394531 1380.75 C 1195.035156 1379.605469 1194.644531 1378.476562 1194.230469 1377.355469 C 1193.8125 1376.230469 1193.371094 1375.121094 1192.898438 1374.019531 C 1192.429688 1372.917969 1191.929688 1371.832031 1191.410156 1370.753906 C 1190.886719 1369.679688 1190.335938 1368.613281 1189.761719 1367.566406 C 1189.1875 1366.515625 1188.585938 1365.480469 1187.960938 1364.460938 C 1187.335938 1363.4375 1186.683594 1362.433594 1186.011719 1361.445312 C 1185.335938 1360.457031 1184.636719 1359.484375 1183.917969 1358.53125 C 1183.195312 1357.574219 1182.449219 1356.636719 1181.683594 1355.71875 C 1180.917969 1354.800781 1180.128906 1353.902344 1179.316406 1353.019531 C 1178.507812 1352.140625 1177.675781 1351.28125 1176.820312 1350.441406 C 1175.96875 1349.601562 1175.097656 1348.78125 1174.203125 1347.984375 C 1173.3125 1347.1875 1172.402344 1346.410156 1171.46875 1345.65625 C 1170.539062 1344.902344 1169.59375 1344.175781 1168.625 1343.464844 C 1167.660156 1342.757812 1166.679688 1342.078125 1165.679688 1341.417969 C 1164.679688 1340.757812 1163.667969 1340.121094 1162.636719 1339.511719 C 1161.605469 1338.902344 1160.5625 1338.316406 1159.503906 1337.757812 C 1158.445312 1337.199219 1157.375 1336.667969 1156.289062 1336.160156 C 1155.207031 1335.652344 1154.109375 1335.171875 1153.003906 1334.71875 C 1151.894531 1334.261719 1150.777344 1333.835938 1149.648438 1333.4375 C 1148.519531 1333.039062 1147.382812 1332.664062 1146.238281 1332.320312 C 1145.089844 1331.976562 1143.9375 1331.660156 1142.773438 1331.375 C 1141.613281 1331.085938 1140.445312 1330.824219 1139.269531 1330.59375 C 1138.097656 1330.363281 1136.917969 1330.160156 1135.730469 1329.984375 C 1134.546875 1329.8125 1133.359375 1329.667969 1132.167969 1329.550781 C 1130.976562 1329.433594 1129.785156 1329.347656 1128.589844 1329.289062 C 1127.394531 1329.230469 1126.195312 1329.203125 1125 1329.203125 C 1123.804688 1329.203125 1122.605469 1329.230469 1121.410156 1329.289062 C 1120.214844 1329.347656 1119.023438 1329.433594 1117.832031 1329.550781 C 1116.640625 1329.667969 1115.453125 1329.8125 1114.269531 1329.984375 C 1113.082031 1330.160156 1111.90625 1330.363281 1110.730469 1330.59375 C 1109.554688 1330.824219 1108.386719 1331.085938 1107.226562 1331.375 C 1106.0625 1331.660156 1104.910156 1331.976562 1103.761719 1332.320312 C 1102.617188 1332.664062 1101.480469 1333.039062 1100.351562 1333.4375 C 1099.222656 1333.835938 1098.105469 1334.261719 1096.996094 1334.71875 C 1095.890625 1335.171875 1094.792969 1335.652344 1093.710938 1336.160156 C 1092.625 1336.667969 1091.554688 1337.199219 1090.496094 1337.757812 C 1089.4375 1338.316406 1088.394531 1338.902344 1087.363281 1339.511719 C 1086.335938 1340.121094 1085.320312 1340.757812 1084.320312 1341.417969 C 1083.324219 1342.078125 1082.339844 1342.757812 1081.375 1343.464844 C 1080.410156 1344.175781 1079.460938 1344.902344 1078.53125 1345.65625 C 1077.601562 1346.410156 1076.6875 1347.1875 1075.796875 1347.984375 C 1074.902344 1348.78125 1074.03125 1349.601562 1073.179688 1350.441406 C 1072.324219 1351.28125 1071.496094 1352.140625 1070.683594 1353.019531 C 1069.871094 1353.902344 1069.082031 1354.800781 1068.316406 1355.71875 C 1067.550781 1356.636719 1066.804688 1357.574219 1066.082031 1358.53125 C 1065.363281 1359.484375 1064.664062 1360.457031 1063.988281 1361.445312 C 1063.316406 1362.433594 1062.664062 1363.4375 1062.039062 1364.460938 C 1061.414062 1365.480469 1060.816406 1366.515625 1060.238281 1367.566406 C 1059.664062 1368.613281 1059.117188 1369.679688 1058.59375 1370.753906 C 1058.070312 1371.832031 1057.570312 1372.917969 1057.101562 1374.019531 C 1056.632812 1375.121094 1056.1875 1376.230469 1055.773438 1377.355469 C 1055.355469 1378.476562 1054.964844 1379.605469 1054.605469 1380.75 C 1054.242188 1381.890625 1053.910156 1383.039062 1053.605469 1384.195312 C 1053.300781 1385.351562 1053.023438 1386.515625 1052.773438 1387.6875 C 1052.523438 1388.859375 1052.304688 1390.035156 1052.113281 1391.214844 C 1051.921875 1392.398438 1051.757812 1393.582031 1051.625 1394.773438 C 1051.488281 1395.960938 1051.386719 1397.152344 1051.308594 1398.347656 C 1051.234375 1399.542969 1051.1875 1400.738281 1051.167969 1401.933594 Z M 1051.167969 1401.933594 " fill-opacity="1" fill-rule="nonzero"/><path fill="#000000" d="M 1088.871094 686.042969 L 732.277344 923.628906 L 732.277344 1464.765625 C 732.277344 1466.375 732.316406 1467.980469 732.398438 1469.582031 C 732.476562 1471.1875 732.59375 1472.789062 732.753906 1474.386719 C 732.910156 1475.988281 733.109375 1477.582031 733.34375 1479.171875 C 733.578125 1480.757812 733.855469 1482.339844 734.167969 1483.917969 C 734.484375 1485.492188 734.835938 1487.058594 735.226562 1488.617188 C 735.617188 1490.175781 736.046875 1491.722656 736.511719 1493.261719 C 736.980469 1494.796875 737.484375 1496.324219 738.023438 1497.835938 C 738.566406 1499.347656 739.144531 1500.847656 739.757812 1502.332031 C 740.375 1503.816406 741.027344 1505.285156 741.714844 1506.734375 C 742.398438 1508.1875 743.121094 1509.621094 743.878906 1511.039062 C 744.636719 1512.457031 745.429688 1513.851562 746.253906 1515.230469 C 747.082031 1516.609375 747.941406 1517.964844 748.832031 1519.300781 C 749.726562 1520.636719 750.652344 1521.949219 751.609375 1523.238281 C 752.566406 1524.53125 753.554688 1525.796875 754.574219 1527.039062 C 755.59375 1528.28125 756.640625 1529.496094 757.722656 1530.6875 C 758.800781 1531.875 759.90625 1533.039062 761.042969 1534.175781 C 762.179688 1535.3125 763.34375 1536.417969 764.53125 1537.5 C 765.722656 1538.578125 766.941406 1539.625 768.179688 1540.644531 C 769.421875 1541.664062 770.691406 1542.652344 771.980469 1543.609375 C 773.269531 1544.566406 774.582031 1545.492188 775.917969 1546.386719 C 777.253906 1547.277344 778.613281 1548.136719 779.988281 1548.964844 C 781.367188 1549.789062 782.765625 1550.582031 784.183594 1551.339844 C 785.597656 1552.097656 787.035156 1552.820312 788.484375 1553.503906 C 789.9375 1554.191406 791.40625 1554.84375 792.890625 1555.457031 C 794.375 1556.074219 795.875 1556.652344 797.386719 1557.195312 C 798.898438 1557.734375 800.421875 1558.238281 801.960938 1558.707031 C 803.5 1559.171875 805.046875 1559.601562 806.605469 1559.992188 C 808.164062 1560.382812 809.730469 1560.734375 811.304688 1561.050781 C 812.882812 1561.363281 814.464844 1561.636719 816.054688 1561.875 C 817.640625 1562.109375 819.234375 1562.308594 820.835938 1562.464844 C 822.433594 1562.625 824.035156 1562.742188 825.640625 1562.820312 C 827.246094 1562.902344 828.851562 1562.941406 830.457031 1562.941406 L 933.351562 1562.941406 L 933.351562 1401.933594 C 933.351562 1398.800781 933.433594 1395.667969 933.589844 1392.535156 C 933.742188 1389.40625 933.976562 1386.28125 934.285156 1383.160156 C 934.59375 1380.039062 934.980469 1376.929688 935.441406 1373.828125 C 935.90625 1370.730469 936.441406 1367.640625 937.054688 1364.566406 C 937.667969 1361.492188 938.359375 1358.433594 939.121094 1355.394531 C 939.886719 1352.355469 940.722656 1349.335938 941.632812 1346.335938 C 942.546875 1343.335938 943.53125 1340.359375 944.589844 1337.410156 C 945.648438 1334.457031 946.777344 1331.535156 947.976562 1328.640625 C 949.179688 1325.742188 950.449219 1322.878906 951.792969 1320.046875 C 953.132812 1317.210938 954.542969 1314.414062 956.023438 1311.648438 C 957.503906 1308.886719 959.050781 1306.160156 960.660156 1303.472656 C 962.273438 1300.785156 963.953125 1298.136719 965.695312 1295.53125 C 967.4375 1292.925781 969.246094 1290.363281 971.113281 1287.847656 C 972.980469 1285.328125 974.910156 1282.859375 976.902344 1280.4375 C 978.890625 1278.015625 980.9375 1275.640625 983.042969 1273.320312 C 985.152344 1270.996094 987.3125 1268.726562 989.53125 1266.511719 C 991.75 1264.296875 994.019531 1262.136719 996.34375 1260.03125 C 998.667969 1257.925781 1001.039062 1255.882812 1003.464844 1253.894531 C 1005.886719 1251.90625 1008.359375 1249.976562 1010.878906 1248.109375 C 1013.398438 1246.242188 1015.960938 1244.441406 1018.566406 1242.699219 C 1021.175781 1240.957031 1023.824219 1239.28125 1026.511719 1237.671875 C 1029.203125 1236.058594 1031.929688 1234.515625 1034.695312 1233.039062 C 1037.460938 1231.5625 1040.257812 1230.152344 1043.09375 1228.8125 C 1045.925781 1227.472656 1048.792969 1226.203125 1051.691406 1225.003906 C 1054.585938 1223.804688 1057.511719 1222.679688 1060.460938 1221.621094 C 1063.414062 1220.566406 1066.390625 1219.585938 1069.390625 1218.675781 C 1072.390625 1217.765625 1075.414062 1216.929688 1078.453125 1216.167969 C 1081.496094 1215.40625 1084.550781 1214.71875 1087.628906 1214.109375 C 1090.703125 1213.496094 1093.789062 1212.960938 1096.890625 1212.503906 C 1099.992188 1212.042969 1103.101562 1211.660156 1106.222656 1211.351562 C 1109.34375 1211.042969 1112.46875 1210.816406 1115.601562 1210.660156 C 1118.730469 1210.507812 1121.863281 1210.429688 1125 1210.429688 C 1128.136719 1210.429688 1131.269531 1210.507812 1134.398438 1210.660156 C 1137.53125 1210.816406 1140.65625 1211.042969 1143.777344 1211.351562 C 1146.898438 1211.660156 1150.007812 1212.042969 1153.109375 1212.503906 C 1156.210938 1212.960938 1159.296875 1213.496094 1162.371094 1214.109375 C 1165.449219 1214.71875 1168.507812 1215.40625 1171.546875 1216.167969 C 1174.589844 1216.929688 1177.609375 1217.765625 1180.609375 1218.675781 C 1183.609375 1219.585938 1186.585938 1220.566406 1189.539062 1221.621094 C 1192.488281 1222.679688 1195.414062 1223.804688 1198.3125 1225.003906 C 1201.207031 1226.203125 1204.074219 1227.472656 1206.90625 1228.8125 C 1209.742188 1230.152344 1212.542969 1231.5625 1215.304688 1233.039062 C 1218.070312 1234.515625 1220.800781 1236.058594 1223.488281 1237.671875 C 1226.179688 1239.28125 1228.824219 1240.957031 1231.433594 1242.699219 C 1234.039062 1244.441406 1236.601562 1246.242188 1239.121094 1248.109375 C 1241.640625 1249.976562 1244.113281 1251.90625 1246.535156 1253.894531 C 1248.960938 1255.882812 1251.335938 1257.925781 1253.65625 1260.03125 C 1255.980469 1262.136719 1258.25 1264.296875 1260.46875 1266.511719 C 1262.6875 1268.726562 1264.847656 1270.996094 1266.957031 1273.320312 C 1269.0625 1275.640625 1271.109375 1278.015625 1273.101562 1280.4375 C 1275.089844 1282.859375 1277.019531 1285.328125 1278.886719 1287.847656 C 1280.757812 1290.363281 1282.5625 1292.925781 1284.304688 1295.53125 C 1286.046875 1298.136719 1287.726562 1300.785156 1289.339844 1303.472656 C 1290.953125 1306.160156 1292.496094 1308.886719 1293.976562 1311.648438 C 1295.457031 1314.414062 1296.867188 1317.210938 1298.207031 1320.046875 C 1299.550781 1322.878906 1300.820312 1325.742188 1302.023438 1328.640625 C 1303.222656 1331.535156 1304.355469 1334.457031 1305.410156 1337.410156 C 1306.46875 1340.359375 1307.453125 1343.335938 1308.367188 1346.335938 C 1309.277344 1349.335938 1310.113281 1352.355469 1310.878906 1355.394531 C 1311.640625 1358.433594 1312.332031 1361.492188 1312.945312 1364.566406 C 1313.558594 1367.640625 1314.09375 1370.730469 1314.558594 1373.828125 C 1315.019531 1376.929688 1315.40625 1380.039062 1315.714844 1383.160156 C 1316.023438 1386.28125 1316.257812 1389.40625 1316.410156 1392.535156 C 1316.566406 1395.667969 1316.648438 1398.800781 1316.648438 1401.933594 L 1316.648438 1562.941406 L 1419.542969 1562.941406 C 1421.148438 1562.941406 1422.753906 1562.902344 1424.359375 1562.820312 C 1425.964844 1562.742188 1427.566406 1562.625 1429.164062 1562.464844 C 1430.765625 1562.308594 1432.359375 1562.109375 1433.945312 1561.875 C 1435.535156 1561.636719 1437.117188 1561.363281 1438.695312 1561.050781 C 1440.269531 1560.734375 1441.835938 1560.382812 1443.394531 1559.992188 C 1444.953125 1559.601562 1446.5 1559.171875 1448.039062 1558.707031 C 1449.578125 1558.238281 1451.101562 1557.734375 1452.613281 1557.195312 C 1454.125 1556.652344 1455.625 1556.074219 1457.109375 1555.457031 C 1458.59375 1554.84375 1460.0625 1554.191406 1461.515625 1553.503906 C 1462.964844 1552.820312 1464.402344 1552.097656 1465.816406 1551.339844 C 1467.234375 1550.582031 1468.632812 1549.789062 1470.011719 1548.964844 C 1471.386719 1548.136719 1472.746094 1547.277344 1474.082031 1546.386719 C 1475.417969 1545.492188 1476.730469 1544.566406 1478.019531 1543.609375 C 1479.308594 1542.652344 1480.578125 1541.664062 1481.816406 1540.644531 C 1483.058594 1539.625 1484.277344 1538.578125 1485.46875 1537.5 C 1486.65625 1536.417969 1487.820312 1535.3125 1488.957031 1534.175781 C 1490.09375 1533.039062 1491.199219 1531.878906 1492.277344 1530.6875 C 1493.359375 1529.496094 1494.40625 1528.28125 1495.425781 1527.039062 C 1496.445312 1525.796875 1497.433594 1524.53125 1498.390625 1523.238281 C 1499.347656 1521.949219 1500.273438 1520.636719 1501.167969 1519.300781 C 1502.058594 1517.964844 1502.917969 1516.609375 1503.746094 1515.230469 C 1504.570312 1513.851562 1505.363281 1512.457031 1506.121094 1511.039062 C 1506.878906 1509.621094 1507.601562 1508.1875 1508.289062 1506.734375 C 1508.972656 1505.285156 1509.625 1503.816406 1510.242188 1502.332031 C 1510.855469 1500.847656 1511.433594 1499.347656 1511.976562 1497.835938 C 1512.515625 1496.324219 1513.019531 1494.796875 1513.488281 1493.261719 C 1513.953125 1491.722656 1514.382812 1490.175781 1514.773438 1488.617188 C 1515.164062 1487.058594 1515.515625 1485.492188 1515.832031 1483.917969 C 1516.144531 1482.339844 1516.421875 1480.757812 1516.65625 1479.171875 C 1516.894531 1477.582031 1517.089844 1475.988281 1517.246094 1474.386719 C 1517.40625 1472.789062 1517.523438 1471.1875 1517.605469 1469.582031 C 1517.683594 1467.980469 1517.722656 1466.375 1517.722656 1464.765625 L 1517.722656 923.628906 L 1161.128906 686.042969 C 1159.789062 685.1875 1158.421875 684.378906 1157.023438 683.621094 C 1155.625 682.863281 1154.203125 682.15625 1152.753906 681.496094 C 1151.308594 680.839844 1149.839844 680.234375 1148.347656 679.679688 C 1146.855469 679.125 1145.347656 678.625 1143.820312 678.179688 C 1142.292969 677.734375 1140.753906 677.34375 1139.199219 677.007812 C 1137.644531 676.667969 1136.082031 676.390625 1134.507812 676.164062 C 1132.933594 675.9375 1131.351562 675.769531 1129.765625 675.65625 C 1128.179688 675.542969 1126.589844 675.488281 1125 675.488281 C 1123.410156 675.488281 1121.820312 675.542969 1120.234375 675.65625 C 1118.648438 675.769531 1117.066406 675.9375 1115.492188 676.164062 C 1113.917969 676.390625 1112.355469 676.667969 1110.800781 677.007812 C 1109.246094 677.34375 1107.707031 677.734375 1106.179688 678.179688 C 1104.652344 678.625 1103.144531 679.125 1101.652344 679.679688 C 1100.160156 680.234375 1098.691406 680.839844 1097.246094 681.496094 C 1095.796875 682.152344 1094.375 682.863281 1092.976562 683.621094 C 1091.578125 684.378906 1090.210938 685.1875 1088.871094 686.042969 Z M 1088.871094 686.042969 " fill-opacity="1" fill-rule="nonzero"/></svg>