<svg xmlns="http://www.w3.org/2000/svg" xmlns:xlink="http://www.w3.org/1999/xlink" width="3000" zoomAndPan="magnify" viewBox="0 0 2250 2250.000011" height="3000" preserveAspectRatio="xMidYMid meet" version="1.0"><defs><clipPath id="04a3d9153c"><path d="M 26.925781 407.867188 L 66.660156 407.867188 L 66.660156 447.597656 L 26.925781 447.597656 Z M 26.925781 407.867188 " clip-rule="nonzero"/></clipPath><clipPath id="2ac34c293e"><path d="M 26.925781 32.003906 L 2217.453125 32.003906 L 2217.453125 2222.53125 L 26.925781 2222.53125 Z M 26.925781 32.003906 " clip-rule="nonzero"/></clipPath></defs><g clip-path="url(#04a3d9153c)"><path fill="#ffffff" d="M 46.914062 447.84375 C 57.953125 447.84375 66.902344 438.894531 66.902344 427.855469 C 66.902344 416.816406 57.953125 407.867188 46.914062 407.867188 C 35.875 407.867188 26.925781 416.816406 26.925781 427.855469 C 26.925781 438.894531 35.875 447.84375 46.914062 447.84375 Z M 50.113281 428.921875 L 39.894531 428.921875 L 41.804688 430.832031 L 40.296875 432.339844 L 36.566406 428.609375 C 36.148438 428.191406 36.148438 427.519531 36.566406 427.101562 L 40.296875 423.371094 L 41.804688 424.878906 L 39.894531 426.789062 L 50.113281 426.789062 Z M 43.71875 418.261719 C 43.128906 418.261719 42.652344 418.738281 42.652344 419.328125 L 42.652344 422.523438 L 44.78125 422.523438 L 44.78125 420.394531 L 55.445312 420.394531 L 55.445312 435.320312 L 44.78125 435.320312 L 44.78125 433.1875 L 42.652344 433.1875 L 42.652344 436.382812 C 42.652344 436.972656 43.128906 437.449219 43.71875 437.449219 L 56.511719 437.449219 C 57.097656 437.449219 57.574219 436.972656 57.574219 436.382812 L 57.574219 419.328125 C 57.574219 418.738281 57.097656 418.261719 56.511719 418.261719 Z M 43.71875 418.261719 " fill-opacity="1" fill-rule="evenodd"/></g><g clip-path="url(#2ac34c293e)"><path fill="#000000" d="M 1122.277344 32.003906 C 517.328125 32.003906 26.925781 522.40625 26.925781 1127.355469 C 26.925781 1732.300781 517.328125 2222.703125 1122.277344 2222.703125 C 1727.226562 2222.703125 2217.625 1732.300781 2217.625 1127.355469 C 2217.625 522.40625 1727.226562 32.003906 1122.277344 32.003906 Z M 1432.78125 772.800781 C 1482.109375 725.523438 1531.441406 678.292969 1580.769531 631.015625 C 1597.179688 615.300781 1623.242188 615.824219 1639 632.28125 C 1654.714844 648.695312 1654.191406 674.800781 1637.734375 690.515625 L 1489.75 832.300781 C 1473.335938 848.015625 1447.277344 847.492188 1431.515625 831.035156 C 1415.800781 814.621094 1416.324219 788.515625 1432.78125 772.800781 Z M 1089.449219 509.308594 C 1090.410156 486.566406 1109.617188 468.929688 1132.359375 469.933594 C 1143.710938 470.414062 1153.792969 475.476562 1160.953125 483.25 C 1168.113281 491.019531 1172.257812 501.496094 1171.734375 512.84375 C 1169.597656 562.433594 1167.5 611.980469 1165.363281 661.570312 C 1164.402344 684.316406 1145.195312 701.953125 1122.449219 700.949219 C 1099.707031 699.988281 1082.117188 680.78125 1083.074219 658.035156 Z M 629.867188 610.628906 C 646.28125 594.914062 672.339844 595.4375 688.101562 611.894531 C 735.332031 661.222656 782.609375 710.550781 829.84375 759.878906 C 845.558594 776.292969 845.035156 802.398438 828.578125 818.113281 C 812.164062 833.828125 786.101562 833.304688 770.34375 816.847656 L 628.601562 668.863281 C 612.886719 652.449219 613.410156 626.34375 629.867188 610.628906 Z M 465.117188 1109.195312 C 465.117188 1086.449219 483.539062 1067.984375 506.285156 1067.984375 L 655.097656 1067.984375 C 666.492188 1067.984375 676.75 1072.613281 684.214844 1080.035156 C 691.679688 1087.5 696.261719 1097.800781 696.261719 1109.148438 C 696.261719 1131.894531 677.839844 1150.359375 655.097656 1150.359375 C 605.507812 1150.359375 555.875 1150.359375 506.285156 1150.359375 C 483.539062 1150.359375 465.117188 1131.9375 465.117188 1109.148438 Z M 814.433594 1479.375 L 666.449219 1621.160156 C 650.035156 1636.875 623.972656 1636.351562 608.214844 1619.894531 C 592.5 1603.480469 593.023438 1577.375 609.480469 1561.660156 C 658.808594 1514.382812 708.136719 1467.152344 757.464844 1419.875 C 771.828125 1406.125 793.609375 1404.816406 809.324219 1415.726562 L 815.65625 1421.140625 L 820.804688 1427.734375 C 831.019531 1443.929688 828.792969 1465.625 814.433594 1479.375 Z M 1155.148438 1745.398438 C 1154.1875 1768.140625 1134.980469 1785.777344 1112.234375 1784.773438 C 1089.492188 1783.769531 1071.902344 1764.605469 1072.859375 1741.863281 C 1075 1692.273438 1077.09375 1642.726562 1079.234375 1593.136719 C 1080.195312 1570.390625 1099.402344 1552.757812 1122.144531 1553.761719 C 1133.496094 1554.238281 1143.578125 1559.304688 1150.738281 1567.074219 C 1157.855469 1574.84375 1162.042969 1585.320312 1161.519531 1596.671875 Z M 856.121094 1374.082031 C 714.511719 1226.230469 719.53125 991.503906 867.339844 849.894531 C 1015.152344 708.28125 1249.832031 713.257812 1391.441406 861.113281 C 1533.054688 1008.964844 1528.035156 1243.691406 1380.222656 1385.300781 C 1232.371094 1526.957031 997.734375 1521.9375 856.121094 1374.082031 Z M 1617.347656 1641.546875 C 1600.9375 1657.261719 1574.875 1656.738281 1559.117188 1640.28125 L 1417.375 1492.296875 C 1401.65625 1475.882812 1402.183594 1449.777344 1418.640625 1434.0625 C 1435.054688 1418.347656 1461.113281 1418.871094 1476.871094 1435.328125 C 1524.105469 1484.65625 1571.382812 1533.984375 1618.617188 1583.3125 C 1634.332031 1599.726562 1633.808594 1625.832031 1617.347656 1641.546875 Z M 1738.269531 1186.679688 L 1589.453125 1186.679688 C 1566.710938 1186.679688 1548.289062 1168.257812 1548.289062 1145.46875 C 1548.289062 1122.726562 1566.710938 1104.261719 1589.453125 1104.261719 C 1639.046875 1104.261719 1688.679688 1104.261719 1738.269531 1104.261719 C 1749.664062 1104.261719 1759.921875 1108.886719 1767.386719 1116.308594 C 1774.851562 1123.773438 1779.433594 1134.078125 1779.433594 1145.425781 C 1779.433594 1168.167969 1761.011719 1186.636719 1738.269531 1186.636719 Z M 1738.269531 1186.679688 " fill-opacity="1" fill-rule="nonzero"/></g></svg>