<svg xmlns="http://www.w3.org/2000/svg" xmlns:xlink="http://www.w3.org/1999/xlink" width="3000" zoomAndPan="magnify" viewBox="0 0 2250 2250.000011" height="3000" preserveAspectRatio="xMidYMid meet" version="1.0"><defs><clipPath id="00d3621caa"><path d="M 26.925781 407.867188 L 66.660156 407.867188 L 66.660156 447.597656 L 26.925781 447.597656 Z M 26.925781 407.867188 " clip-rule="nonzero"/></clipPath><clipPath id="8043cf234c"><path d="M 26.925781 26.425781 L 2217.453125 26.425781 L 2217.453125 2216.953125 L 26.925781 2216.953125 Z M 26.925781 26.425781 " clip-rule="nonzero"/></clipPath></defs><g clip-path="url(#00d3621caa)"><path fill="#ffffff" d="M 46.914062 447.84375 C 57.953125 447.84375 66.902344 438.894531 66.902344 427.855469 C 66.902344 416.816406 57.953125 407.867188 46.914062 407.867188 C 35.875 407.867188 26.925781 416.816406 26.925781 427.855469 C 26.925781 438.894531 35.875 447.84375 46.914062 447.84375 Z M 50.113281 428.921875 L 39.894531 428.921875 L 41.804688 430.832031 L 40.296875 432.339844 L 36.566406 428.609375 C 36.148438 428.191406 36.148438 427.519531 36.566406 427.101562 L 40.296875 423.371094 L 41.804688 424.878906 L 39.894531 426.789062 L 50.113281 426.789062 Z M 43.71875 418.261719 C 43.128906 418.261719 42.652344 418.738281 42.652344 419.328125 L 42.652344 422.523438 L 44.78125 422.523438 L 44.78125 420.394531 L 55.445312 420.394531 L 55.445312 435.320312 L 44.78125 435.320312 L 44.78125 433.1875 L 42.652344 433.1875 L 42.652344 436.382812 C 42.652344 436.972656 43.128906 437.449219 43.71875 437.449219 L 56.511719 437.449219 C 57.097656 437.449219 57.574219 436.972656 57.574219 436.382812 L 57.574219 419.328125 C 57.574219 418.738281 57.097656 418.261719 56.511719 418.261719 Z M 43.71875 418.261719 " fill-opacity="1" fill-rule="evenodd"/></g><g clip-path="url(#8043cf234c)"><path fill="#000000" d="M 1122.1875 2216.953125 C 1727.089844 2216.953125 2217.453125 1726.589844 2217.453125 1121.691406 C 2217.453125 516.792969 1727.089844 26.425781 1122.1875 26.425781 C 517.292969 26.425781 26.925781 516.792969 26.925781 1121.691406 C 26.925781 1726.589844 517.292969 2216.953125 1122.1875 2216.953125 Z M 1297.429688 1180.101562 L 737.488281 1180.101562 L 842.21875 1284.832031 L 759.605469 1367.445312 L 555.160156 1162.996094 C 532.347656 1140.183594 532.347656 1103.195312 555.160156 1080.382812 L 759.605469 875.933594 L 842.21875 958.546875 L 737.488281 1063.277344 L 1297.429688 1063.277344 Z M 946.945312 595.964844 C 914.6875 595.964844 888.53125 622.117188 888.53125 654.378906 L 888.53125 829.621094 L 1005.359375 829.621094 L 1005.359375 712.792969 L 1589.5 712.792969 L 1589.5 1530.585938 L 1005.359375 1530.585938 L 1005.359375 1413.757812 L 888.53125 1413.757812 L 888.53125 1589 C 888.53125 1621.261719 914.6875 1647.414062 946.945312 1647.414062 L 1647.914062 1647.414062 C 1680.175781 1647.414062 1706.328125 1621.261719 1706.328125 1589 L 1706.328125 654.378906 C 1706.328125 622.117188 1680.175781 595.964844 1647.914062 595.964844 Z M 946.945312 595.964844 " fill-opacity="1" fill-rule="evenodd"/></g></svg>