<svg xmlns="http://www.w3.org/2000/svg" xmlns:xlink="http://www.w3.org/1999/xlink" width="3000" zoomAndPan="magnify" viewBox="0 0 2250 2250.000011" height="3000" preserveAspectRatio="xMidYMid meet" version="1.0"><path fill="#000000" d="M 2235.042969 1135.445312 C 2235.046875 1153.613281 2234.597656 1171.773438 2233.707031 1189.917969 C 2232.816406 1208.066406 2231.480469 1226.179688 2229.699219 1244.261719 C 2227.917969 1262.34375 2225.695312 1280.371094 2223.027344 1298.339844 C 2220.363281 1316.3125 2217.257812 1334.210938 2213.710938 1352.03125 C 2210.167969 1369.847656 2206.1875 1387.570312 2201.773438 1405.195312 C 2197.359375 1422.820312 2192.515625 1440.324219 2187.242188 1457.710938 C 2181.964844 1475.097656 2176.269531 1492.34375 2170.148438 1509.453125 C 2164.027344 1526.558594 2157.488281 1543.503906 2150.539062 1560.292969 C 2143.585938 1577.078125 2136.222656 1593.683594 2128.457031 1610.105469 C 2120.6875 1626.53125 2112.519531 1642.753906 2103.957031 1658.777344 C 2095.390625 1674.800781 2086.4375 1690.605469 2077.097656 1706.191406 C 2067.757812 1721.773438 2058.039062 1737.121094 2047.945312 1752.226562 C 2037.851562 1767.332031 2027.394531 1782.183594 2016.570312 1796.777344 C 2005.746094 1811.371094 1994.570312 1825.691406 1983.046875 1839.734375 C 1971.519531 1853.777344 1959.65625 1867.53125 1947.453125 1880.996094 C 1935.253906 1894.457031 1922.726562 1907.613281 1909.882812 1920.460938 C 1897.035156 1933.304688 1883.878906 1945.832031 1870.417969 1958.03125 C 1856.953125 1970.234375 1843.199219 1982.097656 1829.15625 1993.625 C 1815.109375 2005.152344 1800.792969 2016.324219 1786.199219 2027.148438 C 1771.605469 2037.972656 1756.753906 2048.429688 1741.648438 2058.523438 C 1726.542969 2068.617188 1711.195312 2078.335938 1695.613281 2087.675781 C 1680.027344 2097.015625 1664.222656 2105.96875 1648.199219 2114.535156 C 1632.175781 2123.097656 1615.953125 2131.265625 1599.527344 2139.035156 C 1583.105469 2146.800781 1566.5 2154.164062 1549.714844 2161.117188 C 1532.925781 2168.070312 1515.980469 2174.605469 1498.875 2180.726562 C 1481.765625 2186.847656 1464.519531 2192.542969 1447.132812 2197.820312 C 1429.746094 2203.09375 1412.242188 2207.9375 1394.617188 2212.351562 C 1376.992188 2216.765625 1359.269531 2220.746094 1341.453125 2224.292969 C 1323.632812 2227.835938 1305.734375 2230.941406 1287.761719 2233.605469 C 1269.789062 2236.273438 1251.765625 2238.496094 1233.683594 2240.277344 C 1215.601562 2242.058594 1197.488281 2243.394531 1179.339844 2244.285156 C 1161.191406 2245.175781 1143.035156 2245.621094 1124.867188 2245.621094 C 1106.699219 2245.621094 1088.539062 2245.175781 1070.390625 2244.285156 C 1052.246094 2243.394531 1034.132812 2242.058594 1016.050781 2240.277344 C 997.96875 2238.496094 979.941406 2236.273438 961.96875 2233.605469 C 943.996094 2230.941406 926.101562 2227.835938 908.28125 2224.289062 C 890.460938 2220.746094 872.738281 2216.765625 855.113281 2212.351562 C 837.492188 2207.9375 819.984375 2203.09375 802.597656 2197.820312 C 785.210938 2192.542969 767.964844 2186.847656 750.859375 2180.726562 C 733.75 2174.605469 716.804688 2168.070312 700.019531 2161.117188 C 683.234375 2154.164062 666.628906 2146.800781 650.203125 2139.035156 C 633.777344 2131.265625 617.554688 2123.097656 601.53125 2114.535156 C 585.507812 2105.96875 569.703125 2097.015625 554.121094 2087.675781 C 538.535156 2078.335938 523.191406 2068.617188 508.085938 2058.523438 C 492.976562 2048.429688 478.128906 2037.972656 463.535156 2027.148438 C 448.941406 2016.324219 434.621094 2005.152344 420.578125 1993.625 C 406.53125 1982.097656 392.777344 1970.234375 379.316406 1958.03125 C 365.855469 1945.832031 352.699219 1933.304688 339.851562 1920.460938 C 327.003906 1907.613281 314.480469 1894.457031 302.277344 1880.996094 C 290.078125 1867.53125 278.214844 1853.777344 266.6875 1839.734375 C 255.160156 1825.691406 243.984375 1811.371094 233.164062 1796.777344 C 222.339844 1782.183594 211.878906 1767.332031 201.785156 1752.226562 C 191.691406 1737.121094 181.976562 1721.773438 172.632812 1706.191406 C 163.292969 1690.605469 154.339844 1674.800781 145.777344 1658.777344 C 137.210938 1642.753906 129.046875 1626.53125 121.277344 1610.105469 C 113.507812 1593.683594 106.148438 1577.078125 99.195312 1560.292969 C 92.242188 1543.503906 85.707031 1526.558594 79.585938 1509.453125 C 73.464844 1492.34375 67.765625 1475.097656 62.492188 1457.710938 C 57.21875 1440.324219 52.375 1422.820312 47.957031 1405.195312 C 43.542969 1387.570312 39.5625 1369.847656 36.019531 1352.03125 C 32.476562 1334.210938 29.371094 1316.3125 26.703125 1298.339844 C 24.039062 1280.371094 21.816406 1262.34375 20.035156 1244.261719 C 18.253906 1226.179688 16.917969 1208.066406 16.023438 1189.917969 C 15.132812 1171.773438 14.6875 1153.613281 14.6875 1135.445312 C 14.6875 1117.277344 15.132812 1099.117188 16.023438 1080.972656 C 16.917969 1062.824219 18.253906 1044.710938 20.035156 1026.628906 C 21.816406 1008.546875 24.039062 990.519531 26.703125 972.546875 C 29.371094 954.574219 32.476562 936.679688 36.019531 918.859375 C 39.5625 901.039062 43.542969 883.316406 47.957031 865.691406 C 52.375 848.070312 57.21875 830.5625 62.492188 813.175781 C 67.765625 795.789062 73.464844 778.542969 79.585938 761.4375 C 85.707031 744.328125 92.242188 727.382812 99.195312 710.597656 C 106.148438 693.8125 113.507812 677.207031 121.277344 660.78125 C 129.046875 644.359375 137.210938 628.132812 145.777344 612.109375 C 154.339844 596.085938 163.292969 580.28125 172.632812 564.699219 C 181.976562 549.113281 191.691406 533.769531 201.785156 518.664062 C 211.878906 503.554688 222.339844 488.707031 233.164062 474.113281 C 243.984375 459.519531 255.160156 445.199219 266.6875 431.15625 C 278.214844 417.109375 290.078125 403.355469 302.277344 389.894531 C 314.480469 376.433594 327.003906 363.277344 339.851562 350.429688 C 352.699219 337.582031 365.855469 325.058594 379.316406 312.855469 C 392.777344 300.65625 406.53125 288.792969 420.578125 277.265625 C 434.621094 265.738281 448.941406 254.5625 463.535156 243.742188 C 478.128906 232.917969 492.976562 222.460938 508.085938 212.363281 C 523.191406 202.269531 538.535156 192.554688 554.121094 183.210938 C 569.703125 173.871094 585.507812 164.917969 601.53125 156.355469 C 617.554688 147.789062 633.78125 139.625 650.203125 131.855469 C 666.628906 124.085938 683.234375 116.726562 700.019531 109.773438 C 716.804688 102.820312 733.75 96.285156 750.859375 90.164062 C 767.964844 84.042969 785.210938 78.34375 802.597656 73.070312 C 819.984375 67.796875 837.492188 62.953125 855.113281 58.535156 C 872.738281 54.121094 890.460938 50.140625 908.28125 46.597656 C 926.101562 43.054688 943.996094 39.949219 961.96875 37.28125 C 979.941406 34.617188 997.96875 32.394531 1016.050781 30.613281 C 1034.132812 28.832031 1052.246094 27.496094 1070.390625 26.605469 C 1088.539062 25.710938 1106.699219 25.265625 1124.867188 25.265625 C 1143.035156 25.265625 1161.191406 25.710938 1179.339844 26.605469 C 1197.488281 27.496094 1215.601562 28.832031 1233.683594 30.613281 C 1251.765625 32.394531 1269.792969 34.617188 1287.761719 37.28125 C 1305.734375 39.949219 1323.632812 43.054688 1341.453125 46.597656 C 1359.269531 50.144531 1376.992188 54.121094 1394.617188 58.535156 C 1412.242188 62.953125 1429.746094 67.796875 1447.132812 73.070312 C 1464.519531 78.34375 1481.765625 84.042969 1498.875 90.164062 C 1515.980469 96.285156 1532.925781 102.820312 1549.714844 109.773438 C 1566.5 116.726562 1583.105469 124.085938 1599.527344 131.855469 C 1615.953125 139.625 1632.175781 147.789062 1648.199219 156.355469 C 1664.222656 164.917969 1680.027344 173.871094 1695.613281 183.210938 C 1711.195312 192.554688 1726.542969 202.269531 1741.648438 212.363281 C 1756.753906 222.460938 1771.605469 232.917969 1786.199219 243.742188 C 1800.792969 254.5625 1815.113281 265.738281 1829.15625 277.265625 C 1843.199219 288.792969 1856.953125 300.65625 1870.417969 312.855469 C 1883.878906 325.058594 1897.035156 337.582031 1909.882812 350.429688 C 1922.726562 363.277344 1935.253906 376.433594 1947.453125 389.894531 C 1959.65625 403.355469 1971.519531 417.109375 1983.046875 431.15625 C 1994.570312 445.199219 2005.746094 459.519531 2016.570312 474.113281 C 2027.394531 488.707031 2037.851562 503.554688 2047.945312 518.664062 C 2058.039062 533.769531 2067.757812 549.113281 2077.097656 564.699219 C 2086.4375 580.28125 2095.390625 596.085938 2103.957031 612.109375 C 2112.519531 628.132812 2120.6875 644.359375 2128.457031 660.78125 C 2136.222656 677.207031 2143.585938 693.8125 2150.539062 710.597656 C 2157.488281 727.382812 2164.027344 744.328125 2170.148438 761.4375 C 2176.269531 778.542969 2181.964844 795.789062 2187.242188 813.175781 C 2192.515625 830.5625 2197.359375 848.070312 2201.773438 865.691406 C 2206.1875 883.316406 2210.167969 901.039062 2213.714844 918.859375 C 2217.257812 936.679688 2220.363281 954.574219 2223.027344 972.546875 C 2225.695312 990.519531 2227.917969 1008.546875 2229.699219 1026.628906 C 2231.480469 1044.710938 2232.816406 1062.824219 2233.707031 1080.96875 C 2234.597656 1099.117188 2235.046875 1117.277344 2235.042969 1135.445312 Z M 1735.835938 752.34375 L 1622.953125 639.460938 L 1622.953125 1635.355469 L 685.957031 1635.355469 C 682.417969 1635.527344 678.894531 1635.398438 675.378906 1634.972656 C 671.867188 1634.546875 668.414062 1633.824219 665.019531 1632.808594 C 661.628906 1631.792969 658.347656 1630.5 655.175781 1628.925781 C 652.007812 1627.351562 648.992188 1625.523438 646.132812 1623.433594 C 645.289062 1622.765625 644.46875 1622.070312 643.667969 1621.351562 C 642.867188 1620.632812 642.085938 1619.894531 641.324219 1619.132812 C 640.566406 1618.371094 639.828125 1617.585938 639.113281 1616.78125 C 638.398438 1615.980469 637.707031 1615.15625 637.035156 1614.3125 C 636.367188 1613.46875 635.722656 1612.609375 635.101562 1611.730469 C 634.484375 1610.851562 633.886719 1609.953125 633.320312 1609.039062 C 632.75 1608.128906 632.207031 1607.199219 631.6875 1606.253906 C 631.171875 1605.3125 630.683594 1604.355469 630.21875 1603.382812 C 629.757812 1602.410156 629.320312 1601.425781 628.914062 1600.429688 C 628.507812 1599.433594 628.128906 1598.429688 627.777344 1597.410156 C 627.429688 1596.394531 627.109375 1595.367188 626.816406 1594.332031 C 626.523438 1593.296875 626.261719 1592.253906 626.027344 1591.203125 C 625.792969 1590.152344 625.589844 1589.09375 625.417969 1588.035156 C 625.246094 1586.972656 625.101562 1585.90625 624.988281 1584.835938 C 624.875 1583.765625 624.792969 1582.691406 624.738281 1581.617188 C 624.6875 1580.542969 624.664062 1579.46875 624.675781 1578.390625 C 624.683594 1577.316406 624.722656 1576.242188 624.789062 1575.167969 C 624.859375 1574.09375 624.960938 1573.023438 625.089844 1571.953125 C 625.21875 1570.886719 625.378906 1569.824219 625.570312 1568.761719 C 625.757812 1567.703125 625.976562 1566.652344 626.226562 1565.605469 C 626.476562 1564.558594 626.757812 1563.519531 627.0625 1562.488281 C 627.371094 1561.457031 627.710938 1560.4375 628.074219 1559.425781 C 628.441406 1558.414062 628.835938 1557.410156 629.257812 1556.421875 C 629.679688 1555.433594 630.132812 1554.457031 630.609375 1553.492188 C 631.085938 1552.527344 631.59375 1551.578125 632.125 1550.640625 C 632.65625 1549.707031 633.214844 1548.785156 633.796875 1547.882812 C 634.378906 1546.980469 634.988281 1546.09375 635.621094 1545.222656 C 636.257812 1544.351562 636.914062 1543.5 637.597656 1542.667969 C 638.277344 1541.835938 638.984375 1541.023438 639.710938 1540.230469 C 640.4375 1539.441406 641.1875 1538.667969 641.960938 1537.917969 C 642.730469 1537.167969 643.523438 1536.441406 644.335938 1535.734375 C 645.148438 1535.03125 645.980469 1534.347656 646.832031 1533.691406 C 651.644531 1531.027344 656.644531 1528.78125 661.828125 1526.949219 C 667.011719 1525.117188 672.3125 1523.722656 677.726562 1522.769531 C 683.144531 1521.816406 688.601562 1521.3125 694.097656 1521.261719 C 699.597656 1521.214844 705.0625 1521.617188 710.496094 1522.472656 L 1510.070312 1522.472656 L 1510.070312 527.28125 L 926.726562 527.28125 L 926.726562 936.183594 L 837.402344 870.554688 L 748.214844 936.183594 L 748.214844 527.28125 L 680.625 527.28125 C 677.859375 527.285156 675.089844 527.359375 672.324219 527.503906 C 669.5625 527.644531 666.800781 527.855469 664.046875 528.132812 C 661.292969 528.410156 658.546875 528.757812 655.808594 529.167969 C 653.070312 529.582031 650.34375 530.058594 647.628906 530.605469 C 644.914062 531.152344 642.214844 531.761719 639.53125 532.441406 C 636.847656 533.117188 634.179688 533.863281 631.53125 534.671875 C 628.882812 535.480469 626.257812 536.351562 623.652344 537.289062 C 621.046875 538.226562 618.464844 539.226562 615.910156 540.292969 C 613.355469 541.355469 610.824219 542.480469 608.324219 543.667969 C 605.824219 544.855469 603.351562 546.105469 600.914062 547.414062 C 598.472656 548.722656 596.066406 550.089844 593.695312 551.515625 C 591.320312 552.941406 588.984375 554.425781 586.683594 555.96875 C 584.382812 557.507812 582.121094 559.105469 579.902344 560.757812 C 577.679688 562.410156 575.5 564.113281 573.359375 565.871094 C 571.222656 567.632812 569.128906 569.441406 567.078125 571.304688 C 565.027344 573.164062 563.023438 575.074219 561.070312 577.035156 C 559.113281 578.992188 557.207031 581 555.347656 583.050781 C 553.488281 585.105469 551.683594 587.203125 549.929688 589.34375 C 548.171875 591.484375 546.472656 593.667969 544.824219 595.890625 C 543.175781 598.117188 541.582031 600.382812 540.046875 602.683594 C 538.507812 604.988281 537.027344 607.324219 535.605469 609.699219 C 534.183594 612.074219 532.820312 614.484375 531.515625 616.925781 C 530.210938 619.367188 528.964844 621.839844 527.78125 624.34375 C 526.597656 626.847656 525.476562 629.378906 524.417969 631.9375 C 523.359375 634.492188 522.363281 637.074219 521.429688 639.683594 C 520.496094 642.289062 519.628906 644.917969 518.824219 647.566406 C 518.019531 650.214844 517.28125 652.882812 516.605469 655.570312 C 515.933594 658.253906 515.324219 660.957031 514.785156 663.671875 C 514.242188 666.386719 513.769531 669.113281 513.359375 671.851562 C 512.953125 674.589844 512.613281 677.335938 512.339844 680.09375 C 512.066406 682.847656 511.859375 685.609375 511.722656 688.371094 C 511.585938 691.136719 511.515625 693.90625 511.511719 696.675781 L 511.511719 1578.84375 C 511.515625 1581.613281 511.585938 1584.382812 511.722656 1587.148438 C 511.859375 1589.914062 512.066406 1592.675781 512.339844 1595.433594 C 512.613281 1598.191406 512.953125 1600.9375 513.363281 1603.679688 C 513.769531 1606.417969 514.246094 1609.144531 514.789062 1611.863281 C 515.328125 1614.578125 515.9375 1617.28125 516.613281 1619.96875 C 517.285156 1622.65625 518.027344 1625.324219 518.832031 1627.972656 C 519.636719 1630.625 520.503906 1633.253906 521.4375 1635.863281 C 522.375 1638.46875 523.371094 1641.054688 524.429688 1643.613281 C 525.492188 1646.171875 526.613281 1648.703125 527.800781 1651.207031 C 528.984375 1653.710938 530.230469 1656.183594 531.535156 1658.628906 C 532.839844 1661.070312 534.207031 1663.480469 535.628906 1665.855469 C 537.054688 1668.234375 538.535156 1670.574219 540.074219 1672.875 C 541.613281 1675.179688 543.207031 1677.445312 544.855469 1679.667969 C 546.507812 1681.894531 548.210938 1684.078125 549.96875 1686.21875 C 551.722656 1688.363281 553.53125 1690.460938 555.390625 1692.511719 C 557.25 1694.566406 559.160156 1696.574219 561.117188 1698.53125 C 563.078125 1700.492188 565.082031 1702.402344 567.132812 1704.261719 C 569.183594 1706.125 571.28125 1707.933594 573.421875 1709.691406 C 575.5625 1711.453125 577.742188 1713.15625 579.96875 1714.808594 C 582.191406 1716.460938 584.453125 1718.054688 586.757812 1719.597656 C 589.058594 1721.136719 591.398438 1722.621094 593.773438 1724.046875 C 596.148438 1725.472656 598.554688 1726.839844 600.996094 1728.148438 C 603.441406 1729.457031 605.914062 1730.703125 608.414062 1731.890625 C 610.917969 1733.078125 613.449219 1734.203125 616.007812 1735.265625 C 618.566406 1736.328125 621.148438 1737.328125 623.753906 1738.261719 C 626.363281 1739.199219 628.992188 1740.070312 631.640625 1740.878906 C 634.292969 1741.6875 636.960938 1742.429688 639.644531 1743.105469 C 642.332031 1743.78125 645.03125 1744.390625 647.75 1744.933594 C 650.464844 1745.480469 653.195312 1745.957031 655.933594 1746.367188 C 658.671875 1746.777344 661.421875 1747.121094 664.175781 1747.394531 C 666.933594 1747.671875 669.695312 1747.878906 672.460938 1748.019531 C 675.226562 1748.160156 677.996094 1748.234375 680.765625 1748.238281 L 1735.835938 1748.238281 Z M 1735.835938 752.34375 " fill-opacity="1" fill-rule="nonzero"/></svg>