<svg xmlns="http://www.w3.org/2000/svg" xmlns:xlink="http://www.w3.org/1999/xlink" width="3000" zoomAndPan="magnify" viewBox="0 0 2250 2250.000011" height="3000" preserveAspectRatio="xMidYMid meet" version="1.0"><defs><clipPath id="c0a0ed5ac2"><path d="M 35.949219 35.449219 L 2213.730469 35.449219 L 2213.730469 2213.230469 L 35.949219 2213.230469 Z M 35.949219 35.449219 " clip-rule="nonzero"/></clipPath></defs><g clip-path="url(#c0a0ed5ac2)"><path fill="#000000" d="M 1124.8125 35.449219 C 523.460938 35.449219 35.957031 522.988281 35.957031 1124.320312 C 35.957031 1725.648438 523.460938 2213.230469 1124.8125 2213.230469 C 1726.164062 2213.230469 2213.722656 1725.675781 2213.722656 1124.320312 C 2213.722656 522.960938 1726.164062 35.449219 1124.8125 35.449219 Z M 1124.832031 1726.503906 C 1046.679688 1726.503906 983.285156 1663.167969 983.285156 1584.957031 L 1266.359375 1584.957031 C 1266.375 1663.167969 1202.988281 1726.503906 1124.832031 1726.503906 Z M 1603.148438 1443.023438 L 1603.109375 1443.023438 L 1603.109375 1443.015625 C 1603.109375 1495.355469 1560.695312 1498.804688 1508.390625 1498.804688 L 741.261719 1498.804688 C 688.9375 1498.804688 646.554688 1495.355469 646.554688 1443.015625 L 646.554688 1434 C 646.554688 1396.359375 668.660156 1364.128906 700.417969 1348.839844 L 730.488281 1089.300781 C 730.488281 899.296875 864.855469 740.710938 1043.738281 703.296875 L 1043.738281 602.535156 C 1043.738281 557.746094 1080.058594 521.429688 1124.871094 521.429688 C 1169.660156 521.429688 1205.976562 557.746094 1205.976562 602.535156 L 1205.976562 703.304688 C 1384.859375 740.710938 1519.230469 899.28125 1519.230469 1089.308594 L 1549.296875 1348.882812 C 1581.058594 1364.195312 1603.148438 1396.367188 1603.148438 1434.007812 Z M 1603.148438 1443.023438 " fill-opacity="1" fill-rule="nonzero"/></g></svg>