<svg xmlns="http://www.w3.org/2000/svg" xmlns:xlink="http://www.w3.org/1999/xlink" width="3000" zoomAndPan="magnify" viewBox="0 0 2250 2250.000011" height="3000" preserveAspectRatio="xMidYMid meet" version="1.0"><path fill="#000000" d="M 2051.90625 1185.972656 C 2051.90625 1731.796875 1609.421875 2174.285156 1063.597656 2174.285156 C 517.769531 2174.285156 75.285156 1731.796875 75.285156 1185.972656 C 75.285156 640.144531 517.769531 197.664062 1063.597656 197.664062 C 1609.421875 197.664062 2051.90625 640.144531 2051.90625 1185.972656 Z M 1515.503906 927.53125 C 1540.851562 943.09375 1557.308594 971.113281 1557.308594 1003.136719 L 1557.753906 1447.875 C 1557.753906 1496.796875 1517.726562 1536.824219 1468.804688 1536.824219 L 757.21875 1536.824219 C 708.300781 1536.824219 668.273438 1496.796875 668.273438 1447.875 L 668.273438 1003.136719 C 668.273438 971.113281 685.171875 943.09375 710.523438 927.53125 L 1113.011719 691.816406 Z M 1468.359375 1003.582031 L 1468.359375 1003.136719 L 1113.011719 795 L 757.21875 1003.136719 L 1113.011719 1225.503906 Z M 757.21875 1447.875 L 757.21875 1107.203125 L 1113.011719 1330.464844 L 1468.359375 1108.539062 L 1468.804688 1447.875 Z M 757.21875 1447.875 " fill-opacity="1" fill-rule="evenodd"/></svg>