<svg xmlns="http://www.w3.org/2000/svg" xmlns:xlink="http://www.w3.org/1999/xlink" width="3000" zoomAndPan="magnify" viewBox="0 0 2250 2250.000011" height="3000" preserveAspectRatio="xMidYMid meet" version="1.0"><path fill="#000000" d="M 2190.910156 1124.632812 C 2190.910156 1713.242188 1713.742188 2190.410156 1125.132812 2190.410156 C 536.523438 2190.410156 59.359375 1713.242188 59.359375 1124.632812 C 59.359375 536.023438 536.523438 58.859375 1125.132812 58.859375 C 1713.742188 58.859375 2190.910156 536.023438 2190.910156 1124.632812 Z M 1532.304688 1193.269531 C 1534.488281 1175.738281 1536.128906 1158.207031 1536.128906 1139.585938 C 1536.128906 1120.957031 1534.488281 1103.425781 1532.304688 1085.894531 L 1647.886719 995.503906 C 1658.300781 987.289062 1661.039062 972.496094 1654.460938 960.441406 L 1544.902344 770.890625 C 1539.964844 762.125 1530.652344 757.191406 1520.792969 757.191406 C 1517.511719 757.191406 1514.21875 757.742188 1511.476562 758.835938 L 1375.070312 813.621094 C 1346.582031 791.707031 1315.898438 773.628906 1282.484375 759.933594 L 1261.671875 614.753906 C 1260.019531 601.609375 1248.519531 591.746094 1234.824219 591.746094 L 1015.691406 591.746094 C 1001.996094 591.746094 990.484375 601.609375 988.84375 614.753906 L 968.027344 759.933594 C 934.605469 773.628906 903.929688 792.253906 875.441406 813.621094 L 739.03125 758.835938 C 735.742188 757.742188 732.457031 757.191406 729.167969 757.191406 C 719.855469 757.191406 710.542969 762.125 705.613281 770.890625 L 596.042969 960.441406 C 588.921875 972.496094 592.210938 987.289062 602.617188 995.503906 L 718.210938 1085.894531 C 716.019531 1103.425781 714.378906 1121.5 714.378906 1139.585938 C 714.378906 1157.664062 716.019531 1175.738281 718.210938 1193.269531 L 602.617188 1283.667969 C 592.210938 1291.886719 589.472656 1306.667969 596.042969 1318.722656 L 705.613281 1508.28125 C 710.542969 1517.042969 719.855469 1521.976562 729.714844 1521.976562 C 733.003906 1521.976562 736.292969 1521.421875 739.03125 1520.335938 L 875.441406 1465.542969 C 903.929688 1487.457031 934.605469 1505.542969 968.027344 1519.238281 L 988.84375 1664.40625 C 990.484375 1677.558594 1001.996094 1687.417969 1015.691406 1687.417969 L 1234.824219 1687.417969 C 1248.519531 1687.417969 1260.019531 1677.558594 1261.671875 1664.40625 L 1282.484375 1519.238281 C 1315.898438 1505.542969 1346.582031 1486.914062 1375.070312 1465.542969 L 1511.476562 1520.335938 C 1514.769531 1521.421875 1518.054688 1521.976562 1521.335938 1521.976562 C 1530.652344 1521.976562 1539.964844 1517.042969 1544.902344 1508.28125 L 1654.460938 1318.722656 C 1661.039062 1306.667969 1658.300781 1291.886719 1647.886719 1283.667969 Z M 1423.828125 1099.589844 C 1426.011719 1116.578125 1426.566406 1128.078125 1426.566406 1139.585938 C 1426.566406 1151.085938 1425.46875 1163.140625 1423.828125 1179.574219 L 1416.15625 1241.488281 L 1464.914062 1279.832031 L 1524.074219 1325.851562 L 1485.730469 1392.132812 L 1416.15625 1364.199219 L 1359.179688 1341.191406 L 1309.875 1378.4375 C 1286.324219 1395.96875 1263.855469 1409.121094 1241.398438 1418.4375 L 1183.324219 1441.992188 L 1174.554688 1503.890625 L 1163.597656 1577.855469 L 1086.90625 1577.855469 L 1067.730469 1441.992188 L 1009.65625 1418.4375 C 986.105469 1408.566406 964.191406 1395.96875 942.277344 1379.535156 L 892.421875 1341.191406 L 834.351562 1364.742188 L 764.777344 1392.6875 L 726.425781 1326.398438 L 785.59375 1280.375 L 834.351562 1242.03125 L 826.683594 1180.128906 C 825.039062 1163.140625 823.941406 1150.542969 823.941406 1139.585938 C 823.941406 1128.632812 825.039062 1116.023438 826.683594 1099.589844 L 834.351562 1037.6875 L 785.59375 999.34375 L 726.425781 953.320312 L 764.777344 887.03125 L 834.351562 914.976562 L 891.328125 937.984375 L 940.628906 900.726562 C 964.191406 883.195312 986.648438 870.046875 1009.113281 860.734375 L 1067.175781 837.179688 L 1075.949219 775.273438 L 1086.90625 701.316406 L 1163.054688 701.316406 L 1182.226562 837.179688 L 1240.300781 860.734375 C 1263.855469 870.597656 1285.769531 883.195312 1307.679688 899.632812 L 1357.539062 937.984375 L 1415.613281 914.421875 L 1485.183594 886.484375 L 1523.53125 952.765625 L 1464.914062 999.34375 L 1416.15625 1037.6875 Z M 906.117188 1139.585938 C 906.117188 1018.515625 1004.179688 920.453125 1125.25 920.453125 C 1246.324219 920.453125 1344.386719 1018.515625 1344.386719 1139.585938 C 1344.386719 1260.660156 1246.324219 1358.722656 1125.25 1358.722656 C 1004.179688 1358.722656 906.117188 1260.660156 906.117188 1139.585938 Z M 1125.25 1249.148438 C 1064.992188 1249.148438 1015.691406 1199.847656 1015.691406 1139.585938 C 1015.691406 1079.316406 1064.992188 1030.015625 1125.25 1030.015625 C 1185.519531 1030.015625 1234.824219 1079.316406 1234.824219 1139.585938 C 1234.824219 1199.847656 1185.519531 1249.148438 1125.25 1249.148438 Z M 1125.25 1249.148438 " fill-opacity="1" fill-rule="evenodd"/></svg>